{"glyphs":{"0":{"ha":690,"x_min":61,"x_max":629,"o":"m 346 -17 q 554 103 479 -17 q 629 446 629 222 q 554 786 629 669 q 346 903 479 903 q 136 786 211 903 q 61 446 61 669 q 136 103 61 222 q 346 -17 211 -17 m 346 75 q 220 163 268 75 q 172 446 172 251 q 185 613 172 543 q 220 726 197 682 q 275 790 243 769 q 346 811 307 811 q 416 790 385 811 q 470 726 447 769 q 506 613 493 682 q 518 446 518 543 q 506 278 518 349 q 470 163 493 208 q 416 97 447 118 q 346 75 385 75 "},"1":{"ha":690,"x_min":110,"x_max":610,"o":"m 110 0 l 610 0 l 610 94 l 426 94 l 426 886 l 339 886 q 258 848 303 864 q 151 821 213 832 l 151 747 l 313 747 l 313 94 l 110 94 l 110 0 "},"2":{"ha":690,"x_min":50,"x_max":628,"o":"m 56 0 l 628 0 l 628 99 l 371 99 q 297 96 336 99 q 222 90 258 93 q 367 245 301 172 q 481 385 433 318 q 556 516 529 453 q 583 642 583 579 q 513 831 583 760 q 318 903 442 903 q 168 866 231 903 q 50 768 106 829 l 115 703 q 201 778 154 747 q 304 810 249 810 q 431 761 389 810 q 472 636 472 713 q 444 524 472 582 q 364 398 417 467 q 233 249 311 329 q 56 68 156 168 l 56 0 "},"3":{"ha":690,"x_min":36,"x_max":619,"o":"m 328 -17 q 442 1 389 -17 q 534 51 494 18 q 597 131 574 83 q 619 236 619 178 q 605 319 619 282 q 564 385 590 357 q 503 433 538 414 q 428 461 468 451 l 428 467 q 544 546 500 494 q 589 678 589 597 q 569 774 589 732 q 515 844 550 815 q 431 888 479 872 q 324 903 382 903 q 183 872 244 903 q 69 792 121 840 l 131 719 q 217 785 171 760 q 319 810 264 810 q 431 772 390 810 q 472 669 472 735 q 460 604 472 635 q 417 551 447 574 q 340 517 388 529 q 221 504 292 504 l 221 417 q 354 404 300 417 q 442 368 408 392 q 490 312 475 344 q 504 240 504 279 q 453 122 504 165 q 321 78 401 78 q 188 110 242 78 q 94 183 135 142 l 36 108 q 87 61 58 83 q 151 22 115 39 q 231 -6 188 4 q 328 -17 275 -17 "},"4":{"ha":690,"x_min":24,"x_max":651,"o":"m 422 0 l 531 0 l 531 244 l 651 244 l 651 336 l 531 336 l 531 886 l 403 886 l 24 319 l 24 244 l 422 244 l 422 0 m 144 336 l 351 639 q 389 701 371 671 q 424 764 407 732 l 429 764 q 424 678 426 728 q 422 593 422 629 l 422 336 l 144 336 "},"5":{"ha":690,"x_min":35,"x_max":624,"o":"m 325 -17 q 437 3 383 -17 q 532 62 490 24 q 599 156 574 100 q 624 283 624 211 q 602 408 624 356 q 543 494 581 460 q 456 544 506 528 q 349 561 406 561 q 276 551 308 561 q 213 525 244 542 l 236 788 l 579 788 l 579 886 l 136 886 l 107 460 l 168 421 q 241 461 208 447 q 319 475 274 475 q 457 424 406 475 q 508 281 508 372 q 493 197 508 235 q 451 133 478 160 q 390 92 425 107 q 314 78 354 78 q 183 108 236 78 q 90 179 129 139 l 35 104 q 85 59 57 81 q 149 21 114 38 q 228 -6 185 4 q 325 -17 272 -17 "},"6":{"ha":690,"x_min":67,"x_max":635,"o":"m 372 -17 q 474 4 426 -17 q 557 63 521 25 q 614 152 593 100 q 635 268 635 204 q 566 474 635 406 q 382 542 497 542 q 272 512 328 542 q 175 431 217 482 q 196 608 176 536 q 247 724 215 679 q 321 788 279 768 q 408 807 363 807 q 488 788 450 807 q 554 738 526 769 l 618 808 q 528 876 581 849 q 404 903 476 903 q 277 876 338 903 q 169 790 217 849 q 94 637 122 731 q 67 410 67 543 q 90 223 67 303 q 155 90 114 143 q 251 10 196 36 q 372 -17 307 -17 m 372 74 q 238 141 288 74 q 178 339 189 208 q 269 428 219 401 q 363 456 319 456 q 486 406 446 456 q 526 268 526 356 q 515 188 526 224 q 482 127 503 153 q 433 88 461 101 q 372 74 406 74 "},"7":{"ha":690,"x_min":61,"x_max":632,"o":"m 246 0 l 364 0 q 383 235 369 129 q 425 437 396 342 q 503 624 454 532 q 632 815 553 715 l 632 886 l 61 886 l 61 788 l 503 788 q 391 608 438 696 q 315 427 344 521 q 268 229 285 333 q 246 0 251 125 "},"8":{"ha":690,"x_min":57,"x_max":633,"o":"m 347 -17 q 464 1 411 -17 q 554 51 517 19 q 613 126 592 83 q 633 219 633 169 q 620 299 633 264 q 585 360 607 333 q 536 409 564 388 q 479 447 508 431 l 479 453 q 522 490 500 468 q 560 540 543 513 q 590 600 578 568 q 601 667 601 632 q 584 762 601 718 q 534 837 567 806 q 456 885 501 868 q 351 903 410 903 q 251 886 297 903 q 172 840 206 869 q 119 768 139 810 q 100 675 100 726 q 138 555 100 604 q 224 471 175 506 l 224 465 q 162 426 192 449 q 109 373 132 403 q 72 306 86 343 q 57 226 57 269 q 79 129 57 174 q 140 52 101 85 q 231 1 178 19 q 347 -17 285 -17 m 410 483 q 333 516 369 499 q 267 556 296 533 q 222 606 239 578 q 206 675 206 635 q 246 779 206 740 q 349 818 286 818 q 463 773 422 818 q 503 661 503 728 q 478 568 503 613 q 410 483 454 524 m 350 68 q 275 81 310 68 q 215 116 240 93 q 174 169 189 139 q 160 238 160 200 q 195 347 160 299 q 283 431 231 394 q 374 392 331 411 q 451 351 418 374 q 504 297 485 328 q 524 224 524 267 q 476 111 524 154 q 350 68 428 68 "},"9":{"ha":690,"x_min":56,"x_max":622,"o":"m 326 431 q 203 481 243 431 q 163 618 163 531 q 174 697 163 661 q 207 759 186 733 q 256 799 228 785 q 317 813 285 813 q 451 746 401 813 q 513 549 501 679 q 420 458 469 486 q 326 431 371 431 m 285 -17 q 412 10 351 -17 q 519 97 472 38 q 594 249 567 156 q 622 476 622 343 q 599 663 622 583 q 535 797 576 743 q 438 876 494 850 q 317 903 382 903 q 216 882 264 903 q 133 824 168 861 q 76 734 97 786 q 56 618 56 682 q 124 413 56 481 q 307 344 192 344 q 418 375 363 344 q 515 458 474 406 q 494 279 514 351 q 443 162 475 207 q 369 97 411 117 q 281 78 328 78 q 201 97 239 78 q 135 149 163 117 l 71 76 q 160 10 107 36 q 285 -17 214 -17 "}," ":{"ha":278,"x_min":0,"x_max":0,"o":""},"A":{"ha":756,"x_min":4,"x_max":751,"o":"m 282 510 q 329 662 307 586 q 372 817 351 738 l 378 817 q 422 662 400 738 q 469 510 444 586 l 513 371 l 239 371 l 282 510 m 4 0 l 122 0 l 210 278 l 542 278 l 628 0 l 751 0 l 443 911 l 313 911 l 4 0 "},"B":{"ha":817,"x_min":125,"x_max":761,"o":"m 125 0 l 415 0 q 556 17 492 0 q 665 67 619 33 q 736 150 711 100 q 761 267 761 200 q 710 415 761 361 q 575 485 658 469 l 575 490 q 674 566 640 511 q 708 689 708 621 q 685 791 708 749 q 622 860 663 833 q 523 899 581 886 q 396 911 465 911 l 125 911 l 125 0 m 240 524 l 240 819 l 381 819 q 541 786 488 819 q 594 674 594 753 q 543 564 594 604 q 375 524 492 524 l 240 524 m 240 92 l 240 435 l 399 435 q 583 395 519 435 q 647 271 647 356 q 582 135 647 179 q 399 92 517 92 l 240 92 "},"C":{"ha":793,"x_min":72,"x_max":749,"o":"m 469 -17 q 626 18 558 -17 q 749 115 694 53 l 685 188 q 590 112 640 139 q 474 85 540 85 q 356 111 408 85 q 268 186 304 138 q 212 303 232 235 q 192 458 192 372 q 212 611 192 543 q 269 727 232 679 q 360 801 307 775 q 478 826 413 826 q 582 803 536 826 q 664 740 628 779 l 726 815 q 623 894 686 860 q 476 928 560 928 q 315 895 389 928 q 188 801 242 863 q 103 653 133 740 q 72 456 72 565 q 102 256 72 344 q 185 108 132 168 q 311 15 239 47 q 469 -17 383 -17 "},"D":{"ha":854,"x_min":125,"x_max":783,"o":"m 125 0 l 358 0 q 540 31 461 0 q 674 122 619 63 q 756 266 728 181 q 783 460 783 351 q 674 794 783 678 q 353 911 564 911 l 125 911 l 125 0 m 240 94 l 240 817 l 344 817 q 584 725 504 817 q 664 460 664 633 q 584 190 664 286 q 344 94 504 94 l 240 94 "},"E":{"ha":732,"x_min":125,"x_max":664,"o":"m 125 0 l 664 0 l 664 99 l 240 99 l 240 429 l 586 429 l 586 528 l 240 528 l 240 814 l 650 814 l 650 911 l 125 911 l 125 0 "},"F":{"ha":686,"x_min":125,"x_max":650,"o":"m 125 0 l 240 0 l 240 408 l 588 408 l 588 506 l 240 506 l 240 814 l 650 814 l 650 911 l 125 911 l 125 0 "},"G":{"ha":857,"x_min":72,"x_max":764,"o":"m 483 -17 q 647 13 575 -17 q 764 89 719 43 l 764 472 l 465 472 l 465 376 l 658 376 l 658 139 q 587 99 631 114 q 494 85 543 85 q 365 111 421 85 q 270 186 308 138 q 212 303 232 235 q 192 458 192 372 q 213 611 192 543 q 274 727 235 679 q 368 801 313 775 q 493 826 424 826 q 608 801 563 826 q 689 740 654 776 l 753 815 q 708 856 733 836 q 649 892 682 876 q 577 918 617 908 q 490 928 538 928 q 323 895 400 928 q 190 801 246 863 q 103 653 135 740 q 72 456 72 565 q 103 256 72 344 q 188 108 133 168 q 317 15 242 47 q 483 -17 393 -17 "},"H":{"ha":906,"x_min":125,"x_max":781,"o":"m 125 0 l 240 0 l 240 429 l 664 429 l 664 0 l 781 0 l 781 911 l 664 911 l 664 529 l 240 529 l 240 911 l 125 911 l 125 0 "},"I":{"ha":365,"x_min":125,"x_max":240,"o":"m 125 0 l 240 0 l 240 911 l 125 911 l 125 0 "},"J":{"ha":667,"x_min":43,"x_max":546,"o":"m 294 -17 q 409 6 361 -17 q 487 67 457 28 q 531 158 517 106 q 546 268 546 210 l 546 911 l 429 911 l 429 279 q 393 130 429 175 q 283 85 357 85 q 196 109 235 85 q 126 188 157 133 l 43 129 q 294 -17 124 -17 "},"K":{"ha":804,"x_min":125,"x_max":799,"o":"m 125 0 l 240 0 l 240 289 l 397 474 l 669 0 l 799 0 l 469 564 l 754 911 l 624 911 l 244 454 l 240 454 l 240 911 l 125 911 l 125 0 "},"L":{"ha":675,"x_min":125,"x_max":639,"o":"m 125 0 l 639 0 l 639 99 l 240 99 l 240 911 l 125 911 l 125 0 "},"M":{"ha":1010,"x_min":125,"x_max":885,"o":"m 125 0 l 229 0 l 229 501 q 224 636 229 563 q 215 771 219 710 l 221 771 l 293 564 l 465 92 l 542 92 l 714 564 l 786 771 l 792 771 q 782 636 788 710 q 776 501 776 563 l 776 0 l 885 0 l 885 911 l 744 911 l 572 425 q 541 330 556 378 q 510 235 526 282 l 504 235 q 472 330 488 282 q 439 425 456 378 l 264 911 l 125 911 l 125 0 "},"N":{"ha":899,"x_min":125,"x_max":774,"o":"m 125 0 l 235 0 l 235 476 q 230 620 235 549 q 219 761 225 692 l 225 761 l 324 574 l 654 0 l 774 0 l 774 911 l 664 911 l 664 440 q 669 294 664 368 q 678 150 674 219 l 672 150 l 574 339 l 244 911 l 125 911 l 125 0 "},"O":{"ha":922,"x_min":72,"x_max":851,"o":"m 461 -17 q 619 17 547 -17 q 742 112 690 50 q 823 262 794 174 q 851 460 851 350 q 823 655 851 568 q 742 802 794 742 q 619 895 690 863 q 461 928 547 928 q 303 896 375 928 q 181 803 232 864 q 101 656 129 743 q 72 460 72 569 q 101 262 72 350 q 181 112 129 174 q 303 17 232 50 q 461 -17 375 -17 m 461 85 q 351 111 400 85 q 266 187 301 138 q 211 305 231 236 q 192 460 192 374 q 211 613 192 544 q 266 728 231 681 q 351 801 301 775 q 461 826 400 826 q 572 801 522 826 q 656 728 621 775 q 711 613 692 681 q 731 460 731 544 q 711 305 731 374 q 656 187 692 236 q 572 111 621 138 q 461 85 522 85 "},"P":{"ha":786,"x_min":125,"x_max":726,"o":"m 125 0 l 240 0 l 240 361 l 390 361 q 527 378 465 361 q 633 431 589 396 q 702 518 678 465 q 726 643 726 571 q 701 769 726 718 q 632 852 676 821 q 524 897 588 883 q 385 911 461 911 l 125 911 l 125 0 m 240 456 l 240 818 l 371 818 q 551 780 490 818 q 611 643 611 742 q 553 501 611 546 q 376 456 496 456 l 240 456 "},"Q":{"ha":922,"x_min":72,"x_max":871,"o":"m 461 79 q 351 106 400 79 q 266 182 301 132 q 211 302 231 232 q 192 460 192 372 q 211 613 192 544 q 266 728 231 681 q 351 801 301 775 q 461 826 400 826 q 572 801 522 826 q 656 728 621 775 q 711 613 692 681 q 731 460 731 544 q 711 302 731 372 q 656 182 692 232 q 572 106 621 132 q 461 79 522 79 m 740 -229 q 815 -223 781 -229 q 871 -208 850 -217 l 849 -119 q 806 -128 829 -125 q 753 -132 783 -132 q 619 -102 678 -132 q 529 -11 561 -72 q 661 40 601 1 q 763 138 721 78 q 828 280 806 199 q 851 460 851 361 q 823 655 851 568 q 742 802 794 742 q 619 895 690 863 q 461 928 547 928 q 303 896 375 928 q 181 803 232 864 q 101 656 129 743 q 72 460 72 569 q 96 277 72 360 q 163 133 119 194 q 268 35 207 72 q 404 -12 329 -3 q 455 -99 424 -60 q 528 -168 486 -139 q 624 -213 571 -197 q 740 -229 678 -229 "},"R":{"ha":790,"x_min":125,"x_max":756,"o":"m 125 0 l 240 0 l 240 385 l 406 385 l 625 0 l 756 0 l 524 397 q 674 485 618 421 q 729 656 729 549 q 706 775 729 726 q 640 854 682 824 q 538 898 597 885 q 410 911 479 911 l 125 911 l 125 0 m 240 479 l 240 818 l 393 818 q 557 782 500 818 q 614 656 614 746 q 557 523 614 567 q 393 479 500 479 l 240 479 "},"S":{"ha":742,"x_min":58,"x_max":688,"o":"m 378 -17 q 507 3 450 -17 q 604 59 564 24 q 666 142 644 94 q 688 243 688 189 q 673 331 688 293 q 633 398 658 369 q 574 448 608 426 q 500 486 539 469 l 371 542 q 317 566 343 553 q 268 597 290 579 q 233 637 246 614 q 219 693 219 660 q 266 791 219 756 q 389 826 313 826 q 503 803 453 826 q 596 740 554 781 l 658 815 q 540 897 610 865 q 389 928 471 928 q 274 910 326 928 q 184 859 222 892 q 124 782 146 826 q 103 686 103 738 q 119 598 103 636 q 163 532 136 560 q 222 485 189 504 q 288 451 256 465 l 418 394 q 478 365 450 379 q 526 334 506 351 q 558 292 546 317 q 569 233 569 268 q 519 126 569 167 q 379 85 469 85 q 242 116 308 85 q 128 199 176 147 l 58 118 q 200 19 118 56 q 378 -17 282 -17 "},"T":{"ha":744,"x_min":39,"x_max":706,"o":"m 314 0 l 431 0 l 431 814 l 706 814 l 706 911 l 39 911 l 39 814 l 314 814 l 314 0 "},"U":{"ha":896,"x_min":121,"x_max":775,"o":"m 449 -17 q 578 3 518 -17 q 681 70 638 24 q 750 192 725 117 q 775 376 775 267 l 775 911 l 664 911 l 664 374 q 647 236 664 292 q 601 147 631 181 q 533 99 572 114 q 449 85 494 85 q 365 99 404 85 q 298 147 326 114 q 253 236 269 181 q 236 374 236 292 l 236 911 l 121 911 l 121 376 q 146 192 121 267 q 215 70 171 117 q 319 3 258 24 q 449 -17 379 -17 "},"V":{"ha":715,"x_min":0,"x_max":715,"o":"m 292 0 l 426 0 l 715 911 l 597 911 l 451 419 q 408 268 428 338 q 364 118 389 199 l 358 118 q 313 268 332 199 q 269 419 294 338 l 124 911 l 0 911 l 292 0 "},"W":{"ha":1092,"x_min":32,"x_max":1058,"o":"m 225 0 l 363 0 l 497 549 q 520 652 508 601 q 543 756 532 703 l 549 756 q 570 652 560 703 q 593 549 581 601 l 731 0 l 869 0 l 1058 911 l 947 911 l 851 415 q 825 269 838 342 q 800 121 813 196 l 794 121 q 761 269 778 196 q 728 415 744 343 l 601 911 l 496 911 l 369 415 q 338 269 354 342 q 306 121 321 196 l 300 121 q 274 268 288 196 q 247 415 260 340 l 151 911 l 32 911 l 225 0 "},"X":{"ha":713,"x_min":21,"x_max":692,"o":"m 21 0 l 143 0 l 275 246 q 310 315 292 279 q 347 392 328 350 l 353 392 q 394 315 375 350 q 431 246 413 279 l 564 0 l 692 0 l 426 465 l 675 911 l 553 911 l 432 678 q 401 616 415 646 q 367 546 386 586 l 361 546 q 324 616 340 586 q 290 678 308 646 l 167 911 l 39 911 l 286 471 l 21 0 "},"Y":{"ha":661,"x_min":-1,"x_max":663,"o":"m 272 0 l 389 0 l 389 353 l 663 911 l 542 911 l 425 654 q 381 556 404 604 q 333 456 357 507 l 328 456 q 283 556 304 507 q 240 654 263 604 l 122 911 l -1 911 l 272 353 l 272 0 "},"Z":{"ha":749,"x_min":63,"x_max":690,"o":"m 63 0 l 690 0 l 690 99 l 206 99 l 686 843 l 686 911 l 106 911 l 106 814 l 542 814 l 63 69 l 63 0 "},"a":{"ha":700,"x_min":72,"x_max":601,"o":"m 269 -17 q 389 12 333 -17 q 493 81 444 40 l 497 81 l 507 0 l 601 0 l 601 414 q 546 616 601 540 q 367 692 490 692 q 217 663 285 692 q 101 604 149 635 l 146 525 q 238 575 186 553 q 347 597 289 597 q 416 583 389 597 q 458 544 443 568 q 480 490 474 521 q 486 428 486 460 q 171 345 269 404 q 72 175 72 286 q 128 33 72 83 q 269 -17 185 -17 m 303 75 q 218 100 253 75 q 183 183 183 125 q 199 242 183 215 q 251 290 215 269 q 344 326 286 311 q 486 353 401 342 l 486 165 q 394 98 438 121 q 303 75 351 75 "},"b":{"ha":768,"x_min":114,"x_max":704,"o":"m 413 -17 q 524 8 471 -17 q 617 79 576 32 q 681 194 657 126 q 704 349 704 263 q 687 490 704 426 q 635 598 669 553 q 551 667 601 643 q 436 692 501 692 q 325 665 379 692 q 225 597 271 638 l 228 719 l 228 989 l 114 989 l 114 0 l 206 0 l 215 69 l 219 69 q 315 6 264 29 q 413 -17 365 -17 m 393 79 q 316 95 360 79 q 228 150 272 111 l 228 504 q 408 596 326 596 q 490 578 456 596 q 545 527 524 560 q 576 449 567 494 q 586 347 586 403 q 572 235 586 285 q 531 151 557 185 q 470 98 506 117 q 393 79 435 79 "},"c":{"ha":633,"x_min":64,"x_max":599,"o":"m 381 -17 q 497 6 442 -17 q 599 69 553 29 l 549 146 q 477 98 517 118 q 390 78 438 78 q 306 97 344 78 q 240 149 267 115 q 197 231 213 183 q 182 336 182 278 q 198 442 182 394 q 242 525 214 490 q 308 578 269 560 q 393 597 347 597 q 466 581 433 597 q 528 538 499 564 l 586 613 q 503 668 550 644 q 389 692 456 692 q 265 668 324 692 q 161 599 206 644 q 90 487 117 553 q 64 336 64 421 q 88 187 64 253 q 155 76 113 121 q 256 7 197 31 q 381 -17 314 -17 "},"d":{"ha":771,"x_min":65,"x_max":657,"o":"m 344 -17 q 456 12 404 -17 q 549 79 508 40 l 553 79 l 563 0 l 657 0 l 657 989 l 542 989 l 542 729 l 547 614 q 460 671 503 650 q 358 692 417 692 q 247 667 300 692 q 154 596 194 642 q 90 484 114 550 q 65 336 65 418 q 141 75 65 167 q 344 -17 217 -17 m 369 79 q 232 147 281 79 q 183 338 183 215 q 199 443 183 396 q 240 524 214 490 q 302 577 267 558 q 378 596 338 596 q 459 580 419 596 q 542 525 499 564 l 542 172 q 458 102 500 125 q 369 79 417 79 "},"e":{"ha":689,"x_min":64,"x_max":636,"o":"m 388 -17 q 511 4 457 -17 q 610 53 565 25 l 569 128 q 491 90 532 104 q 401 75 450 75 q 244 138 304 75 q 176 310 183 201 l 632 310 q 635 340 635 322 q 636 375 636 357 q 618 506 636 447 q 566 606 600 564 q 481 669 532 647 q 367 692 431 692 q 254 667 308 692 q 158 597 200 643 q 90 485 115 551 q 64 336 64 419 q 89 188 64 253 q 158 77 114 122 q 260 8 201 32 q 388 -17 319 -17 m 175 392 q 198 481 181 442 q 242 547 215 519 q 301 588 268 574 q 369 601 333 601 q 492 548 449 601 q 536 392 536 494 l 175 392 "},"f":{"ha":406,"x_min":42,"x_max":443,"o":"m 133 0 l 247 0 l 247 582 l 390 582 l 390 675 l 247 675 l 247 782 q 342 913 247 913 q 418 896 381 913 l 443 983 q 391 999 419 993 q 331 1006 363 1006 q 181 946 229 1006 q 133 782 133 886 l 133 675 l 42 668 l 42 582 l 133 582 l 133 0 "},"g":{"ha":700,"x_min":63,"x_max":683,"o":"m 342 -311 q 484 -292 421 -311 q 592 -242 547 -274 q 660 -167 636 -210 q 683 -78 683 -125 q 624 45 683 7 q 447 83 565 83 l 317 83 q 222 104 247 83 q 197 157 197 125 q 210 203 197 185 q 240 238 222 222 q 290 220 264 226 q 342 214 317 214 q 438 231 393 214 q 517 277 483 247 q 569 351 550 307 q 589 449 589 394 q 573 528 589 492 q 533 588 557 564 l 672 588 l 672 675 l 438 675 q 394 687 418 682 q 342 692 369 692 q 244 675 290 692 q 163 627 197 658 q 108 551 128 596 q 88 451 88 507 q 115 344 88 390 q 175 269 142 297 l 175 264 q 125 214 149 246 q 101 139 101 182 q 119 72 101 99 q 161 29 136 44 l 161 24 q 89 -47 115 -8 q 63 -129 63 -86 q 83 -207 63 -174 q 140 -264 103 -240 q 228 -299 176 -287 q 342 -311 279 -311 m 342 290 q 287 301 313 290 q 241 333 261 313 q 210 384 221 354 q 199 451 199 414 q 240 567 199 526 q 342 608 282 608 q 443 567 401 608 q 485 451 485 526 q 474 384 485 414 q 442 333 463 354 q 397 301 422 313 q 342 290 371 290 m 358 -232 q 215 -200 267 -232 q 163 -114 163 -168 q 179 -56 163 -85 q 232 0 196 -26 q 277 -9 254 -7 q 319 -11 300 -11 l 436 -11 q 538 -29 503 -11 q 572 -94 572 -47 q 557 -146 572 -121 q 514 -190 542 -171 q 447 -220 486 -208 q 358 -232 407 -232 "},"h":{"ha":756,"x_min":114,"x_max":654,"o":"m 114 0 l 228 0 l 228 489 q 319 567 279 540 q 413 593 360 593 q 510 551 479 593 q 540 413 540 508 l 540 0 l 654 0 l 654 428 q 605 625 654 558 q 449 692 556 692 q 325 659 378 692 q 224 581 272 626 l 228 719 l 228 989 l 114 989 l 114 0 "},"i":{"ha":342,"x_min":93,"x_max":251,"o":"m 114 0 l 228 0 l 228 675 l 114 675 l 114 0 m 172 814 q 228 835 206 814 q 251 888 251 856 q 228 941 251 921 q 172 961 206 961 q 116 941 139 961 q 93 888 93 921 q 116 835 93 856 q 172 814 139 814 "},"j":{"ha":343,"x_min":-56,"x_max":251,"o":"m 44 -301 q 188 -240 146 -301 q 229 -76 229 -179 l 229 675 l 115 675 l 115 -76 q 99 -174 115 -139 q 32 -208 82 -208 q -3 -205 14 -208 q -32 -197 -19 -201 l -56 -283 q -12 -296 -37 -290 q 44 -301 13 -301 m 174 814 q 228 835 206 814 q 251 888 251 856 q 228 941 251 921 q 174 961 206 961 q 117 941 140 961 q 94 888 94 921 q 117 835 94 856 q 174 814 140 814 "},"k":{"ha":688,"x_min":114,"x_max":675,"o":"m 114 0 l 226 0 l 226 178 l 353 325 l 550 0 l 675 0 l 418 404 l 644 675 l 518 675 l 231 319 l 226 319 l 226 989 l 114 989 l 114 0 "},"l":{"ha":354,"x_min":114,"x_max":300,"o":"m 235 -17 q 274 -14 258 -17 q 300 -6 289 -11 l 285 81 q 270 78 275 78 q 260 78 265 78 q 238 89 247 78 q 228 128 228 100 l 228 989 l 114 989 l 114 136 q 142 22 114 61 q 235 -17 169 -17 "},"m":{"ha":1151,"x_min":114,"x_max":1046,"o":"m 114 0 l 228 0 l 228 489 q 397 593 321 593 q 493 551 463 593 q 524 413 524 508 l 524 0 l 638 0 l 638 489 q 807 593 731 593 q 901 551 871 593 q 932 413 932 508 l 932 0 l 1046 0 l 1046 428 q 995 625 1046 558 q 840 692 944 692 q 724 656 778 692 q 618 563 671 621 q 553 658 597 624 q 432 692 510 692 q 319 659 371 692 q 222 578 267 626 l 218 578 l 208 675 l 114 675 l 114 0 "},"n":{"ha":760,"x_min":114,"x_max":654,"o":"m 114 0 l 228 0 l 228 489 q 319 567 279 540 q 413 593 360 593 q 510 551 479 593 q 540 413 540 508 l 540 0 l 654 0 l 654 428 q 605 625 654 558 q 449 692 556 692 q 324 659 378 692 q 222 578 271 626 l 218 578 l 208 675 l 114 675 l 114 0 "},"o":{"ha":753,"x_min":64,"x_max":689,"o":"m 376 -17 q 495 7 439 -17 q 594 76 551 31 q 663 187 638 121 q 689 336 689 253 q 663 487 689 421 q 594 599 638 553 q 495 668 551 644 q 376 692 439 692 q 258 668 314 692 q 158 599 201 644 q 90 487 115 553 q 64 336 64 421 q 90 187 64 253 q 158 76 115 121 q 258 7 201 31 q 376 -17 314 -17 m 376 78 q 297 97 333 78 q 235 149 261 115 q 196 231 210 183 q 182 336 182 278 q 196 442 182 394 q 235 525 210 490 q 297 578 261 560 q 376 597 333 597 q 456 578 419 597 q 517 525 492 560 q 557 442 543 490 q 571 336 571 394 q 557 231 571 278 q 517 149 543 183 q 456 97 492 115 q 376 78 419 78 "},"p":{"ha":771,"x_min":114,"x_max":704,"o":"m 114 -285 l 228 -285 l 228 -57 l 225 61 q 319 4 272 25 q 413 -17 365 -17 q 524 8 471 -17 q 617 79 576 32 q 681 194 657 126 q 704 347 704 261 q 687 490 704 426 q 636 598 669 553 q 553 667 603 643 q 438 692 503 692 q 323 664 378 692 q 222 597 268 636 l 218 597 l 208 675 l 114 675 l 114 -285 m 393 79 q 317 95 360 79 q 228 150 274 111 l 228 504 q 322 572 278 549 q 408 596 365 596 q 490 578 456 596 q 545 527 524 560 q 576 449 567 494 q 586 347 586 403 q 572 235 586 285 q 531 151 557 185 q 470 98 506 117 q 393 79 435 79 "},"q":{"ha":771,"x_min":65,"x_max":657,"o":"m 542 -285 l 657 -285 l 657 675 l 565 675 l 554 611 l 551 611 q 461 672 506 651 q 358 692 417 692 q 247 667 300 692 q 154 596 194 642 q 90 484 114 550 q 65 336 65 418 q 141 75 65 167 q 344 -17 217 -17 q 455 10 403 -17 q 547 78 507 38 l 542 -44 l 542 -285 m 369 79 q 232 147 281 79 q 183 338 183 215 q 199 443 183 396 q 240 524 214 490 q 302 577 267 558 q 378 596 338 596 q 459 580 419 596 q 542 525 499 564 l 542 172 q 458 102 500 125 q 369 79 417 79 "},"r":{"ha":482,"x_min":114,"x_max":486,"o":"m 114 0 l 228 0 l 228 433 q 309 554 263 519 q 399 589 356 589 q 433 586 419 589 q 464 578 447 583 l 486 678 q 414 692 454 692 q 306 654 356 692 q 222 553 257 617 l 218 553 l 208 675 l 114 675 l 114 0 "},"s":{"ha":582,"x_min":39,"x_max":538,"o":"m 290 -17 q 397 -1 350 -17 q 474 43 443 15 q 522 107 506 71 q 538 185 538 143 q 519 265 538 232 q 471 322 500 299 q 405 360 442 344 q 332 389 368 375 q 276 410 303 400 q 228 434 249 421 q 194 465 207 447 q 182 506 182 482 q 212 574 182 544 q 306 603 242 603 q 388 586 350 603 q 460 543 425 569 l 514 615 q 422 669 475 647 q 304 692 368 692 q 207 677 250 692 q 134 637 164 663 q 88 576 104 611 q 72 500 72 540 q 90 426 72 457 q 137 373 108 396 q 201 334 165 350 q 274 306 238 318 q 329 283 301 294 q 378 258 357 272 q 414 224 400 243 q 428 178 428 204 q 394 103 428 133 q 294 72 361 72 q 187 94 233 72 q 96 153 140 117 l 39 76 q 153 10 88 36 q 290 -17 218 -17 "},"t":{"ha":469,"x_min":33,"x_max":451,"o":"m 326 -17 q 391 -9 358 -17 q 451 8 424 -1 l 429 94 q 392 82 413 88 q 353 76 371 76 q 272 110 294 76 q 249 207 249 144 l 249 582 l 431 582 l 431 675 l 249 675 l 249 864 l 153 864 l 139 675 l 33 668 l 33 582 l 133 582 l 133 208 q 143 117 133 158 q 176 46 153 75 q 235 0 199 17 q 326 -17 272 -17 "},"u":{"ha":756,"x_min":104,"x_max":642,"o":"m 311 -17 q 434 17 382 -17 q 533 106 486 50 l 538 106 l 547 0 l 642 0 l 642 675 l 528 675 l 528 196 q 439 109 479 136 q 346 82 399 82 q 249 124 279 82 q 219 263 219 167 l 219 675 l 104 675 l 104 247 q 153 50 104 117 q 311 -17 203 -17 "},"v":{"ha":649,"x_min":17,"x_max":632,"o":"m 260 0 l 393 0 l 632 675 l 519 675 l 392 292 q 361 192 376 242 q 331 93 346 142 l 325 93 q 294 192 310 142 q 263 292 278 242 l 135 675 l 17 675 l 260 0 "},"w":{"ha":997,"x_min":33,"x_max":964,"o":"m 221 0 l 354 0 l 449 361 q 474 458 463 410 q 496 557 485 506 l 501 557 q 524 458 514 506 q 547 363 535 411 l 644 0 l 783 0 l 964 675 l 856 675 l 757 285 q 736 190 746 236 q 715 97 726 144 l 710 97 q 687 190 699 144 q 663 285 675 236 l 557 675 l 446 675 l 342 285 q 318 191 329 238 q 296 97 307 144 l 290 97 q 271 190 281 144 q 250 285 261 236 l 150 675 l 33 675 l 221 0 "},"x":{"ha":619,"x_min":19,"x_max":600,"o":"m 19 0 l 139 0 l 231 157 q 264 219 247 189 q 299 278 281 249 l 304 278 q 342 218 324 249 q 378 157 360 188 l 476 0 l 600 0 l 381 340 l 585 675 l 465 675 l 383 526 q 353 470 368 499 q 322 414 338 442 l 317 414 q 282 470 299 442 q 250 526 265 499 l 160 675 l 36 675 l 240 353 l 19 0 "},"y":{"ha":649,"x_min":17,"x_max":632,"o":"m 125 -290 q 215 -272 176 -290 q 285 -223 254 -254 q 338 -149 315 -192 q 378 -56 360 -106 l 632 675 l 521 675 l 400 301 q 372 207 386 257 q 343 111 358 157 l 338 111 q 305 208 322 158 q 272 301 288 257 l 135 675 l 17 675 l 288 -1 l 272 -51 q 215 -155 251 -114 q 119 -196 178 -196 q 93 -192 107 -196 q 68 -186 79 -189 l 46 -276 q 82 -287 63 -283 q 125 -290 101 -290 "},"z":{"ha":590,"x_min":43,"x_max":554,"o":"m 43 0 l 554 0 l 554 93 l 188 93 l 543 614 l 543 675 l 82 675 l 82 582 l 399 582 l 43 61 l 43 0 "},"À":{"ha":756,"x_min":4,"x_max":751,"o":"m 282 510 q 329 662 307 586 q 372 817 351 738 l 378 817 q 422 662 400 738 q 469 510 444 586 l 513 371 l 239 371 l 282 510 m 4 0 l 122 0 l 210 278 l 542 278 l 628 0 l 751 0 l 443 911 l 313 911 l 4 0 m 400 968 l 451 1026 l 254 1204 l 189 1128 l 400 968 "},"Á":{"ha":756,"x_min":4,"x_max":751,"o":"m 282 510 q 329 662 307 586 q 372 817 351 738 l 378 817 q 422 662 400 738 q 469 510 444 586 l 513 371 l 239 371 l 282 510 m 4 0 l 122 0 l 210 278 l 542 278 l 628 0 l 751 0 l 443 911 l 313 911 l 4 0 m 353 968 l 564 1128 l 499 1204 l 301 1026 l 353 968 "},"Â":{"ha":756,"x_min":4,"x_max":751,"o":"m 282 510 q 329 662 307 586 q 372 817 351 738 l 378 817 q 422 662 400 738 q 469 510 444 586 l 513 371 l 239 371 l 282 510 m 4 0 l 122 0 l 210 278 l 542 278 l 628 0 l 751 0 l 443 911 l 313 911 l 4 0 m 171 1007 l 221 971 l 374 1100 l 379 1100 l 532 971 l 582 1007 l 436 1164 l 317 1164 l 171 1007 "},"Ã":{"ha":756,"x_min":4,"x_max":751,"o":"m 282 510 q 329 662 307 586 q 372 817 351 738 l 378 817 q 422 662 400 738 q 469 510 444 586 l 513 371 l 239 371 l 282 510 m 4 0 l 122 0 l 210 278 l 542 278 l 628 0 l 751 0 l 443 911 l 313 911 l 4 0 m 481 985 q 581 1030 543 985 q 622 1156 618 1075 l 544 1161 q 478 1069 533 1069 q 433 1085 453 1069 q 390 1119 413 1100 q 339 1153 367 1138 q 272 1168 311 1168 q 172 1122 210 1168 q 131 997 135 1076 l 208 992 q 231 1060 213 1036 q 275 1083 249 1083 q 320 1068 300 1083 q 363 1034 340 1053 q 414 1000 386 1015 q 481 985 442 985 "},"Ä":{"ha":756,"x_min":4,"x_max":751,"o":"m 282 510 q 329 662 307 586 q 372 817 351 738 l 378 817 q 422 662 400 738 q 469 510 444 586 l 513 371 l 239 371 l 282 510 m 4 0 l 122 0 l 210 278 l 542 278 l 628 0 l 751 0 l 443 911 l 313 911 l 4 0 m 233 993 q 283 1013 264 993 q 301 1061 301 1032 q 283 1110 301 1092 q 233 1129 264 1129 q 185 1110 204 1129 q 165 1061 165 1092 q 185 1013 165 1032 q 233 993 204 993 m 519 993 q 568 1013 549 993 q 588 1061 588 1032 q 568 1110 588 1092 q 519 1129 549 1129 q 470 1110 489 1129 q 451 1061 451 1092 q 470 1013 451 1032 q 519 993 489 993 "},"Ā":{"ha":756,"x_min":4,"x_max":751,"o":"m 282 510 q 329 662 307 586 q 372 817 351 738 l 378 817 q 422 662 400 738 q 469 510 444 586 l 513 371 l 239 371 l 282 510 m 4 0 l 122 0 l 210 278 l 542 278 l 628 0 l 751 0 l 443 911 l 313 911 l 4 0 m 190 1021 l 563 1021 l 563 1100 l 190 1100 l 190 1021 "},"Ă":{"ha":756,"x_min":4,"x_max":751,"o":"m 282 510 q 329 662 307 586 q 372 817 351 738 l 378 817 q 422 662 400 738 q 469 510 444 586 l 513 371 l 239 371 l 282 510 m 4 0 l 122 0 l 210 278 l 542 278 l 628 0 l 751 0 l 443 911 l 313 911 l 4 0 m 376 979 q 461 994 425 979 q 522 1033 497 1008 q 561 1090 547 1057 q 579 1158 575 1122 l 510 1169 q 469 1087 501 1121 q 376 1053 436 1053 q 284 1087 317 1053 q 243 1169 251 1121 l 174 1158 q 192 1090 178 1122 q 231 1033 206 1057 q 292 994 256 1008 q 376 979 328 979 "},"Å":{"ha":756,"x_min":4,"x_max":751,"o":"m 282 510 q 329 662 307 586 q 372 817 351 738 l 378 817 q 422 662 400 738 q 469 510 444 586 l 513 371 l 239 371 l 282 510 m 4 0 l 122 0 l 210 278 l 542 278 l 628 0 l 751 0 l 443 911 l 313 911 l 4 0 m 376 971 q 473 1005 435 971 q 511 1096 511 1039 q 473 1188 511 1154 q 376 1222 435 1222 q 280 1188 318 1222 q 242 1096 242 1154 q 280 1005 242 1039 q 376 971 318 971 m 376 1021 q 325 1040 346 1021 q 304 1096 304 1060 q 325 1151 304 1132 q 376 1171 346 1171 q 426 1151 404 1171 q 447 1096 447 1132 q 426 1040 447 1060 q 376 1021 404 1021 "},"Ǎ":{"ha":756,"x_min":4,"x_max":751,"o":"m 282 510 q 329 662 307 586 q 372 817 351 738 l 378 817 q 422 662 400 738 q 469 510 444 586 l 513 371 l 239 371 l 282 510 m 4 0 l 122 0 l 210 278 l 542 278 l 628 0 l 751 0 l 443 911 l 313 911 l 4 0 m 317 981 l 436 981 l 582 1138 l 532 1174 l 379 1046 l 374 1046 l 221 1174 l 171 1138 l 317 981 "},"Ạ":{"ha":756,"x_min":4,"x_max":751,"o":"m 282 510 q 329 662 307 586 q 372 817 351 738 l 378 817 q 422 662 400 738 q 469 510 444 586 l 513 371 l 239 371 l 282 510 m 4 0 l 122 0 l 210 278 l 542 278 l 628 0 l 751 0 l 443 911 l 313 911 l 4 0 m 376 -285 q 430 -264 408 -285 q 451 -210 451 -243 q 430 -156 451 -178 q 376 -135 408 -135 q 323 -156 344 -135 q 301 -210 301 -178 q 323 -264 301 -243 q 376 -285 344 -285 "},"Ả":{"ha":756,"x_min":4,"x_max":751,"o":"m 282 510 q 329 662 307 586 q 372 817 351 738 l 378 817 q 422 662 400 738 q 469 510 444 586 l 513 371 l 239 371 l 282 510 m 4 0 l 122 0 l 210 278 l 542 278 l 628 0 l 751 0 l 443 911 l 313 911 l 4 0 m 332 969 q 390 984 363 975 q 440 1009 418 993 q 474 1047 461 1025 q 486 1099 486 1068 q 436 1180 486 1151 q 294 1211 386 1208 l 282 1144 q 397 1086 397 1140 q 375 1046 397 1060 q 319 1022 353 1032 l 332 969 "},"Ấ":{"ha":756,"x_min":4,"x_max":751,"o":"m 282 510 q 329 662 307 586 q 372 817 351 738 l 378 817 q 422 662 400 738 q 469 510 444 586 l 513 371 l 239 371 l 282 510 m 4 0 l 122 0 l 210 278 l 542 278 l 628 0 l 751 0 l 443 911 l 313 911 l 4 0 m 244 971 l 374 1067 l 379 1067 l 508 971 l 556 1007 l 426 1132 l 326 1132 l 197 1007 l 244 971 m 544 1060 l 686 1179 l 638 1233 l 503 1104 l 544 1060 "},"Ầ":{"ha":756,"x_min":4,"x_max":751,"o":"m 282 510 q 329 662 307 586 q 372 817 351 738 l 378 817 q 422 662 400 738 q 469 510 444 586 l 513 371 l 239 371 l 282 510 m 4 0 l 122 0 l 210 278 l 542 278 l 628 0 l 751 0 l 443 911 l 313 911 l 4 0 m 244 971 l 374 1067 l 379 1067 l 508 971 l 556 1007 l 426 1132 l 326 1132 l 197 1007 l 244 971 m 250 1101 l 132 1233 l 83 1182 l 208 1060 l 250 1101 "},"Ẩ":{"ha":756,"x_min":4,"x_max":751,"o":"m 282 510 q 329 662 307 586 q 372 817 351 738 l 378 817 q 422 662 400 738 q 469 510 444 586 l 513 371 l 239 371 l 282 510 m 4 0 l 122 0 l 210 278 l 542 278 l 628 0 l 751 0 l 443 911 l 313 911 l 4 0 m 244 971 l 374 1067 l 379 1067 l 508 971 l 556 1007 l 426 1132 l 326 1132 l 197 1007 l 244 971 m 536 1047 q 625 1080 586 1056 q 664 1157 664 1104 q 622 1231 664 1206 q 497 1258 579 1256 l 485 1200 q 560 1185 538 1197 q 583 1146 583 1174 q 565 1113 583 1124 q 521 1096 547 1103 l 536 1047 "},"Ẫ":{"ha":756,"x_min":4,"x_max":751,"o":"m 282 510 q 329 662 307 586 q 372 817 351 738 l 378 817 q 422 662 400 738 q 469 510 444 586 l 513 371 l 239 371 l 282 510 m 4 0 l 122 0 l 210 278 l 542 278 l 628 0 l 751 0 l 443 911 l 313 911 l 4 0 m 244 971 l 374 1063 l 379 1063 l 508 971 l 556 1007 l 426 1128 l 326 1128 l 197 1007 l 244 971 m 175 1178 l 238 1171 q 253 1218 242 1201 q 290 1235 265 1235 q 329 1224 311 1235 q 367 1200 347 1213 q 411 1176 388 1188 q 468 1165 435 1165 q 550 1202 525 1165 q 578 1293 575 1239 l 515 1300 q 499 1253 511 1269 q 463 1236 488 1236 q 424 1247 442 1236 q 385 1270 406 1257 q 342 1294 365 1283 q 285 1304 318 1304 q 203 1267 228 1304 q 175 1178 178 1231 "},"Ậ":{"ha":756,"x_min":4,"x_max":751,"o":"m 282 510 q 329 662 307 586 q 372 817 351 738 l 378 817 q 422 662 400 738 q 469 510 444 586 l 513 371 l 239 371 l 282 510 m 4 0 l 122 0 l 210 278 l 542 278 l 628 0 l 751 0 l 443 911 l 313 911 l 4 0 m 171 1007 l 221 971 l 374 1100 l 379 1100 l 532 971 l 582 1007 l 436 1164 l 317 1164 l 171 1007 m 376 -285 q 430 -264 408 -285 q 451 -210 451 -243 q 430 -156 451 -178 q 376 -135 408 -135 q 323 -156 344 -135 q 301 -210 301 -178 q 323 -264 301 -243 q 376 -285 344 -285 "},"Ắ":{"ha":756,"x_min":4,"x_max":751,"o":"m 282 510 q 329 662 307 586 q 372 817 351 738 l 378 817 q 422 662 400 738 q 469 510 444 586 l 513 371 l 239 371 l 282 510 m 4 0 l 122 0 l 210 278 l 542 278 l 628 0 l 751 0 l 443 911 l 313 911 l 4 0 m 324 1156 l 381 1115 l 529 1267 l 456 1317 l 324 1156 m 376 979 q 461 994 425 979 q 522 1033 497 1008 q 561 1090 547 1057 q 579 1158 575 1122 l 514 1169 q 472 1083 506 1118 q 376 1047 439 1047 q 281 1083 314 1047 q 239 1169 247 1118 l 174 1158 q 192 1090 178 1122 q 231 1033 206 1057 q 292 994 256 1008 q 376 979 328 979 "},"Ằ":{"ha":756,"x_min":4,"x_max":751,"o":"m 282 510 q 329 662 307 586 q 372 817 351 738 l 378 817 q 422 662 400 738 q 469 510 444 586 l 513 371 l 239 371 l 282 510 m 4 0 l 122 0 l 210 278 l 542 278 l 628 0 l 751 0 l 443 911 l 313 911 l 4 0 m 429 1156 l 297 1317 l 224 1267 l 372 1115 l 429 1156 m 376 979 q 461 994 425 979 q 522 1033 497 1008 q 561 1090 547 1057 q 579 1158 575 1122 l 514 1169 q 472 1083 506 1118 q 376 1047 439 1047 q 281 1083 314 1047 q 239 1169 247 1118 l 174 1158 q 192 1090 178 1122 q 231 1033 206 1057 q 292 994 256 1008 q 376 979 328 979 "},"Ẳ":{"ha":756,"x_min":4,"x_max":751,"o":"m 282 510 q 329 662 307 586 q 372 817 351 738 l 378 817 q 422 662 400 738 q 469 510 444 586 l 513 371 l 239 371 l 282 510 m 4 0 l 122 0 l 210 278 l 542 278 l 628 0 l 751 0 l 443 911 l 313 911 l 4 0 m 344 1111 q 393 1123 369 1115 q 434 1144 417 1131 q 463 1176 451 1157 q 474 1221 474 1194 q 431 1294 474 1269 q 306 1322 388 1319 l 294 1264 q 369 1249 346 1261 q 392 1210 392 1238 q 374 1177 392 1188 q 331 1160 356 1167 l 344 1111 m 376 979 q 461 994 425 979 q 522 1033 497 1008 q 561 1090 547 1057 q 579 1158 575 1122 l 514 1169 q 472 1083 506 1118 q 376 1047 439 1047 q 281 1083 314 1047 q 239 1169 247 1118 l 174 1158 q 192 1090 178 1122 q 231 1033 206 1057 q 292 994 256 1008 q 376 979 328 979 "},"Ẵ":{"ha":756,"x_min":4,"x_max":751,"o":"m 282 510 q 329 662 307 586 q 372 817 351 738 l 378 817 q 422 662 400 738 q 469 510 444 586 l 513 371 l 239 371 l 282 510 m 4 0 l 122 0 l 210 278 l 542 278 l 628 0 l 751 0 l 443 911 l 313 911 l 4 0 m 376 983 q 460 995 425 983 q 520 1028 496 1007 q 558 1075 544 1049 q 575 1131 571 1101 l 511 1142 q 472 1075 504 1104 q 376 1046 440 1046 q 281 1075 313 1046 q 242 1142 249 1104 l 178 1131 q 195 1075 182 1101 q 233 1028 208 1049 q 292 995 257 1007 q 376 983 328 983 m 175 1182 l 238 1175 q 253 1224 242 1207 q 290 1240 265 1240 q 329 1229 311 1240 q 367 1206 347 1218 q 411 1182 388 1193 q 468 1171 435 1171 q 550 1208 525 1171 q 578 1297 575 1244 l 515 1304 q 499 1257 511 1274 q 463 1240 488 1240 q 424 1251 442 1240 q 385 1275 406 1263 q 342 1299 365 1288 q 285 1310 318 1310 q 203 1273 228 1310 q 175 1182 178 1236 "},"Ặ":{"ha":756,"x_min":4,"x_max":751,"o":"m 282 510 q 329 662 307 586 q 372 817 351 738 l 378 817 q 422 662 400 738 q 469 510 444 586 l 513 371 l 239 371 l 282 510 m 4 0 l 122 0 l 210 278 l 542 278 l 628 0 l 751 0 l 443 911 l 313 911 l 4 0 m 376 979 q 461 994 425 979 q 522 1033 497 1008 q 561 1090 547 1057 q 579 1158 575 1122 l 510 1169 q 469 1087 501 1121 q 376 1053 436 1053 q 284 1087 317 1053 q 243 1169 251 1121 l 174 1158 q 192 1090 178 1122 q 231 1033 206 1057 q 292 994 256 1008 q 376 979 328 979 m 376 -285 q 430 -264 408 -285 q 451 -210 451 -243 q 430 -156 451 -178 q 376 -135 408 -135 q 323 -156 344 -135 q 301 -210 301 -178 q 323 -264 301 -243 q 376 -285 344 -285 "},"Ą":{"ha":756,"x_min":4,"x_max":794,"o":"m 683 -294 q 742 -283 711 -294 q 794 -256 774 -271 l 763 -193 q 704 -212 736 -212 q 660 -197 679 -212 q 640 -149 640 -181 q 672 -62 640 -106 q 751 0 703 -19 l 443 911 l 313 911 l 4 0 l 122 0 l 210 278 l 542 278 l 628 0 l 654 0 q 618 -31 636 -12 q 585 -71 600 -49 q 560 -119 569 -93 q 550 -174 550 -146 q 589 -264 550 -233 q 683 -294 628 -294 m 282 510 q 329 662 307 586 q 372 817 351 738 l 378 817 q 422 662 400 738 q 469 510 444 586 l 513 371 l 239 371 l 282 510 "},"Æ":{"ha":1142,"x_min":11,"x_max":1074,"o":"m 403 522 q 551 819 478 671 l 557 819 l 557 358 l 318 358 l 403 522 m 11 0 l 133 0 l 271 265 l 557 265 l 557 0 l 1074 0 l 1074 99 l 674 99 l 674 429 l 996 429 l 996 528 l 674 528 l 674 814 l 1060 814 l 1060 911 l 489 911 l 11 0 "},"Ǽ":{"ha":1142,"x_min":11,"x_max":1074,"o":"m 403 522 q 551 819 478 671 l 557 819 l 557 358 l 318 358 l 403 522 m 11 0 l 133 0 l 271 265 l 557 265 l 557 0 l 1074 0 l 1074 99 l 674 99 l 674 429 l 996 429 l 996 528 l 674 528 l 674 814 l 1060 814 l 1060 911 l 489 911 l 11 0 m 760 979 l 971 1139 l 906 1215 l 708 1038 l 760 979 "},"Ǣ":{"ha":1142,"x_min":11,"x_max":1074,"o":"m 403 522 q 551 819 478 671 l 557 819 l 557 358 l 318 358 l 403 522 m 11 0 l 133 0 l 271 265 l 557 265 l 557 0 l 1074 0 l 1074 99 l 674 99 l 674 429 l 996 429 l 996 528 l 674 528 l 674 814 l 1060 814 l 1060 911 l 489 911 l 11 0 m 597 1032 l 969 1032 l 969 1111 l 597 1111 l 597 1032 "},"Ƀ":{"ha":838,"x_min":42,"x_max":785,"o":"m 149 0 l 440 0 q 580 17 517 0 q 689 67 643 33 q 760 152 735 101 q 785 272 785 203 q 729 424 785 368 q 574 494 674 479 l 574 500 q 693 573 654 521 q 732 692 732 625 q 709 792 732 750 q 645 860 686 833 q 547 899 604 886 q 419 911 489 911 l 149 911 l 149 311 l 42 306 l 42 246 l 149 246 l 149 0 m 264 528 l 264 825 l 404 825 q 566 792 511 825 q 621 683 621 758 q 569 567 621 607 q 400 528 517 528 l 264 528 m 264 88 l 264 246 l 475 246 l 475 311 l 264 311 l 264 451 l 424 451 q 608 410 543 451 q 672 278 672 368 q 607 134 672 181 q 424 88 542 88 l 264 88 "},"Ḇ":{"ha":817,"x_min":125,"x_max":761,"o":"m 125 0 l 415 0 q 556 17 492 0 q 665 67 619 33 q 736 150 711 100 q 761 267 761 200 q 710 415 761 361 q 575 485 658 469 l 575 490 q 674 566 640 511 q 708 689 708 621 q 685 791 708 749 q 622 860 663 833 q 523 899 581 886 q 396 911 465 911 l 125 911 l 125 0 m 240 524 l 240 819 l 381 819 q 541 786 488 819 q 594 674 594 753 q 543 564 594 604 q 375 524 492 524 l 240 524 m 240 92 l 240 435 l 399 435 q 583 395 519 435 q 647 271 647 356 q 582 135 647 179 q 399 92 517 92 l 240 92 m 232 -235 l 601 -235 l 601 -156 l 232 -156 l 232 -235 "},"Ç":{"ha":793,"x_min":72,"x_max":749,"o":"m 469 -17 q 626 18 558 -17 q 749 115 694 53 l 685 188 q 590 112 640 139 q 474 85 540 85 q 356 111 408 85 q 268 186 304 138 q 212 303 232 235 q 192 458 192 372 q 212 611 192 543 q 269 727 232 679 q 360 801 307 775 q 478 826 413 826 q 582 803 536 826 q 664 740 628 779 l 726 815 q 623 894 686 860 q 476 928 560 928 q 315 895 389 928 q 188 801 242 863 q 103 653 133 740 q 72 456 72 565 q 102 256 72 344 q 185 108 132 168 q 311 15 239 47 q 469 -17 383 -17 m 356 -314 q 526 -278 467 -308 q 585 -187 585 -249 q 558 -122 585 -144 q 483 -89 532 -100 l 524 4 l 450 4 l 389 -122 q 472 -146 449 -131 q 496 -189 496 -161 q 464 -235 496 -219 q 344 -258 432 -251 l 356 -314 "},"Ć":{"ha":793,"x_min":72,"x_max":749,"o":"m 469 -17 q 626 18 558 -17 q 749 115 694 53 l 685 188 q 590 112 640 139 q 474 85 540 85 q 356 111 408 85 q 268 186 304 138 q 212 303 232 235 q 192 458 192 372 q 212 611 192 543 q 269 727 232 679 q 360 801 307 775 q 478 826 413 826 q 582 803 536 826 q 664 740 628 779 l 726 815 q 623 894 686 860 q 476 928 560 928 q 315 895 389 928 q 188 801 242 863 q 103 653 133 740 q 72 456 72 565 q 102 256 72 344 q 185 108 132 168 q 311 15 239 47 q 469 -17 383 -17 m 435 968 l 646 1128 l 581 1204 l 383 1026 l 435 968 "},"Ĉ":{"ha":793,"x_min":72,"x_max":749,"o":"m 469 -17 q 626 18 558 -17 q 749 115 694 53 l 685 188 q 590 112 640 139 q 474 85 540 85 q 356 111 408 85 q 268 186 304 138 q 212 303 232 235 q 192 458 192 372 q 212 611 192 543 q 269 727 232 679 q 360 801 307 775 q 478 826 413 826 q 582 803 536 826 q 664 740 628 779 l 726 815 q 623 894 686 860 q 476 928 560 928 q 315 895 389 928 q 188 801 242 863 q 103 653 133 740 q 72 456 72 565 q 102 256 72 344 q 185 108 132 168 q 311 15 239 47 q 469 -17 383 -17 m 253 1007 l 303 971 l 456 1100 l 461 1100 l 614 971 l 664 1007 l 518 1164 l 399 1164 l 253 1007 "},"Č":{"ha":793,"x_min":72,"x_max":749,"o":"m 469 -17 q 626 18 558 -17 q 749 115 694 53 l 685 188 q 590 112 640 139 q 474 85 540 85 q 356 111 408 85 q 268 186 304 138 q 212 303 232 235 q 192 458 192 372 q 212 611 192 543 q 269 727 232 679 q 360 801 307 775 q 478 826 413 826 q 582 803 536 826 q 664 740 628 779 l 726 815 q 623 894 686 860 q 476 928 560 928 q 315 895 389 928 q 188 801 242 863 q 103 653 133 740 q 72 456 72 565 q 102 256 72 344 q 185 108 132 168 q 311 15 239 47 q 469 -17 383 -17 m 399 981 l 518 981 l 664 1138 l 614 1174 l 461 1046 l 456 1046 l 303 1174 l 253 1138 l 399 981 "},"Ċ":{"ha":793,"x_min":72,"x_max":749,"o":"m 469 -17 q 626 18 558 -17 q 749 115 694 53 l 685 188 q 590 112 640 139 q 474 85 540 85 q 356 111 408 85 q 268 186 304 138 q 212 303 232 235 q 192 458 192 372 q 212 611 192 543 q 269 727 232 679 q 360 801 307 775 q 478 826 413 826 q 582 803 536 826 q 664 740 628 779 l 726 815 q 623 894 686 860 q 476 928 560 928 q 315 895 389 928 q 188 801 242 863 q 103 653 133 740 q 72 456 72 565 q 102 256 72 344 q 185 108 132 168 q 311 15 239 47 q 469 -17 383 -17 m 458 992 q 515 1013 492 992 q 538 1067 538 1033 q 515 1119 538 1099 q 458 1140 492 1140 q 402 1119 425 1140 q 379 1067 379 1099 q 402 1013 379 1033 q 458 992 425 992 "},"Ď":{"ha":854,"x_min":125,"x_max":783,"o":"m 125 0 l 358 0 q 540 31 461 0 q 674 122 619 63 q 756 266 728 181 q 783 460 783 351 q 674 794 783 678 q 353 911 564 911 l 125 911 l 125 0 m 240 94 l 240 817 l 344 817 q 584 725 504 817 q 664 460 664 633 q 584 190 664 286 q 344 94 504 94 l 240 94 m 367 981 l 486 981 l 632 1138 l 582 1174 l 429 1046 l 424 1046 l 271 1174 l 221 1138 l 367 981 "},"Ḍ":{"ha":854,"x_min":125,"x_max":783,"o":"m 125 0 l 358 0 q 540 31 461 0 q 674 122 619 63 q 756 266 728 181 q 783 460 783 351 q 674 794 783 678 q 353 911 564 911 l 125 911 l 125 0 m 240 94 l 240 817 l 344 817 q 584 725 504 817 q 664 460 664 633 q 584 190 664 286 q 344 94 504 94 l 240 94 m 422 -285 q 476 -264 454 -285 q 497 -210 497 -243 q 476 -156 497 -178 q 422 -135 454 -135 q 369 -156 390 -135 q 347 -210 347 -178 q 369 -264 347 -243 q 422 -285 390 -285 "},"Ḏ":{"ha":854,"x_min":125,"x_max":783,"o":"m 125 0 l 358 0 q 540 31 461 0 q 674 122 619 63 q 756 266 728 181 q 783 460 783 351 q 674 794 783 678 q 353 911 564 911 l 125 911 l 125 0 m 240 94 l 240 817 l 344 817 q 584 725 504 817 q 664 460 664 633 q 584 190 664 286 q 344 94 504 94 l 240 94 m 238 -235 l 607 -235 l 607 -156 l 238 -156 l 238 -235 "},"Đ":{"ha":886,"x_min":46,"x_max":814,"o":"m 46 446 l 156 446 l 156 0 l 389 0 q 571 31 492 0 q 704 122 650 63 q 786 266 758 181 q 814 460 814 351 q 704 794 814 678 q 383 911 594 911 l 156 911 l 156 511 l 46 506 l 46 446 m 271 94 l 271 446 l 478 446 l 478 511 l 271 511 l 271 817 l 375 817 q 615 725 535 817 q 694 460 694 633 q 615 190 694 286 q 375 94 535 94 l 271 94 "},"È":{"ha":732,"x_min":125,"x_max":664,"o":"m 125 0 l 664 0 l 664 99 l 240 99 l 240 429 l 586 429 l 586 528 l 240 528 l 240 814 l 650 814 l 650 911 l 125 911 l 125 0 m 418 968 l 469 1026 l 272 1204 l 207 1128 l 418 968 "},"É":{"ha":732,"x_min":125,"x_max":664,"o":"m 125 0 l 664 0 l 664 99 l 240 99 l 240 429 l 586 429 l 586 528 l 240 528 l 240 814 l 650 814 l 650 911 l 125 911 l 125 0 m 371 968 l 582 1128 l 517 1204 l 319 1026 l 371 968 "},"Ê":{"ha":732,"x_min":125,"x_max":664,"o":"m 125 0 l 664 0 l 664 99 l 240 99 l 240 429 l 586 429 l 586 528 l 240 528 l 240 814 l 650 814 l 650 911 l 125 911 l 125 0 m 189 1007 l 239 971 l 392 1100 l 397 1100 l 550 971 l 600 1007 l 454 1164 l 335 1164 l 189 1007 "},"Ě":{"ha":732,"x_min":125,"x_max":664,"o":"m 125 0 l 664 0 l 664 99 l 240 99 l 240 429 l 586 429 l 586 528 l 240 528 l 240 814 l 650 814 l 650 911 l 125 911 l 125 0 m 335 981 l 454 981 l 600 1138 l 550 1174 l 397 1046 l 392 1046 l 239 1174 l 189 1138 l 335 981 "},"Ë":{"ha":732,"x_min":125,"x_max":664,"o":"m 125 0 l 664 0 l 664 99 l 240 99 l 240 429 l 586 429 l 586 528 l 240 528 l 240 814 l 650 814 l 650 911 l 125 911 l 125 0 m 251 993 q 301 1013 282 993 q 319 1061 319 1032 q 301 1110 319 1092 q 251 1129 282 1129 q 203 1110 222 1129 q 183 1061 183 1092 q 203 1013 183 1032 q 251 993 222 993 m 538 993 q 586 1013 567 993 q 606 1061 606 1032 q 586 1110 606 1092 q 538 1129 567 1129 q 488 1110 507 1129 q 469 1061 469 1092 q 488 1013 469 1032 q 538 993 507 993 "},"Ē":{"ha":732,"x_min":125,"x_max":664,"o":"m 125 0 l 664 0 l 664 99 l 240 99 l 240 429 l 586 429 l 586 528 l 240 528 l 240 814 l 650 814 l 650 911 l 125 911 l 125 0 m 208 1021 l 581 1021 l 581 1100 l 208 1100 l 208 1021 "},"Ĕ":{"ha":732,"x_min":125,"x_max":664,"o":"m 125 0 l 664 0 l 664 99 l 240 99 l 240 429 l 586 429 l 586 528 l 240 528 l 240 814 l 650 814 l 650 911 l 125 911 l 125 0 m 394 979 q 479 994 443 979 q 540 1033 515 1008 q 579 1090 565 1057 q 597 1158 593 1122 l 528 1169 q 487 1087 519 1121 q 394 1053 454 1053 q 302 1087 335 1053 q 261 1169 269 1121 l 192 1158 q 210 1090 196 1122 q 249 1033 224 1057 q 310 994 274 1008 q 394 979 346 979 "},"Ė":{"ha":732,"x_min":125,"x_max":664,"o":"m 125 0 l 664 0 l 664 99 l 240 99 l 240 429 l 586 429 l 586 528 l 240 528 l 240 814 l 650 814 l 650 911 l 125 911 l 125 0 m 394 992 q 451 1013 428 992 q 474 1067 474 1033 q 451 1119 474 1099 q 394 1140 428 1140 q 338 1119 361 1140 q 315 1067 315 1099 q 338 1013 315 1033 q 394 992 361 992 "},"Ẹ":{"ha":732,"x_min":125,"x_max":664,"o":"m 125 0 l 664 0 l 664 99 l 240 99 l 240 429 l 586 429 l 586 528 l 240 528 l 240 814 l 650 814 l 650 911 l 125 911 l 125 0 m 410 -285 q 463 -264 442 -285 q 485 -210 485 -243 q 463 -156 485 -178 q 410 -135 442 -135 q 356 -156 378 -135 q 335 -210 335 -178 q 356 -264 335 -243 q 410 -285 378 -285 "},"Ẻ":{"ha":732,"x_min":125,"x_max":664,"o":"m 125 0 l 664 0 l 664 99 l 240 99 l 240 429 l 586 429 l 586 528 l 240 528 l 240 814 l 650 814 l 650 911 l 125 911 l 125 0 m 350 969 q 408 984 381 975 q 458 1009 436 993 q 492 1047 479 1025 q 504 1099 504 1068 q 454 1180 504 1151 q 313 1211 404 1208 l 300 1144 q 415 1086 415 1140 q 393 1046 415 1060 q 338 1022 371 1032 l 350 969 "},"Ẽ":{"ha":732,"x_min":125,"x_max":664,"o":"m 125 0 l 664 0 l 664 99 l 240 99 l 240 429 l 586 429 l 586 528 l 240 528 l 240 814 l 650 814 l 650 911 l 125 911 l 125 0 m 499 985 q 599 1030 561 985 q 640 1156 636 1075 l 563 1161 q 496 1069 551 1069 q 451 1085 471 1069 q 408 1119 431 1100 q 357 1153 385 1138 q 290 1168 329 1168 q 190 1122 228 1168 q 149 997 153 1076 l 226 992 q 249 1060 231 1036 q 293 1083 267 1083 q 338 1068 318 1083 q 381 1034 358 1053 q 432 1000 404 1015 q 499 985 460 985 "},"Ế":{"ha":732,"x_min":125,"x_max":704,"o":"m 125 0 l 664 0 l 664 99 l 240 99 l 240 429 l 586 429 l 586 528 l 240 528 l 240 814 l 650 814 l 650 911 l 125 911 l 125 0 m 263 971 l 392 1067 l 397 1067 l 526 971 l 574 1007 l 444 1132 l 344 1132 l 215 1007 l 263 971 m 563 1060 l 704 1179 l 656 1233 l 521 1104 l 563 1060 "},"Ề":{"ha":732,"x_min":101,"x_max":664,"o":"m 125 0 l 664 0 l 664 99 l 240 99 l 240 429 l 586 429 l 586 528 l 240 528 l 240 814 l 650 814 l 650 911 l 125 911 l 125 0 m 263 971 l 392 1067 l 397 1067 l 526 971 l 574 1007 l 444 1132 l 344 1132 l 215 1007 l 263 971 m 268 1101 l 150 1233 l 101 1182 l 226 1060 l 268 1101 "},"Ể":{"ha":732,"x_min":125,"x_max":682,"o":"m 125 0 l 664 0 l 664 99 l 240 99 l 240 429 l 586 429 l 586 528 l 240 528 l 240 814 l 650 814 l 650 911 l 125 911 l 125 0 m 263 971 l 392 1067 l 397 1067 l 526 971 l 574 1007 l 444 1132 l 344 1132 l 215 1007 l 263 971 m 554 1047 q 643 1080 604 1056 q 682 1157 682 1104 q 640 1231 682 1206 q 515 1258 597 1256 l 503 1200 q 578 1185 556 1197 q 601 1146 601 1174 q 583 1113 601 1124 q 539 1096 565 1103 l 554 1047 "},"Ễ":{"ha":732,"x_min":125,"x_max":664,"o":"m 125 0 l 664 0 l 664 99 l 240 99 l 240 429 l 586 429 l 586 528 l 240 528 l 240 814 l 650 814 l 650 911 l 125 911 l 125 0 m 263 971 l 392 1063 l 397 1063 l 526 971 l 574 1007 l 444 1128 l 344 1128 l 215 1007 l 263 971 m 193 1178 l 256 1171 q 272 1218 260 1201 q 308 1235 283 1235 q 347 1224 329 1235 q 385 1200 365 1213 q 429 1176 406 1188 q 486 1165 453 1165 q 568 1202 543 1165 q 596 1293 593 1239 l 533 1300 q 517 1253 529 1269 q 481 1236 506 1236 q 442 1247 460 1236 q 403 1270 424 1257 q 360 1294 383 1283 q 303 1304 336 1304 q 221 1267 246 1304 q 193 1178 196 1231 "},"Ệ":{"ha":732,"x_min":125,"x_max":664,"o":"m 125 0 l 664 0 l 664 99 l 240 99 l 240 429 l 586 429 l 586 528 l 240 528 l 240 814 l 650 814 l 650 911 l 125 911 l 125 0 m 189 1007 l 239 971 l 392 1100 l 397 1100 l 550 971 l 600 1007 l 454 1164 l 335 1164 l 189 1007 m 410 -285 q 463 -264 442 -285 q 485 -210 485 -243 q 463 -156 485 -178 q 410 -135 442 -135 q 356 -156 378 -135 q 335 -210 335 -178 q 356 -264 335 -243 q 410 -285 378 -285 "},"Ę":{"ha":732,"x_min":125,"x_max":686,"o":"m 575 -294 q 635 -283 603 -294 q 686 -256 667 -271 l 654 -193 q 599 -212 628 -212 q 553 -197 574 -212 q 532 -149 532 -181 q 543 -95 532 -121 q 572 -49 554 -69 q 613 -16 590 -29 q 660 0 636 -3 l 664 0 l 664 99 l 240 99 l 240 429 l 586 429 l 586 528 l 240 528 l 240 814 l 650 814 l 650 911 l 125 911 l 125 0 l 546 0 q 474 -70 507 -25 q 442 -174 442 -115 q 481 -264 442 -233 q 575 -294 519 -294 "},"Ḗ":{"ha":732,"x_min":125,"x_max":664,"o":"m 125 0 l 664 0 l 664 99 l 240 99 l 240 429 l 586 429 l 586 528 l 240 528 l 240 814 l 650 814 l 650 911 l 125 911 l 125 0 m 367 1149 l 546 1278 l 492 1344 l 324 1201 l 367 1149 m 206 1021 l 578 1021 l 578 1100 l 206 1100 l 206 1021 "},"Ǵ":{"ha":857,"x_min":72,"x_max":764,"o":"m 483 -17 q 647 13 575 -17 q 764 89 719 43 l 764 472 l 465 472 l 465 376 l 658 376 l 658 139 q 587 99 631 114 q 494 85 543 85 q 365 111 421 85 q 270 186 308 138 q 212 303 232 235 q 192 458 192 372 q 213 611 192 543 q 274 727 235 679 q 368 801 313 775 q 493 826 424 826 q 608 801 563 826 q 689 740 654 776 l 753 815 q 708 856 733 836 q 649 892 682 876 q 577 918 617 908 q 490 928 538 928 q 323 895 400 928 q 190 801 246 863 q 103 653 135 740 q 72 456 72 565 q 103 256 72 344 q 188 108 133 168 q 317 15 242 47 q 483 -17 393 -17 m 467 968 l 678 1128 l 613 1204 l 415 1026 l 467 968 "},"Ĝ":{"ha":857,"x_min":72,"x_max":764,"o":"m 483 -17 q 647 13 575 -17 q 764 89 719 43 l 764 472 l 465 472 l 465 376 l 658 376 l 658 139 q 587 99 631 114 q 494 85 543 85 q 365 111 421 85 q 270 186 308 138 q 212 303 232 235 q 192 458 192 372 q 213 611 192 543 q 274 727 235 679 q 368 801 313 775 q 493 826 424 826 q 608 801 563 826 q 689 740 654 776 l 753 815 q 708 856 733 836 q 649 892 682 876 q 577 918 617 908 q 490 928 538 928 q 323 895 400 928 q 190 801 246 863 q 103 653 135 740 q 72 456 72 565 q 103 256 72 344 q 188 108 133 168 q 317 15 242 47 q 483 -17 393 -17 m 285 1007 l 335 971 l 488 1100 l 493 1100 l 646 971 l 696 1007 l 550 1164 l 431 1164 l 285 1007 "},"Ğ":{"ha":857,"x_min":72,"x_max":764,"o":"m 483 -17 q 647 13 575 -17 q 764 89 719 43 l 764 472 l 465 472 l 465 376 l 658 376 l 658 139 q 587 99 631 114 q 494 85 543 85 q 365 111 421 85 q 270 186 308 138 q 212 303 232 235 q 192 458 192 372 q 213 611 192 543 q 274 727 235 679 q 368 801 313 775 q 493 826 424 826 q 608 801 563 826 q 689 740 654 776 l 753 815 q 708 856 733 836 q 649 892 682 876 q 577 918 617 908 q 490 928 538 928 q 323 895 400 928 q 190 801 246 863 q 103 653 135 740 q 72 456 72 565 q 103 256 72 344 q 188 108 133 168 q 317 15 242 47 q 483 -17 393 -17 m 490 979 q 575 994 539 979 q 636 1033 611 1008 q 675 1090 661 1057 q 693 1158 689 1122 l 624 1169 q 583 1087 615 1121 q 490 1053 550 1053 q 398 1087 431 1053 q 357 1169 365 1121 l 288 1158 q 306 1090 292 1122 q 344 1033 319 1057 q 406 994 369 1008 q 490 979 442 979 "},"Ġ":{"ha":857,"x_min":72,"x_max":764,"o":"m 483 -17 q 647 13 575 -17 q 764 89 719 43 l 764 472 l 465 472 l 465 376 l 658 376 l 658 139 q 587 99 631 114 q 494 85 543 85 q 365 111 421 85 q 270 186 308 138 q 212 303 232 235 q 192 458 192 372 q 213 611 192 543 q 274 727 235 679 q 368 801 313 775 q 493 826 424 826 q 608 801 563 826 q 689 740 654 776 l 753 815 q 708 856 733 836 q 649 892 682 876 q 577 918 617 908 q 490 928 538 928 q 323 895 400 928 q 190 801 246 863 q 103 653 135 740 q 72 456 72 565 q 103 256 72 344 q 188 108 133 168 q 317 15 242 47 q 483 -17 393 -17 m 490 992 q 547 1013 524 992 q 569 1067 569 1033 q 547 1119 569 1099 q 490 1140 524 1140 q 434 1119 457 1140 q 411 1067 411 1099 q 434 1013 411 1033 q 490 992 457 992 "},"Ģ":{"ha":857,"x_min":72,"x_max":764,"o":"m 483 -17 q 647 13 575 -17 q 764 89 719 43 l 764 472 l 465 472 l 465 376 l 658 376 l 658 139 q 587 99 631 114 q 494 85 543 85 q 365 111 421 85 q 270 186 308 138 q 212 303 232 235 q 192 458 192 372 q 213 611 192 543 q 274 727 235 679 q 368 801 313 775 q 493 826 424 826 q 608 801 563 826 q 689 740 654 776 l 753 815 q 708 856 733 836 q 649 892 682 876 q 577 918 617 908 q 490 928 538 928 q 323 895 400 928 q 190 801 246 863 q 103 653 135 740 q 72 456 72 565 q 103 256 72 344 q 188 108 133 168 q 317 15 242 47 q 483 -17 393 -17 m 363 -314 q 533 -278 474 -308 q 592 -187 592 -249 q 556 -116 592 -140 q 429 -81 519 -92 l 404 -133 q 478 -151 453 -137 q 503 -192 503 -164 q 471 -235 503 -219 q 351 -258 439 -251 l 363 -314 "},"Ǧ":{"ha":857,"x_min":72,"x_max":764,"o":"m 483 -17 q 647 13 575 -17 q 764 89 719 43 l 764 472 l 465 472 l 465 376 l 658 376 l 658 139 q 587 99 631 114 q 494 85 543 85 q 365 111 421 85 q 270 186 308 138 q 212 303 232 235 q 192 458 192 372 q 213 611 192 543 q 274 727 235 679 q 368 801 313 775 q 493 826 424 826 q 608 801 563 826 q 689 740 654 776 l 753 815 q 708 856 733 836 q 649 892 682 876 q 577 918 617 908 q 490 928 538 928 q 323 895 400 928 q 190 801 246 863 q 103 653 135 740 q 72 456 72 565 q 103 256 72 344 q 188 108 133 168 q 317 15 242 47 q 483 -17 393 -17 m 431 981 l 550 981 l 696 1138 l 646 1174 l 493 1046 l 488 1046 l 335 1174 l 285 1138 l 431 981 "},"Ḡ":{"ha":857,"x_min":72,"x_max":764,"o":"m 483 -17 q 647 13 575 -17 q 764 89 719 43 l 764 472 l 465 472 l 465 376 l 658 376 l 658 139 q 587 99 631 114 q 494 85 543 85 q 365 111 421 85 q 270 186 308 138 q 212 303 232 235 q 192 458 192 372 q 213 611 192 543 q 274 727 235 679 q 368 801 313 775 q 493 826 424 826 q 608 801 563 826 q 689 740 654 776 l 753 815 q 708 856 733 836 q 649 892 682 876 q 577 918 617 908 q 490 928 538 928 q 323 895 400 928 q 190 801 246 863 q 103 653 135 740 q 72 456 72 565 q 103 256 72 344 q 188 108 133 168 q 317 15 242 47 q 483 -17 393 -17 m 304 1021 l 676 1021 l 676 1100 l 304 1100 l 304 1021 "},"Ɠ":{"ha":857,"x_min":72,"x_max":851,"o":"m 483 -17 q 647 13 575 -17 q 764 89 719 43 l 764 472 l 465 472 l 465 376 l 658 376 l 658 139 q 587 99 631 114 q 494 85 543 85 q 365 111 421 85 q 270 186 308 138 q 212 303 232 235 q 192 458 192 372 q 213 611 192 543 q 274 727 235 679 q 368 801 313 775 q 493 826 424 826 q 608 808 563 826 q 689 763 654 789 l 753 839 q 719 894 729 871 q 708 949 708 917 q 727 1002 708 981 q 782 1024 746 1024 q 808 1019 797 1024 q 829 1011 818 1015 l 851 1099 q 814 1111 835 1106 q 765 1117 793 1117 q 651 1074 694 1117 q 608 965 608 1032 q 617 910 608 936 q 558 923 589 918 q 490 928 526 928 q 323 895 400 928 q 190 801 246 863 q 103 653 135 740 q 72 456 72 565 q 103 256 72 344 q 188 108 133 168 q 317 15 242 47 q 483 -17 393 -17 "},"Ĥ":{"ha":906,"x_min":125,"x_max":781,"o":"m 125 0 l 240 0 l 240 429 l 664 429 l 664 0 l 781 0 l 781 911 l 664 911 l 664 529 l 240 529 l 240 911 l 125 911 l 125 0 m 247 1007 l 297 971 l 450 1100 l 456 1100 l 608 971 l 658 1007 l 513 1164 l 393 1164 l 247 1007 "},"Ḥ":{"ha":906,"x_min":125,"x_max":781,"o":"m 125 0 l 240 0 l 240 429 l 664 429 l 664 0 l 781 0 l 781 911 l 664 911 l 664 529 l 240 529 l 240 911 l 125 911 l 125 0 m 453 -285 q 506 -264 485 -285 q 528 -210 528 -243 q 506 -156 528 -178 q 453 -135 485 -135 q 399 -156 421 -135 q 378 -210 378 -178 q 399 -264 378 -243 q 453 -285 421 -285 "},"Ḫ":{"ha":906,"x_min":125,"x_max":781,"o":"m 125 0 l 240 0 l 240 429 l 664 429 l 664 0 l 781 0 l 781 911 l 664 911 l 664 529 l 240 529 l 240 911 l 125 911 l 125 0 m 453 -319 q 548 -301 508 -319 q 614 -253 588 -283 q 653 -186 640 -224 q 669 -110 667 -149 l 599 -99 q 584 -151 594 -125 q 556 -197 574 -176 q 512 -231 538 -218 q 453 -243 486 -243 q 394 -231 419 -243 q 350 -197 368 -218 q 322 -151 332 -176 q 307 -99 311 -125 l 236 -110 q 252 -186 239 -149 q 291 -253 265 -224 q 357 -301 317 -283 q 453 -319 397 -319 "},"Ħ":{"ha":954,"x_min":44,"x_max":908,"o":"m 44 683 l 153 683 l 153 0 l 268 0 l 268 429 l 692 429 l 692 0 l 808 0 l 808 683 l 908 683 l 908 749 l 808 749 l 808 911 l 692 911 l 692 749 l 268 749 l 268 911 l 153 911 l 153 749 l 44 742 l 44 683 m 268 529 l 268 683 l 692 683 l 692 529 l 268 529 "},"Ì":{"ha":365,"x_min":-6,"x_max":257,"o":"m 125 0 l 240 0 l 240 911 l 125 911 l 125 0 m 206 968 l 257 1026 l 60 1204 l -6 1128 l 206 968 "},"Í":{"ha":365,"x_min":107,"x_max":369,"o":"m 125 0 l 240 0 l 240 911 l 125 911 l 125 0 m 158 968 l 369 1128 l 304 1204 l 107 1026 l 158 968 "},"Î":{"ha":365,"x_min":-24,"x_max":388,"o":"m 125 0 l 240 0 l 240 911 l 125 911 l 125 0 m -24 1007 l 26 971 l 179 1100 l 185 1100 l 338 971 l 388 1007 l 242 1164 l 122 1164 l -24 1007 "},"Ĩ":{"ha":365,"x_min":-64,"x_max":428,"o":"m 125 0 l 240 0 l 240 911 l 125 911 l 125 0 m 286 985 q 386 1030 349 985 q 428 1156 424 1075 l 350 1161 q 283 1069 339 1069 q 238 1085 258 1069 q 195 1119 218 1100 q 144 1153 172 1138 q 78 1168 117 1168 q -22 1122 15 1168 q -64 997 -60 1076 l 14 992 q 36 1060 18 1036 q 81 1083 54 1083 q 126 1068 106 1083 q 169 1034 146 1053 q 219 1000 192 1015 q 286 985 247 985 "},"Ï":{"ha":365,"x_min":-29,"x_max":393,"o":"m 125 0 l 240 0 l 240 911 l 125 911 l 125 0 m 39 993 q 88 1013 69 993 q 107 1061 107 1032 q 88 1110 107 1092 q 39 1129 69 1129 q -10 1110 10 1129 q -29 1061 -29 1092 q -10 1013 -29 1032 q 39 993 10 993 m 325 993 q 374 1013 354 993 q 393 1061 393 1032 q 374 1110 393 1092 q 325 1129 354 1129 q 276 1110 294 1129 q 257 1061 257 1092 q 276 1013 257 1032 q 325 993 294 993 "},"Ī":{"ha":365,"x_min":-4,"x_max":368,"o":"m 125 0 l 240 0 l 240 911 l 125 911 l 125 0 m -4 1021 l 368 1021 l 368 1100 l -4 1100 l -4 1021 "},"İ":{"ha":365,"x_min":103,"x_max":261,"o":"m 125 0 l 240 0 l 240 911 l 125 911 l 125 0 m 182 992 q 238 1013 215 992 q 261 1067 261 1033 q 238 1119 261 1099 q 182 1140 215 1140 q 126 1119 149 1140 q 103 1067 103 1099 q 126 1013 103 1033 q 182 992 149 992 "},"Ǐ":{"ha":365,"x_min":-24,"x_max":388,"o":"m 125 0 l 240 0 l 240 911 l 125 911 l 125 0 m 122 981 l 242 981 l 388 1138 l 338 1174 l 185 1046 l 179 1046 l 26 1174 l -24 1138 l 122 981 "},"Ỉ":{"ha":365,"x_min":88,"x_max":292,"o":"m 125 0 l 240 0 l 240 911 l 125 911 l 125 0 m 138 969 q 196 984 168 975 q 245 1009 224 993 q 279 1047 267 1025 q 292 1099 292 1068 q 242 1180 292 1151 q 100 1211 192 1208 l 88 1144 q 203 1086 203 1140 q 181 1046 203 1060 q 125 1022 158 1032 l 138 969 "},"Ị":{"ha":365,"x_min":108,"x_max":258,"o":"m 125 0 l 240 0 l 240 911 l 125 911 l 125 0 m 183 -285 q 237 -264 215 -285 q 258 -210 258 -243 q 237 -156 258 -178 q 183 -135 215 -135 q 130 -156 151 -135 q 108 -210 108 -178 q 130 -264 108 -243 q 183 -285 151 -285 "},"Į":{"ha":365,"x_min":60,"x_max":304,"o":"m 193 -294 q 252 -283 221 -294 q 304 -256 283 -271 l 272 -193 q 215 -212 246 -212 q 171 -197 192 -212 q 150 -149 150 -181 q 174 -69 150 -106 q 240 0 197 -33 l 240 911 l 125 911 l 125 0 l 153 0 q 90 -72 119 -31 q 60 -174 60 -114 q 99 -264 60 -233 q 193 -294 138 -294 "},"Ĭ":{"ha":365,"x_min":-21,"x_max":385,"o":"m 125 0 l 240 0 l 240 911 l 125 911 l 125 0 m 182 979 q 267 994 231 979 q 328 1033 303 1008 q 367 1090 353 1057 q 385 1158 381 1122 l 315 1169 q 274 1087 307 1121 q 182 1053 242 1053 q 90 1087 122 1053 q 49 1169 57 1121 l -21 1158 q -3 1090 -17 1122 q 36 1033 11 1057 q 97 994 61 1008 q 182 979 133 979 "},"Ĵ":{"ha":667,"x_min":43,"x_max":689,"o":"m 294 -17 q 409 6 361 -17 q 487 67 457 28 q 531 158 517 106 q 546 268 546 210 l 546 911 l 429 911 l 429 279 q 393 130 429 175 q 283 85 357 85 q 196 109 235 85 q 126 188 157 133 l 43 129 q 294 -17 124 -17 m 278 1007 l 328 971 l 481 1100 l 486 1100 l 639 971 l 689 1007 l 543 1164 l 424 1164 l 278 1007 "},"Ķ":{"ha":804,"x_min":125,"x_max":799,"o":"m 125 0 l 240 0 l 240 289 l 397 474 l 669 0 l 799 0 l 469 564 l 754 911 l 624 911 l 244 454 l 240 454 l 240 911 l 125 911 l 125 0 m 331 -314 q 501 -278 442 -308 q 560 -187 560 -249 q 524 -116 560 -140 q 397 -81 488 -92 l 372 -133 q 446 -151 421 -137 q 471 -192 471 -164 q 439 -235 471 -219 q 319 -258 407 -251 l 331 -314 "},"Ḳ":{"ha":804,"x_min":125,"x_max":799,"o":"m 125 0 l 240 0 l 240 289 l 397 474 l 669 0 l 799 0 l 469 564 l 754 911 l 624 911 l 244 454 l 240 454 l 240 911 l 125 911 l 125 0 m 454 -285 q 508 -264 486 -285 q 529 -210 529 -243 q 508 -156 529 -178 q 454 -135 486 -135 q 401 -156 422 -135 q 379 -210 379 -178 q 401 -264 379 -243 q 454 -285 422 -285 "},"Ḵ":{"ha":804,"x_min":125,"x_max":799,"o":"m 125 0 l 240 0 l 240 289 l 397 474 l 669 0 l 799 0 l 469 564 l 754 911 l 624 911 l 244 454 l 240 454 l 240 911 l 125 911 l 125 0 m 267 -235 l 636 -235 l 636 -156 l 267 -156 l 267 -235 "},"Ĺ":{"ha":675,"x_min":111,"x_max":639,"o":"m 125 0 l 639 0 l 639 99 l 240 99 l 240 911 l 125 911 l 125 0 m 163 968 l 374 1128 l 308 1204 l 111 1026 l 163 968 "},"Ľ":{"ha":675,"x_min":125,"x_max":639,"o":"m 125 0 l 639 0 l 639 99 l 240 99 l 240 911 l 125 911 l 125 0 m 464 715 l 519 715 l 539 931 l 540 1010 l 458 1010 l 464 715 "},"Ļ":{"ha":675,"x_min":125,"x_max":639,"o":"m 125 0 l 639 0 l 639 99 l 240 99 l 240 911 l 125 911 l 125 0 m 279 -314 q 449 -278 390 -308 q 508 -187 508 -249 q 472 -116 508 -140 q 346 -81 436 -92 l 321 -133 q 394 -151 369 -137 q 419 -192 419 -164 q 388 -235 419 -219 q 268 -258 356 -251 l 279 -314 "},"Ŀ":{"ha":675,"x_min":125,"x_max":639,"o":"m 125 0 l 639 0 l 639 99 l 240 99 l 240 911 l 125 911 l 125 0 m 524 365 q 581 390 557 365 q 606 451 606 414 q 581 516 606 492 q 524 540 557 540 q 465 516 489 540 q 440 451 440 492 q 465 390 440 414 q 524 365 489 365 "},"Ḷ":{"ha":675,"x_min":125,"x_max":639,"o":"m 125 0 l 639 0 l 639 99 l 240 99 l 240 911 l 125 911 l 125 0 m 400 -285 q 453 -264 432 -285 q 475 -210 475 -243 q 453 -156 475 -178 q 400 -135 432 -135 q 347 -156 368 -135 q 325 -210 325 -178 q 347 -264 325 -243 q 400 -285 368 -285 "},"Ḹ":{"ha":675,"x_min":0,"x_max":639,"o":"m 125 0 l 639 0 l 639 99 l 240 99 l 240 911 l 125 911 l 125 0 m 0 1021 l 372 1021 l 372 1100 l 0 1100 l 0 1021 m 400 -285 q 453 -264 432 -285 q 475 -210 475 -243 q 453 -156 475 -178 q 400 -135 432 -135 q 347 -156 368 -135 q 325 -210 325 -178 q 347 -264 325 -243 q 400 -285 368 -285 "},"Ḻ":{"ha":675,"x_min":125,"x_max":639,"o":"m 125 0 l 639 0 l 639 99 l 240 99 l 240 911 l 125 911 l 125 0 m 215 -235 l 585 -235 l 585 -156 l 215 -156 l 215 -235 "},"Ł":{"ha":679,"x_min":-8,"x_max":646,"o":"m 33 278 l 132 333 l 132 0 l 646 0 l 646 99 l 247 99 l 247 385 l 533 538 l 492 611 l 247 479 l 247 911 l 132 911 l 132 428 l -8 351 l 33 278 "},"Ḿ":{"ha":1010,"x_min":125,"x_max":885,"o":"m 125 0 l 229 0 l 229 501 q 224 636 229 563 q 215 771 219 710 l 221 771 l 293 564 l 465 92 l 542 92 l 714 564 l 786 771 l 792 771 q 782 636 788 710 q 776 501 776 563 l 776 0 l 885 0 l 885 911 l 744 911 l 572 425 q 541 330 556 378 q 510 235 526 282 l 504 235 q 472 330 488 282 q 439 425 456 378 l 264 911 l 125 911 l 125 0 m 479 968 l 690 1128 l 625 1204 l 428 1026 l 479 968 "},"Ṁ":{"ha":1010,"x_min":125,"x_max":885,"o":"m 125 0 l 229 0 l 229 501 q 224 636 229 563 q 215 771 219 710 l 221 771 l 293 564 l 465 92 l 542 92 l 714 564 l 786 771 l 792 771 q 782 636 788 710 q 776 501 776 563 l 776 0 l 885 0 l 885 911 l 744 911 l 572 425 q 541 330 556 378 q 510 235 526 282 l 504 235 q 472 330 488 282 q 439 425 456 378 l 264 911 l 125 911 l 125 0 m 503 992 q 559 1013 536 992 q 582 1067 582 1033 q 559 1119 582 1099 q 503 1140 536 1140 q 447 1119 469 1140 q 424 1067 424 1099 q 447 1013 424 1033 q 503 992 469 992 "},"Ṃ":{"ha":1010,"x_min":125,"x_max":885,"o":"m 125 0 l 229 0 l 229 501 q 224 636 229 563 q 215 771 219 710 l 221 771 l 293 564 l 465 92 l 542 92 l 714 564 l 786 771 l 792 771 q 782 636 788 710 q 776 501 776 563 l 776 0 l 885 0 l 885 911 l 744 911 l 572 425 q 541 330 556 378 q 510 235 526 282 l 504 235 q 472 330 488 282 q 439 425 456 378 l 264 911 l 125 911 l 125 0 m 506 -285 q 559 -264 538 -285 q 581 -210 581 -243 q 559 -156 581 -178 q 506 -135 538 -135 q 452 -156 474 -135 q 431 -210 431 -178 q 452 -264 431 -243 q 506 -285 474 -285 "},"Ń":{"ha":899,"x_min":125,"x_max":774,"o":"m 125 0 l 235 0 l 235 476 q 230 620 235 549 q 219 761 225 692 l 225 761 l 324 574 l 654 0 l 774 0 l 774 911 l 664 911 l 664 440 q 669 294 664 368 q 678 150 674 219 l 672 150 l 574 339 l 244 911 l 125 911 l 125 0 m 431 968 l 642 1128 l 576 1204 l 379 1026 l 431 968 "},"Ǹ":{"ha":899,"x_min":125,"x_max":774,"o":"m 125 0 l 235 0 l 235 476 q 230 620 235 549 q 219 761 225 692 l 225 761 l 324 574 l 654 0 l 774 0 l 774 911 l 664 911 l 664 440 q 669 294 664 368 q 678 150 674 219 l 672 150 l 574 339 l 244 911 l 125 911 l 125 0 m 478 968 l 529 1026 l 332 1204 l 267 1128 l 478 968 "},"Ň":{"ha":899,"x_min":125,"x_max":774,"o":"m 125 0 l 235 0 l 235 476 q 230 620 235 549 q 219 761 225 692 l 225 761 l 324 574 l 654 0 l 774 0 l 774 911 l 664 911 l 664 440 q 669 294 664 368 q 678 150 674 219 l 672 150 l 574 339 l 244 911 l 125 911 l 125 0 m 393 981 l 513 981 l 658 1138 l 608 1174 l 456 1046 l 450 1046 l 297 1174 l 247 1138 l 393 981 "},"Ñ":{"ha":899,"x_min":125,"x_max":774,"o":"m 125 0 l 235 0 l 235 476 q 230 620 235 549 q 219 761 225 692 l 225 761 l 324 574 l 654 0 l 774 0 l 774 911 l 664 911 l 664 440 q 669 294 664 368 q 678 150 674 219 l 672 150 l 574 339 l 244 911 l 125 911 l 125 0 m 557 985 q 657 1030 619 985 q 699 1156 694 1075 l 621 1161 q 554 1069 610 1069 q 509 1085 529 1069 q 466 1119 489 1100 q 415 1153 443 1138 q 349 1168 388 1168 q 249 1122 286 1168 q 207 997 211 1076 l 285 992 q 307 1060 289 1036 q 351 1083 325 1083 q 397 1068 376 1083 q 440 1034 417 1053 q 490 1000 463 1015 q 557 985 518 985 "},"Ņ":{"ha":899,"x_min":125,"x_max":774,"o":"m 125 0 l 235 0 l 235 476 q 230 620 235 549 q 219 761 225 692 l 225 761 l 324 574 l 654 0 l 774 0 l 774 911 l 664 911 l 664 440 q 669 294 664 368 q 678 150 674 219 l 672 150 l 574 339 l 244 911 l 125 911 l 125 0 m 335 -314 q 505 -278 446 -308 q 564 -187 564 -249 q 528 -116 564 -140 q 401 -81 492 -92 l 376 -133 q 450 -151 425 -137 q 475 -192 475 -164 q 443 -235 475 -219 q 324 -258 411 -251 l 335 -314 "},"Ṅ":{"ha":899,"x_min":125,"x_max":774,"o":"m 125 0 l 235 0 l 235 476 q 230 620 235 549 q 219 761 225 692 l 225 761 l 324 574 l 654 0 l 774 0 l 774 911 l 664 911 l 664 440 q 669 294 664 368 q 678 150 674 219 l 672 150 l 574 339 l 244 911 l 125 911 l 125 0 m 453 992 q 509 1013 486 992 q 532 1067 532 1033 q 509 1119 532 1099 q 453 1140 486 1140 q 397 1119 419 1140 q 374 1067 374 1099 q 397 1013 374 1033 q 453 992 419 992 "},"Ṇ":{"ha":899,"x_min":125,"x_max":774,"o":"m 125 0 l 235 0 l 235 476 q 230 620 235 549 q 219 761 225 692 l 225 761 l 324 574 l 654 0 l 774 0 l 774 911 l 664 911 l 664 440 q 669 294 664 368 q 678 150 674 219 l 672 150 l 574 339 l 244 911 l 125 911 l 125 0 m 456 -285 q 509 -264 488 -285 q 531 -210 531 -243 q 509 -156 531 -178 q 456 -135 488 -135 q 402 -156 424 -135 q 381 -210 381 -178 q 402 -264 381 -243 q 456 -285 424 -285 "},"Ṉ":{"ha":899,"x_min":125,"x_max":774,"o":"m 125 0 l 235 0 l 235 476 q 230 620 235 549 q 219 761 225 692 l 225 761 l 324 574 l 654 0 l 774 0 l 774 911 l 664 911 l 664 440 q 669 294 664 368 q 678 150 674 219 l 672 150 l 574 339 l 244 911 l 125 911 l 125 0 m 271 -235 l 640 -235 l 640 -156 l 271 -156 l 271 -235 "},"Ò":{"ha":922,"x_min":72,"x_max":851,"o":"m 461 -17 q 619 17 547 -17 q 742 112 690 50 q 823 262 794 174 q 851 460 851 350 q 823 655 851 568 q 742 802 794 742 q 619 895 690 863 q 461 928 547 928 q 303 896 375 928 q 181 803 232 864 q 101 656 129 743 q 72 460 72 569 q 101 262 72 350 q 181 112 129 174 q 303 17 232 50 q 461 -17 375 -17 m 461 85 q 351 111 400 85 q 266 187 301 138 q 211 305 231 236 q 192 460 192 374 q 211 613 192 544 q 266 728 231 681 q 351 801 301 775 q 461 826 400 826 q 572 801 522 826 q 656 728 621 775 q 711 613 692 681 q 731 460 731 544 q 711 305 731 374 q 656 187 692 236 q 572 111 621 138 q 461 85 522 85 m 485 968 l 536 1026 l 339 1204 l 274 1128 l 485 968 "},"Ó":{"ha":922,"x_min":72,"x_max":851,"o":"m 461 -17 q 619 17 547 -17 q 742 112 690 50 q 823 262 794 174 q 851 460 851 350 q 823 655 851 568 q 742 802 794 742 q 619 895 690 863 q 461 928 547 928 q 303 896 375 928 q 181 803 232 864 q 101 656 129 743 q 72 460 72 569 q 101 262 72 350 q 181 112 129 174 q 303 17 232 50 q 461 -17 375 -17 m 461 85 q 351 111 400 85 q 266 187 301 138 q 211 305 231 236 q 192 460 192 374 q 211 613 192 544 q 266 728 231 681 q 351 801 301 775 q 461 826 400 826 q 572 801 522 826 q 656 728 621 775 q 711 613 692 681 q 731 460 731 544 q 711 305 731 374 q 656 187 692 236 q 572 111 621 138 q 461 85 522 85 m 438 968 l 649 1128 l 583 1204 l 386 1026 l 438 968 "},"Ô":{"ha":922,"x_min":72,"x_max":851,"o":"m 461 -17 q 619 17 547 -17 q 742 112 690 50 q 823 262 794 174 q 851 460 851 350 q 823 655 851 568 q 742 802 794 742 q 619 895 690 863 q 461 928 547 928 q 303 896 375 928 q 181 803 232 864 q 101 656 129 743 q 72 460 72 569 q 101 262 72 350 q 181 112 129 174 q 303 17 232 50 q 461 -17 375 -17 m 461 85 q 351 111 400 85 q 266 187 301 138 q 211 305 231 236 q 192 460 192 374 q 211 613 192 544 q 266 728 231 681 q 351 801 301 775 q 461 826 400 826 q 572 801 522 826 q 656 728 621 775 q 711 613 692 681 q 731 460 731 544 q 711 305 731 374 q 656 187 692 236 q 572 111 621 138 q 461 85 522 85 m 256 1007 l 306 971 l 458 1100 l 464 1100 l 617 971 l 667 1007 l 521 1164 l 401 1164 l 256 1007 "},"Õ":{"ha":922,"x_min":72,"x_max":851,"o":"m 461 -17 q 619 17 547 -17 q 742 112 690 50 q 823 262 794 174 q 851 460 851 350 q 823 655 851 568 q 742 802 794 742 q 619 895 690 863 q 461 928 547 928 q 303 896 375 928 q 181 803 232 864 q 101 656 129 743 q 72 460 72 569 q 101 262 72 350 q 181 112 129 174 q 303 17 232 50 q 461 -17 375 -17 m 461 85 q 351 111 400 85 q 266 187 301 138 q 211 305 231 236 q 192 460 192 374 q 211 613 192 544 q 266 728 231 681 q 351 801 301 775 q 461 826 400 826 q 572 801 522 826 q 656 728 621 775 q 711 613 692 681 q 731 460 731 544 q 711 305 731 374 q 656 187 692 236 q 572 111 621 138 q 461 85 522 85 m 565 985 q 665 1030 628 985 q 707 1156 703 1075 l 629 1161 q 563 1069 618 1069 q 517 1085 538 1069 q 474 1119 497 1100 q 424 1153 451 1138 q 357 1168 396 1168 q 257 1122 294 1168 q 215 997 219 1076 l 293 992 q 315 1060 297 1036 q 360 1083 333 1083 q 405 1068 385 1083 q 448 1034 425 1053 q 499 1000 471 1015 q 565 985 526 985 "},"Ö":{"ha":922,"x_min":72,"x_max":851,"o":"m 461 -17 q 619 17 547 -17 q 742 112 690 50 q 823 262 794 174 q 851 460 851 350 q 823 655 851 568 q 742 802 794 742 q 619 895 690 863 q 461 928 547 928 q 303 896 375 928 q 181 803 232 864 q 101 656 129 743 q 72 460 72 569 q 101 262 72 350 q 181 112 129 174 q 303 17 232 50 q 461 -17 375 -17 m 461 85 q 351 111 400 85 q 266 187 301 138 q 211 305 231 236 q 192 460 192 374 q 211 613 192 544 q 266 728 231 681 q 351 801 301 775 q 461 826 400 826 q 572 801 522 826 q 656 728 621 775 q 711 613 692 681 q 731 460 731 544 q 711 305 731 374 q 656 187 692 236 q 572 111 621 138 q 461 85 522 85 m 318 993 q 367 1013 349 993 q 386 1061 386 1032 q 367 1110 386 1092 q 318 1129 349 1129 q 269 1110 289 1129 q 250 1061 250 1092 q 269 1013 250 1032 q 318 993 289 993 m 604 993 q 653 1013 633 993 q 672 1061 672 1032 q 653 1110 672 1092 q 604 1129 633 1129 q 555 1110 574 1129 q 536 1061 536 1092 q 555 1013 536 1032 q 604 993 574 993 "},"Ō":{"ha":922,"x_min":72,"x_max":851,"o":"m 461 -17 q 619 17 547 -17 q 742 112 690 50 q 823 262 794 174 q 851 460 851 350 q 823 655 851 568 q 742 802 794 742 q 619 895 690 863 q 461 928 547 928 q 303 896 375 928 q 181 803 232 864 q 101 656 129 743 q 72 460 72 569 q 101 262 72 350 q 181 112 129 174 q 303 17 232 50 q 461 -17 375 -17 m 461 85 q 351 111 400 85 q 266 187 301 138 q 211 305 231 236 q 192 460 192 374 q 211 613 192 544 q 266 728 231 681 q 351 801 301 775 q 461 826 400 826 q 572 801 522 826 q 656 728 621 775 q 711 613 692 681 q 731 460 731 544 q 711 305 731 374 q 656 187 692 236 q 572 111 621 138 q 461 85 522 85 m 275 1021 l 647 1021 l 647 1100 l 275 1100 l 275 1021 "},"Ő":{"ha":922,"x_min":72,"x_max":851,"o":"m 461 -17 q 619 17 547 -17 q 742 112 690 50 q 823 262 794 174 q 851 460 851 350 q 823 655 851 568 q 742 802 794 742 q 619 895 690 863 q 461 928 547 928 q 303 896 375 928 q 181 803 232 864 q 101 656 129 743 q 72 460 72 569 q 101 262 72 350 q 181 112 129 174 q 303 17 232 50 q 461 -17 375 -17 m 461 85 q 351 111 400 85 q 266 187 301 138 q 211 305 231 236 q 192 460 192 374 q 211 613 192 544 q 266 728 231 681 q 351 801 301 775 q 461 826 400 826 q 572 801 522 826 q 656 728 621 775 q 711 613 692 681 q 731 460 731 544 q 711 305 731 374 q 656 187 692 236 q 572 111 621 138 q 461 85 522 85 m 319 1006 l 379 976 l 525 1172 l 447 1217 l 319 1006 m 542 1006 l 601 976 l 747 1172 l 669 1217 l 542 1006 "},"Ǒ":{"ha":922,"x_min":72,"x_max":851,"o":"m 461 -17 q 619 17 547 -17 q 742 112 690 50 q 823 262 794 174 q 851 460 851 350 q 823 655 851 568 q 742 802 794 742 q 619 895 690 863 q 461 928 547 928 q 303 896 375 928 q 181 803 232 864 q 101 656 129 743 q 72 460 72 569 q 101 262 72 350 q 181 112 129 174 q 303 17 232 50 q 461 -17 375 -17 m 461 85 q 351 111 400 85 q 266 187 301 138 q 211 305 231 236 q 192 460 192 374 q 211 613 192 544 q 266 728 231 681 q 351 801 301 775 q 461 826 400 826 q 572 801 522 826 q 656 728 621 775 q 711 613 692 681 q 731 460 731 544 q 711 305 731 374 q 656 187 692 236 q 572 111 621 138 q 461 85 522 85 m 401 981 l 521 981 l 667 1138 l 617 1174 l 464 1046 l 458 1046 l 306 1174 l 256 1138 l 401 981 "},"Ọ":{"ha":922,"x_min":72,"x_max":851,"o":"m 461 -17 q 619 17 547 -17 q 742 112 690 50 q 823 262 794 174 q 851 460 851 350 q 823 655 851 568 q 742 802 794 742 q 619 895 690 863 q 461 928 547 928 q 303 896 375 928 q 181 803 232 864 q 101 656 129 743 q 72 460 72 569 q 101 262 72 350 q 181 112 129 174 q 303 17 232 50 q 461 -17 375 -17 m 461 85 q 351 111 400 85 q 266 187 301 138 q 211 305 231 236 q 192 460 192 374 q 211 613 192 544 q 266 728 231 681 q 351 801 301 775 q 461 826 400 826 q 572 801 522 826 q 656 728 621 775 q 711 613 692 681 q 731 460 731 544 q 711 305 731 374 q 656 187 692 236 q 572 111 621 138 q 461 85 522 85 m 461 -285 q 515 -264 493 -285 q 536 -210 536 -243 q 515 -156 536 -178 q 461 -135 493 -135 q 408 -156 429 -135 q 386 -210 386 -178 q 408 -264 386 -243 q 461 -285 429 -285 "},"Ỏ":{"ha":922,"x_min":72,"x_max":851,"o":"m 461 -17 q 619 17 547 -17 q 742 112 690 50 q 823 262 794 174 q 851 460 851 350 q 823 655 851 568 q 742 802 794 742 q 619 895 690 863 q 461 928 547 928 q 303 896 375 928 q 181 803 232 864 q 101 656 129 743 q 72 460 72 569 q 101 262 72 350 q 181 112 129 174 q 303 17 232 50 q 461 -17 375 -17 m 461 85 q 351 111 400 85 q 266 187 301 138 q 211 305 231 236 q 192 460 192 374 q 211 613 192 544 q 266 728 231 681 q 351 801 301 775 q 461 826 400 826 q 572 801 522 826 q 656 728 621 775 q 711 613 692 681 q 731 460 731 544 q 711 305 731 374 q 656 187 692 236 q 572 111 621 138 q 461 85 522 85 m 417 969 q 475 984 447 975 q 524 1009 503 993 q 558 1047 546 1025 q 571 1099 571 1068 q 521 1180 571 1151 q 379 1211 471 1208 l 367 1144 q 482 1086 482 1140 q 460 1046 482 1060 q 404 1022 438 1032 l 417 969 "},"Ố":{"ha":922,"x_min":72,"x_max":851,"o":"m 461 -17 q 619 17 547 -17 q 742 112 690 50 q 823 262 794 174 q 851 460 851 350 q 823 655 851 568 q 742 802 794 742 q 619 895 690 863 q 461 928 547 928 q 303 896 375 928 q 181 803 232 864 q 101 656 129 743 q 72 460 72 569 q 101 262 72 350 q 181 112 129 174 q 303 17 232 50 q 461 -17 375 -17 m 461 85 q 351 111 400 85 q 266 187 301 138 q 211 305 231 236 q 192 460 192 374 q 211 613 192 544 q 266 728 231 681 q 351 801 301 775 q 461 826 400 826 q 572 801 522 826 q 656 728 621 775 q 711 613 692 681 q 731 460 731 544 q 711 305 731 374 q 656 187 692 236 q 572 111 621 138 q 461 85 522 85 m 329 971 l 458 1067 l 464 1067 l 593 971 l 640 1007 l 511 1132 l 411 1132 l 282 1007 l 329 971 m 629 1060 l 771 1179 l 722 1233 l 588 1104 l 629 1060 "},"Ồ":{"ha":922,"x_min":72,"x_max":851,"o":"m 461 -17 q 619 17 547 -17 q 742 112 690 50 q 823 262 794 174 q 851 460 851 350 q 823 655 851 568 q 742 802 794 742 q 619 895 690 863 q 461 928 547 928 q 303 896 375 928 q 181 803 232 864 q 101 656 129 743 q 72 460 72 569 q 101 262 72 350 q 181 112 129 174 q 303 17 232 50 q 461 -17 375 -17 m 461 85 q 351 111 400 85 q 266 187 301 138 q 211 305 231 236 q 192 460 192 374 q 211 613 192 544 q 266 728 231 681 q 351 801 301 775 q 461 826 400 826 q 572 801 522 826 q 656 728 621 775 q 711 613 692 681 q 731 460 731 544 q 711 305 731 374 q 656 187 692 236 q 572 111 621 138 q 461 85 522 85 m 329 971 l 458 1067 l 464 1067 l 593 971 l 640 1007 l 511 1132 l 411 1132 l 282 1007 l 329 971 m 335 1101 l 217 1233 l 168 1182 l 293 1060 l 335 1101 "},"Ổ":{"ha":922,"x_min":72,"x_max":851,"o":"m 461 -17 q 619 17 547 -17 q 742 112 690 50 q 823 262 794 174 q 851 460 851 350 q 823 655 851 568 q 742 802 794 742 q 619 895 690 863 q 461 928 547 928 q 303 896 375 928 q 181 803 232 864 q 101 656 129 743 q 72 460 72 569 q 101 262 72 350 q 181 112 129 174 q 303 17 232 50 q 461 -17 375 -17 m 461 85 q 351 111 400 85 q 266 187 301 138 q 211 305 231 236 q 192 460 192 374 q 211 613 192 544 q 266 728 231 681 q 351 801 301 775 q 461 826 400 826 q 572 801 522 826 q 656 728 621 775 q 711 613 692 681 q 731 460 731 544 q 711 305 731 374 q 656 187 692 236 q 572 111 621 138 q 461 85 522 85 m 329 971 l 458 1067 l 464 1067 l 593 971 l 640 1007 l 511 1132 l 411 1132 l 282 1007 l 329 971 m 621 1047 q 710 1080 671 1056 q 749 1157 749 1104 q 706 1231 749 1206 q 582 1258 664 1256 l 569 1200 q 645 1185 622 1197 q 668 1146 668 1174 q 650 1113 668 1124 q 606 1096 632 1103 l 621 1047 "},"Ỗ":{"ha":922,"x_min":72,"x_max":851,"o":"m 461 -17 q 619 17 547 -17 q 742 112 690 50 q 823 262 794 174 q 851 460 851 350 q 823 655 851 568 q 742 802 794 742 q 619 895 690 863 q 461 928 547 928 q 303 896 375 928 q 181 803 232 864 q 101 656 129 743 q 72 460 72 569 q 101 262 72 350 q 181 112 129 174 q 303 17 232 50 q 461 -17 375 -17 m 461 85 q 351 111 400 85 q 266 187 301 138 q 211 305 231 236 q 192 460 192 374 q 211 613 192 544 q 266 728 231 681 q 351 801 301 775 q 461 826 400 826 q 572 801 522 826 q 656 728 621 775 q 711 613 692 681 q 731 460 731 544 q 711 305 731 374 q 656 187 692 236 q 572 111 621 138 q 461 85 522 85 m 329 971 l 458 1063 l 464 1063 l 593 971 l 640 1007 l 511 1128 l 411 1128 l 282 1007 l 329 971 m 260 1178 l 322 1171 q 338 1218 326 1201 q 375 1235 350 1235 q 414 1224 396 1235 q 452 1200 432 1213 q 496 1176 472 1188 q 553 1165 519 1165 q 635 1202 610 1165 q 663 1293 660 1239 l 600 1300 q 584 1253 596 1269 q 547 1236 572 1236 q 508 1247 526 1236 q 470 1270 490 1257 q 426 1294 450 1283 q 369 1304 403 1304 q 288 1267 313 1304 q 260 1178 263 1231 "},"Ộ":{"ha":922,"x_min":72,"x_max":851,"o":"m 461 -17 q 619 17 547 -17 q 742 112 690 50 q 823 262 794 174 q 851 460 851 350 q 823 655 851 568 q 742 802 794 742 q 619 895 690 863 q 461 928 547 928 q 303 896 375 928 q 181 803 232 864 q 101 656 129 743 q 72 460 72 569 q 101 262 72 350 q 181 112 129 174 q 303 17 232 50 q 461 -17 375 -17 m 461 85 q 351 111 400 85 q 266 187 301 138 q 211 305 231 236 q 192 460 192 374 q 211 613 192 544 q 266 728 231 681 q 351 801 301 775 q 461 826 400 826 q 572 801 522 826 q 656 728 621 775 q 711 613 692 681 q 731 460 731 544 q 711 305 731 374 q 656 187 692 236 q 572 111 621 138 q 461 85 522 85 m 256 1007 l 306 971 l 458 1100 l 464 1100 l 617 971 l 667 1007 l 521 1164 l 401 1164 l 256 1007 m 461 -285 q 515 -264 493 -285 q 536 -210 536 -243 q 515 -156 536 -178 q 461 -135 493 -135 q 408 -156 429 -135 q 386 -210 386 -178 q 408 -264 386 -243 q 461 -285 429 -285 "},"Ŏ":{"ha":922,"x_min":72,"x_max":851,"o":"m 461 -17 q 619 17 547 -17 q 742 112 690 50 q 823 262 794 174 q 851 460 851 350 q 823 655 851 568 q 742 802 794 742 q 619 895 690 863 q 461 928 547 928 q 303 896 375 928 q 181 803 232 864 q 101 656 129 743 q 72 460 72 569 q 101 262 72 350 q 181 112 129 174 q 303 17 232 50 q 461 -17 375 -17 m 461 85 q 351 111 400 85 q 266 187 301 138 q 211 305 231 236 q 192 460 192 374 q 211 613 192 544 q 266 728 231 681 q 351 801 301 775 q 461 826 400 826 q 572 801 522 826 q 656 728 621 775 q 711 613 692 681 q 731 460 731 544 q 711 305 731 374 q 656 187 692 236 q 572 111 621 138 q 461 85 522 85 m 461 979 q 546 994 510 979 q 607 1033 582 1008 q 646 1090 632 1057 q 664 1158 660 1122 l 594 1169 q 553 1087 586 1121 q 461 1053 521 1053 q 369 1087 401 1053 q 328 1169 336 1121 l 258 1158 q 276 1090 263 1122 q 315 1033 290 1057 q 376 994 340 1008 q 461 979 413 979 "},"Ṓ":{"ha":922,"x_min":72,"x_max":851,"o":"m 461 -17 q 619 17 547 -17 q 742 112 690 50 q 823 262 794 174 q 851 460 851 350 q 823 655 851 568 q 742 802 794 742 q 619 895 690 863 q 461 928 547 928 q 303 896 375 928 q 181 803 232 864 q 101 656 129 743 q 72 460 72 569 q 101 262 72 350 q 181 112 129 174 q 303 17 232 50 q 461 -17 375 -17 m 461 85 q 351 111 400 85 q 266 187 301 138 q 211 305 231 236 q 192 460 192 374 q 211 613 192 544 q 266 728 231 681 q 351 801 301 775 q 461 826 400 826 q 572 801 522 826 q 656 728 621 775 q 711 613 692 681 q 731 460 731 544 q 711 305 731 374 q 656 187 692 236 q 572 111 621 138 q 461 85 522 85 m 436 1149 l 615 1278 l 561 1344 l 393 1201 l 436 1149 m 275 1021 l 647 1021 l 647 1100 l 275 1100 l 275 1021 "},"Ø":{"ha":922,"x_min":69,"x_max":860,"o":"m 465 -17 q 623 17 551 -17 q 747 112 694 50 q 827 262 799 174 q 856 460 856 350 q 832 640 856 560 q 764 781 808 719 l 860 904 l 796 953 l 710 840 q 465 928 610 928 q 308 896 379 928 q 185 803 236 864 q 105 656 133 743 q 76 460 76 569 q 100 278 76 360 q 167 135 124 197 l 69 8 l 133 -42 l 222 74 q 465 -17 321 -17 m 196 460 q 215 613 196 544 q 270 728 235 681 q 355 801 306 775 q 465 826 404 826 q 642 751 571 826 l 242 233 q 208 335 219 278 q 196 460 196 393 m 465 85 q 290 163 360 85 l 689 682 q 723 582 711 638 q 735 460 735 526 q 715 305 735 374 q 660 187 696 236 q 576 111 625 138 q 465 85 526 85 "},"Œ":{"ha":1176,"x_min":72,"x_max":1108,"o":"m 513 0 l 1108 0 l 1108 99 l 708 99 l 708 429 l 1031 429 l 1031 528 l 708 528 l 708 814 l 1094 814 l 1094 911 l 518 911 q 189 794 306 911 q 72 460 72 678 q 102 266 72 351 q 189 122 132 181 q 327 31 246 63 q 513 0 408 0 m 526 94 q 276 190 361 94 q 192 460 192 285 q 276 725 192 633 q 526 817 361 817 l 593 817 l 593 94 l 526 94 "},"Ơ":{"ha":922,"x_min":76,"x_max":861,"o":"m 465 -17 q 623 17 551 -17 q 747 112 694 50 q 827 262 799 174 q 856 460 856 350 q 817 681 856 586 q 713 838 779 776 q 822 896 782 856 q 861 1007 861 936 q 852 1067 861 1039 q 829 1118 843 1094 l 739 1079 q 753 1041 747 1063 q 758 999 758 1019 q 731 923 758 950 q 646 885 704 896 q 465 928 564 928 q 308 896 379 928 q 185 803 236 864 q 105 656 133 743 q 76 460 76 569 q 105 262 76 350 q 185 112 133 174 q 308 17 236 50 q 465 -17 379 -17 m 465 85 q 355 111 404 85 q 270 187 306 138 q 215 305 235 236 q 196 460 196 374 q 215 613 196 544 q 270 728 235 681 q 355 801 306 775 q 465 826 404 826 q 576 801 526 826 q 660 728 625 775 q 715 613 696 681 q 735 460 735 544 q 715 305 735 374 q 660 187 696 236 q 576 111 625 138 q 465 85 526 85 "},"Ớ":{"ha":922,"x_min":76,"x_max":861,"o":"m 465 -17 q 623 17 551 -17 q 747 112 694 50 q 827 262 799 174 q 856 460 856 350 q 817 681 856 586 q 713 838 779 776 q 822 896 782 856 q 861 1007 861 936 q 852 1067 861 1039 q 829 1118 843 1094 l 739 1079 q 753 1041 747 1063 q 758 999 758 1019 q 731 923 758 950 q 646 885 704 896 q 465 928 564 928 q 308 896 379 928 q 185 803 236 864 q 105 656 133 743 q 76 460 76 569 q 105 262 76 350 q 185 112 133 174 q 308 17 236 50 q 465 -17 379 -17 m 465 85 q 355 111 404 85 q 270 187 306 138 q 215 305 235 236 q 196 460 196 374 q 215 613 196 544 q 270 728 235 681 q 355 801 306 775 q 465 826 404 826 q 576 801 526 826 q 660 728 625 775 q 715 613 696 681 q 735 460 735 544 q 715 305 735 374 q 660 187 696 236 q 576 111 625 138 q 465 85 526 85 m 438 968 l 649 1128 l 583 1204 l 386 1026 l 438 968 "},"Ờ":{"ha":922,"x_min":76,"x_max":861,"o":"m 465 -17 q 623 17 551 -17 q 747 112 694 50 q 827 262 799 174 q 856 460 856 350 q 817 681 856 586 q 713 838 779 776 q 822 896 782 856 q 861 1007 861 936 q 852 1067 861 1039 q 829 1118 843 1094 l 739 1079 q 753 1041 747 1063 q 758 999 758 1019 q 731 923 758 950 q 646 885 704 896 q 465 928 564 928 q 308 896 379 928 q 185 803 236 864 q 105 656 133 743 q 76 460 76 569 q 105 262 76 350 q 185 112 133 174 q 308 17 236 50 q 465 -17 379 -17 m 465 85 q 355 111 404 85 q 270 187 306 138 q 215 305 235 236 q 196 460 196 374 q 215 613 196 544 q 270 728 235 681 q 355 801 306 775 q 465 826 404 826 q 576 801 526 826 q 660 728 625 775 q 715 613 696 681 q 735 460 735 544 q 715 305 735 374 q 660 187 696 236 q 576 111 625 138 q 465 85 526 85 m 485 968 l 536 1026 l 339 1204 l 274 1128 l 485 968 "},"Ở":{"ha":922,"x_min":76,"x_max":861,"o":"m 465 -17 q 623 17 551 -17 q 747 112 694 50 q 827 262 799 174 q 856 460 856 350 q 817 681 856 586 q 713 838 779 776 q 822 896 782 856 q 861 1007 861 936 q 852 1067 861 1039 q 829 1118 843 1094 l 739 1079 q 753 1041 747 1063 q 758 999 758 1019 q 731 923 758 950 q 646 885 704 896 q 465 928 564 928 q 308 896 379 928 q 185 803 236 864 q 105 656 133 743 q 76 460 76 569 q 105 262 76 350 q 185 112 133 174 q 308 17 236 50 q 465 -17 379 -17 m 465 85 q 355 111 404 85 q 270 187 306 138 q 215 305 235 236 q 196 460 196 374 q 215 613 196 544 q 270 728 235 681 q 355 801 306 775 q 465 826 404 826 q 576 801 526 826 q 660 728 625 775 q 715 613 696 681 q 735 460 735 544 q 715 305 735 374 q 660 187 696 236 q 576 111 625 138 q 465 85 526 85 m 417 969 q 475 984 447 975 q 524 1009 503 993 q 558 1047 546 1025 q 571 1099 571 1068 q 521 1180 571 1151 q 379 1211 471 1208 l 367 1144 q 482 1086 482 1140 q 460 1046 482 1060 q 404 1022 438 1032 l 417 969 "},"Ỡ":{"ha":922,"x_min":76,"x_max":861,"o":"m 465 -17 q 623 17 551 -17 q 747 112 694 50 q 827 262 799 174 q 856 460 856 350 q 817 681 856 586 q 713 838 779 776 q 822 896 782 856 q 861 1007 861 936 q 852 1067 861 1039 q 829 1118 843 1094 l 739 1079 q 753 1041 747 1063 q 758 999 758 1019 q 731 923 758 950 q 646 885 704 896 q 465 928 564 928 q 308 896 379 928 q 185 803 236 864 q 105 656 133 743 q 76 460 76 569 q 105 262 76 350 q 185 112 133 174 q 308 17 236 50 q 465 -17 379 -17 m 465 85 q 355 111 404 85 q 270 187 306 138 q 215 305 235 236 q 196 460 196 374 q 215 613 196 544 q 270 728 235 681 q 355 801 306 775 q 465 826 404 826 q 576 801 526 826 q 660 728 625 775 q 715 613 696 681 q 735 460 735 544 q 715 305 735 374 q 660 187 696 236 q 576 111 625 138 q 465 85 526 85 m 556 985 q 656 1030 618 985 q 697 1156 693 1075 l 619 1161 q 553 1069 608 1069 q 508 1085 528 1069 q 465 1119 488 1100 q 414 1153 442 1138 q 347 1168 386 1168 q 247 1122 285 1168 q 206 997 210 1076 l 283 992 q 306 1060 288 1036 q 350 1083 324 1083 q 395 1068 375 1083 q 438 1034 415 1053 q 489 1000 461 1015 q 556 985 517 985 "},"Ợ":{"ha":922,"x_min":76,"x_max":861,"o":"m 465 -17 q 623 17 551 -17 q 747 112 694 50 q 827 262 799 174 q 856 460 856 350 q 817 681 856 586 q 713 838 779 776 q 822 896 782 856 q 861 1007 861 936 q 852 1067 861 1039 q 829 1118 843 1094 l 739 1079 q 753 1041 747 1063 q 758 999 758 1019 q 731 923 758 950 q 646 885 704 896 q 465 928 564 928 q 308 896 379 928 q 185 803 236 864 q 105 656 133 743 q 76 460 76 569 q 105 262 76 350 q 185 112 133 174 q 308 17 236 50 q 465 -17 379 -17 m 465 85 q 355 111 404 85 q 270 187 306 138 q 215 305 235 236 q 196 460 196 374 q 215 613 196 544 q 270 728 235 681 q 355 801 306 775 q 465 826 404 826 q 576 801 526 826 q 660 728 625 775 q 715 613 696 681 q 735 460 735 544 q 715 305 735 374 q 660 187 696 236 q 576 111 625 138 q 465 85 526 85 m 461 -285 q 515 -264 493 -285 q 536 -210 536 -243 q 515 -156 536 -178 q 461 -135 493 -135 q 408 -156 429 -135 q 386 -210 386 -178 q 408 -264 386 -243 q 461 -285 429 -285 "},"Ǫ":{"ha":922,"x_min":72,"x_max":851,"o":"m 501 -294 q 561 -283 529 -294 q 613 -256 593 -271 l 581 -193 q 555 -208 568 -203 q 525 -212 542 -212 q 479 -197 500 -212 q 458 -149 458 -181 q 484 -74 458 -112 q 567 -10 510 -35 q 688 63 635 21 q 777 163 740 106 q 833 293 814 219 q 851 460 851 367 q 823 655 851 568 q 742 802 794 742 q 619 895 690 863 q 461 928 547 928 q 303 896 375 928 q 181 803 232 864 q 101 656 129 743 q 72 460 72 569 q 99 266 72 353 q 175 117 125 179 q 296 21 225 56 q 454 -15 367 -14 q 394 -87 418 -46 q 369 -174 369 -128 q 408 -264 369 -233 q 501 -294 446 -294 m 461 85 q 351 111 400 85 q 266 187 301 138 q 211 305 231 236 q 192 460 192 374 q 211 613 192 544 q 266 728 231 681 q 351 801 301 775 q 461 826 400 826 q 572 801 522 826 q 656 728 621 775 q 711 613 692 681 q 731 460 731 544 q 711 305 731 374 q 656 187 692 236 q 572 111 621 138 q 461 85 522 85 "},"Ŕ":{"ha":790,"x_min":125,"x_max":756,"o":"m 125 0 l 240 0 l 240 385 l 406 385 l 625 0 l 756 0 l 524 397 q 674 485 618 421 q 729 656 729 549 q 706 775 729 726 q 640 854 682 824 q 538 898 597 885 q 410 911 479 911 l 125 911 l 125 0 m 240 479 l 240 818 l 393 818 q 557 782 500 818 q 614 656 614 746 q 557 523 614 567 q 393 479 500 479 l 240 479 m 376 968 l 588 1128 l 522 1204 l 325 1026 l 376 968 "},"Ř":{"ha":790,"x_min":125,"x_max":756,"o":"m 125 0 l 240 0 l 240 385 l 406 385 l 625 0 l 756 0 l 524 397 q 674 485 618 421 q 729 656 729 549 q 706 775 729 726 q 640 854 682 824 q 538 898 597 885 q 410 911 479 911 l 125 911 l 125 0 m 240 479 l 240 818 l 393 818 q 557 782 500 818 q 614 656 614 746 q 557 523 614 567 q 393 479 500 479 l 240 479 m 340 981 l 460 981 l 606 1138 l 556 1174 l 403 1046 l 397 1046 l 244 1174 l 194 1138 l 340 981 "},"Ṙ":{"ha":790,"x_min":125,"x_max":756,"o":"m 125 0 l 240 0 l 240 385 l 406 385 l 625 0 l 756 0 l 524 397 q 674 485 618 421 q 729 656 729 549 q 706 775 729 726 q 640 854 682 824 q 538 898 597 885 q 410 911 479 911 l 125 911 l 125 0 m 240 479 l 240 818 l 393 818 q 557 782 500 818 q 614 656 614 746 q 557 523 614 567 q 393 479 500 479 l 240 479 m 400 992 q 456 1013 433 992 q 479 1067 479 1033 q 456 1119 479 1099 q 400 1140 433 1140 q 344 1119 367 1140 q 321 1067 321 1099 q 344 1013 321 1033 q 400 992 367 992 "},"Ŗ":{"ha":790,"x_min":125,"x_max":756,"o":"m 125 0 l 240 0 l 240 385 l 406 385 l 625 0 l 756 0 l 524 397 q 674 485 618 421 q 729 656 729 549 q 706 775 729 726 q 640 854 682 824 q 538 898 597 885 q 410 911 479 911 l 125 911 l 125 0 m 240 479 l 240 818 l 393 818 q 557 782 500 818 q 614 656 614 746 q 557 523 614 567 q 393 479 500 479 l 240 479 m 300 -314 q 470 -278 411 -308 q 529 -187 529 -249 q 493 -116 529 -140 q 367 -81 457 -92 l 342 -133 q 415 -151 390 -137 q 440 -192 440 -164 q 408 -235 440 -219 q 289 -258 376 -251 l 300 -314 "},"Ṛ":{"ha":790,"x_min":125,"x_max":756,"o":"m 125 0 l 240 0 l 240 385 l 406 385 l 625 0 l 756 0 l 524 397 q 674 485 618 421 q 729 656 729 549 q 706 775 729 726 q 640 854 682 824 q 538 898 597 885 q 410 911 479 911 l 125 911 l 125 0 m 240 479 l 240 818 l 393 818 q 557 782 500 818 q 614 656 614 746 q 557 523 614 567 q 393 479 500 479 l 240 479 m 421 -285 q 474 -264 453 -285 q 496 -210 496 -243 q 474 -156 496 -178 q 421 -135 453 -135 q 367 -156 389 -135 q 346 -210 346 -178 q 367 -264 346 -243 q 421 -285 389 -285 "},"Ṝ":{"ha":790,"x_min":125,"x_max":756,"o":"m 125 0 l 240 0 l 240 385 l 406 385 l 625 0 l 756 0 l 524 397 q 674 485 618 421 q 729 656 729 549 q 706 775 729 726 q 640 854 682 824 q 538 898 597 885 q 410 911 479 911 l 125 911 l 125 0 m 240 479 l 240 818 l 393 818 q 557 782 500 818 q 614 656 614 746 q 557 523 614 567 q 393 479 500 479 l 240 479 m 214 1021 l 586 1021 l 586 1100 l 214 1100 l 214 1021 m 421 -285 q 474 -264 453 -285 q 496 -210 496 -243 q 474 -156 496 -178 q 421 -135 453 -135 q 367 -156 389 -135 q 346 -210 346 -178 q 367 -264 346 -243 q 421 -285 389 -285 "},"Ṟ":{"ha":790,"x_min":125,"x_max":756,"o":"m 125 0 l 240 0 l 240 385 l 406 385 l 625 0 l 756 0 l 524 397 q 674 485 618 421 q 729 656 729 549 q 706 775 729 726 q 640 854 682 824 q 538 898 597 885 q 410 911 479 911 l 125 911 l 125 0 m 240 479 l 240 818 l 393 818 q 557 782 500 818 q 614 656 614 746 q 557 523 614 567 q 393 479 500 479 l 240 479 m 236 -235 l 606 -235 l 606 -156 l 236 -156 l 236 -235 "},"Ś":{"ha":742,"x_min":58,"x_max":688,"o":"m 378 -17 q 507 3 450 -17 q 604 59 564 24 q 666 142 644 94 q 688 243 688 189 q 673 331 688 293 q 633 398 658 369 q 574 448 608 426 q 500 486 539 469 l 371 542 q 317 566 343 553 q 268 597 290 579 q 233 637 246 614 q 219 693 219 660 q 266 791 219 756 q 389 826 313 826 q 503 803 453 826 q 596 740 554 781 l 658 815 q 540 897 610 865 q 389 928 471 928 q 274 910 326 928 q 184 859 222 892 q 124 782 146 826 q 103 686 103 738 q 119 598 103 636 q 163 532 136 560 q 222 485 189 504 q 288 451 256 465 l 418 394 q 478 365 450 379 q 526 334 506 351 q 558 292 546 317 q 569 233 569 268 q 519 126 569 167 q 379 85 469 85 q 242 116 308 85 q 128 199 176 147 l 58 118 q 200 19 118 56 q 378 -17 282 -17 m 364 968 l 575 1128 l 510 1204 l 313 1026 l 364 968 "},"Ŝ":{"ha":742,"x_min":58,"x_max":688,"o":"m 378 -17 q 507 3 450 -17 q 604 59 564 24 q 666 142 644 94 q 688 243 688 189 q 673 331 688 293 q 633 398 658 369 q 574 448 608 426 q 500 486 539 469 l 371 542 q 317 566 343 553 q 268 597 290 579 q 233 637 246 614 q 219 693 219 660 q 266 791 219 756 q 389 826 313 826 q 503 803 453 826 q 596 740 554 781 l 658 815 q 540 897 610 865 q 389 928 471 928 q 274 910 326 928 q 184 859 222 892 q 124 782 146 826 q 103 686 103 738 q 119 598 103 636 q 163 532 136 560 q 222 485 189 504 q 288 451 256 465 l 418 394 q 478 365 450 379 q 526 334 506 351 q 558 292 546 317 q 569 233 569 268 q 519 126 569 167 q 379 85 469 85 q 242 116 308 85 q 128 199 176 147 l 58 118 q 200 19 118 56 q 378 -17 282 -17 m 182 1007 l 232 971 l 385 1100 l 390 1100 l 543 971 l 593 1007 l 447 1164 l 328 1164 l 182 1007 "},"Š":{"ha":742,"x_min":58,"x_max":688,"o":"m 378 -17 q 507 3 450 -17 q 604 59 564 24 q 666 142 644 94 q 688 243 688 189 q 673 331 688 293 q 633 398 658 369 q 574 448 608 426 q 500 486 539 469 l 371 542 q 317 566 343 553 q 268 597 290 579 q 233 637 246 614 q 219 693 219 660 q 266 791 219 756 q 389 826 313 826 q 503 803 453 826 q 596 740 554 781 l 658 815 q 540 897 610 865 q 389 928 471 928 q 274 910 326 928 q 184 859 222 892 q 124 782 146 826 q 103 686 103 738 q 119 598 103 636 q 163 532 136 560 q 222 485 189 504 q 288 451 256 465 l 418 394 q 478 365 450 379 q 526 334 506 351 q 558 292 546 317 q 569 233 569 268 q 519 126 569 167 q 379 85 469 85 q 242 116 308 85 q 128 199 176 147 l 58 118 q 200 19 118 56 q 378 -17 282 -17 m 328 981 l 447 981 l 593 1138 l 543 1174 l 390 1046 l 385 1046 l 232 1174 l 182 1138 l 328 981 "},"Ş":{"ha":742,"x_min":58,"x_max":688,"o":"m 378 -17 q 507 3 450 -17 q 604 59 564 24 q 666 142 644 94 q 688 243 688 189 q 673 331 688 293 q 633 398 658 369 q 574 448 608 426 q 500 486 539 469 l 371 542 q 317 566 343 553 q 268 597 290 579 q 233 637 246 614 q 219 693 219 660 q 266 791 219 756 q 389 826 313 826 q 503 803 453 826 q 596 740 554 781 l 658 815 q 540 897 610 865 q 389 928 471 928 q 274 910 326 928 q 184 859 222 892 q 124 782 146 826 q 103 686 103 738 q 119 598 103 636 q 163 532 136 560 q 222 485 189 504 q 288 451 256 465 l 418 394 q 478 365 450 379 q 526 334 506 351 q 558 292 546 317 q 569 233 569 268 q 519 126 569 167 q 379 85 469 85 q 242 116 308 85 q 128 199 176 147 l 58 118 q 200 19 118 56 q 378 -17 282 -17 m 258 -314 q 428 -278 369 -308 q 488 -187 488 -249 q 461 -122 488 -144 q 386 -89 435 -100 l 426 4 l 353 4 l 292 -122 q 375 -146 351 -131 q 399 -189 399 -161 q 367 -235 399 -219 q 247 -258 335 -251 l 258 -314 "},"Ș":{"ha":742,"x_min":58,"x_max":688,"o":"m 378 -17 q 507 3 450 -17 q 604 59 564 24 q 666 142 644 94 q 688 243 688 189 q 673 331 688 293 q 633 398 658 369 q 574 448 608 426 q 500 486 539 469 l 371 542 q 317 566 343 553 q 268 597 290 579 q 233 637 246 614 q 219 693 219 660 q 266 791 219 756 q 389 826 313 826 q 503 803 453 826 q 596 740 554 781 l 658 815 q 540 897 610 865 q 389 928 471 928 q 274 910 326 928 q 184 859 222 892 q 124 782 146 826 q 103 686 103 738 q 119 598 103 636 q 163 532 136 560 q 222 485 189 504 q 288 451 256 465 l 418 394 q 478 365 450 379 q 526 334 506 351 q 558 292 546 317 q 569 233 569 268 q 519 126 569 167 q 379 85 469 85 q 242 116 308 85 q 128 199 176 147 l 58 118 q 200 19 118 56 q 378 -17 282 -17 m 258 -314 q 428 -278 369 -308 q 488 -187 488 -249 q 451 -116 488 -140 q 325 -81 415 -92 l 300 -133 q 374 -151 349 -137 q 399 -192 399 -164 q 367 -235 399 -219 q 247 -258 335 -251 l 258 -314 "},"Ṡ":{"ha":742,"x_min":58,"x_max":688,"o":"m 378 -17 q 507 3 450 -17 q 604 59 564 24 q 666 142 644 94 q 688 243 688 189 q 673 331 688 293 q 633 398 658 369 q 574 448 608 426 q 500 486 539 469 l 371 542 q 317 566 343 553 q 268 597 290 579 q 233 637 246 614 q 219 693 219 660 q 266 791 219 756 q 389 826 313 826 q 503 803 453 826 q 596 740 554 781 l 658 815 q 540 897 610 865 q 389 928 471 928 q 274 910 326 928 q 184 859 222 892 q 124 782 146 826 q 103 686 103 738 q 119 598 103 636 q 163 532 136 560 q 222 485 189 504 q 288 451 256 465 l 418 394 q 478 365 450 379 q 526 334 506 351 q 558 292 546 317 q 569 233 569 268 q 519 126 569 167 q 379 85 469 85 q 242 116 308 85 q 128 199 176 147 l 58 118 q 200 19 118 56 q 378 -17 282 -17 m 388 992 q 444 1013 421 992 q 467 1067 467 1033 q 444 1119 467 1099 q 388 1140 421 1140 q 331 1119 354 1140 q 308 1067 308 1099 q 331 1013 308 1033 q 388 992 354 992 "},"Ṣ":{"ha":742,"x_min":58,"x_max":688,"o":"m 378 -17 q 507 3 450 -17 q 604 59 564 24 q 666 142 644 94 q 688 243 688 189 q 673 331 688 293 q 633 398 658 369 q 574 448 608 426 q 500 486 539 469 l 371 542 q 317 566 343 553 q 268 597 290 579 q 233 637 246 614 q 219 693 219 660 q 266 791 219 756 q 389 826 313 826 q 503 803 453 826 q 596 740 554 781 l 658 815 q 540 897 610 865 q 389 928 471 928 q 274 910 326 928 q 184 859 222 892 q 124 782 146 826 q 103 686 103 738 q 119 598 103 636 q 163 532 136 560 q 222 485 189 504 q 288 451 256 465 l 418 394 q 478 365 450 379 q 526 334 506 351 q 558 292 546 317 q 569 233 569 268 q 519 126 569 167 q 379 85 469 85 q 242 116 308 85 q 128 199 176 147 l 58 118 q 200 19 118 56 q 378 -17 282 -17 m 379 -285 q 433 -264 411 -285 q 454 -210 454 -243 q 433 -156 454 -178 q 379 -135 411 -135 q 326 -156 347 -135 q 304 -210 304 -178 q 326 -264 304 -243 q 379 -285 347 -285 "},"ẞ":{"ha":926,"x_min":126,"x_max":867,"o":"m 603 -17 q 711 3 663 -17 q 794 56 760 22 q 848 137 829 90 q 867 238 867 183 q 802 406 867 338 q 592 503 738 474 l 783 714 q 672 869 746 811 q 482 928 599 928 q 219 835 313 928 q 126 579 126 743 l 126 0 l 243 0 l 243 558 q 305 766 243 700 q 478 832 367 832 q 594 799 549 832 q 663 718 639 765 l 472 506 l 479 431 q 610 397 558 417 q 693 353 663 378 q 735 299 724 328 q 747 238 747 269 q 707 124 747 168 q 593 81 667 81 q 500 100 542 81 q 418 164 458 119 l 351 89 q 458 13 394 42 q 603 -17 522 -17 "},"Ť":{"ha":744,"x_min":39,"x_max":706,"o":"m 314 0 l 431 0 l 431 814 l 706 814 l 706 911 l 39 911 l 39 814 l 314 814 l 314 0 m 311 981 l 431 981 l 576 1138 l 526 1174 l 374 1046 l 368 1046 l 215 1174 l 165 1138 l 311 981 "},"Ţ":{"ha":744,"x_min":39,"x_max":706,"o":"m 314 0 l 431 0 l 431 814 l 706 814 l 706 911 l 39 911 l 39 814 l 314 814 l 314 0 m 246 -314 q 416 -278 357 -308 q 475 -187 475 -249 q 449 -122 475 -144 q 374 -89 422 -100 l 414 4 l 340 4 l 279 -122 q 363 -146 339 -131 q 386 -189 386 -161 q 354 -235 386 -219 q 235 -258 322 -251 l 246 -314 "},"Ț":{"ha":744,"x_min":39,"x_max":706,"o":"m 314 0 l 431 0 l 431 814 l 706 814 l 706 911 l 39 911 l 39 814 l 314 814 l 314 0 m 253 -314 q 423 -278 364 -308 q 482 -187 482 -249 q 446 -116 482 -140 q 319 -81 410 -92 l 294 -133 q 368 -151 343 -137 q 393 -192 393 -164 q 361 -235 393 -219 q 242 -258 329 -251 l 253 -314 "},"Ṭ":{"ha":744,"x_min":39,"x_max":706,"o":"m 314 0 l 431 0 l 431 814 l 706 814 l 706 911 l 39 911 l 39 814 l 314 814 l 314 0 m 374 -285 q 427 -264 406 -285 q 449 -210 449 -243 q 427 -156 449 -178 q 374 -135 406 -135 q 320 -156 342 -135 q 299 -210 299 -178 q 320 -264 299 -243 q 374 -285 342 -285 "},"Ṯ":{"ha":744,"x_min":39,"x_max":706,"o":"m 314 0 l 431 0 l 431 814 l 706 814 l 706 911 l 39 911 l 39 814 l 314 814 l 314 0 m 189 -235 l 558 -235 l 558 -156 l 189 -156 l 189 -235 "},"Ŧ":{"ha":744,"x_min":39,"x_max":706,"o":"m 314 0 l 431 0 l 431 435 l 601 435 l 601 500 l 431 500 l 431 814 l 706 814 l 706 911 l 39 911 l 39 814 l 314 814 l 314 500 l 265 500 l 143 496 l 143 435 l 314 435 l 314 0 "},"Ù":{"ha":896,"x_min":121,"x_max":775,"o":"m 449 -17 q 578 3 518 -17 q 681 70 638 24 q 750 192 725 117 q 775 376 775 267 l 775 911 l 664 911 l 664 374 q 647 236 664 292 q 601 147 631 181 q 533 99 572 114 q 449 85 494 85 q 365 99 404 85 q 298 147 326 114 q 253 236 269 181 q 236 374 236 292 l 236 911 l 121 911 l 121 376 q 146 192 121 267 q 215 70 171 117 q 319 3 258 24 q 449 -17 379 -17 m 471 968 l 522 1026 l 325 1204 l 260 1128 l 471 968 "},"Ú":{"ha":896,"x_min":121,"x_max":775,"o":"m 449 -17 q 578 3 518 -17 q 681 70 638 24 q 750 192 725 117 q 775 376 775 267 l 775 911 l 664 911 l 664 374 q 647 236 664 292 q 601 147 631 181 q 533 99 572 114 q 449 85 494 85 q 365 99 404 85 q 298 147 326 114 q 253 236 269 181 q 236 374 236 292 l 236 911 l 121 911 l 121 376 q 146 192 121 267 q 215 70 171 117 q 319 3 258 24 q 449 -17 379 -17 m 424 968 l 635 1128 l 569 1204 l 372 1026 l 424 968 "},"Û":{"ha":896,"x_min":121,"x_max":775,"o":"m 449 -17 q 578 3 518 -17 q 681 70 638 24 q 750 192 725 117 q 775 376 775 267 l 775 911 l 664 911 l 664 374 q 647 236 664 292 q 601 147 631 181 q 533 99 572 114 q 449 85 494 85 q 365 99 404 85 q 298 147 326 114 q 253 236 269 181 q 236 374 236 292 l 236 911 l 121 911 l 121 376 q 146 192 121 267 q 215 70 171 117 q 319 3 258 24 q 449 -17 379 -17 m 242 1007 l 292 971 l 444 1100 l 450 1100 l 603 971 l 653 1007 l 507 1164 l 388 1164 l 242 1007 "},"Ũ":{"ha":896,"x_min":121,"x_max":775,"o":"m 449 -17 q 578 3 518 -17 q 681 70 638 24 q 750 192 725 117 q 775 376 775 267 l 775 911 l 664 911 l 664 374 q 647 236 664 292 q 601 147 631 181 q 533 99 572 114 q 449 85 494 85 q 365 99 404 85 q 298 147 326 114 q 253 236 269 181 q 236 374 236 292 l 236 911 l 121 911 l 121 376 q 146 192 121 267 q 215 70 171 117 q 319 3 258 24 q 449 -17 379 -17 m 551 985 q 651 1030 614 985 q 693 1156 689 1075 l 615 1161 q 549 1069 604 1069 q 503 1085 524 1069 q 460 1119 483 1100 q 410 1153 438 1138 q 343 1168 382 1168 q 243 1122 281 1168 q 201 997 206 1076 l 279 992 q 301 1060 283 1036 q 346 1083 319 1083 q 391 1068 371 1083 q 434 1034 411 1053 q 485 1000 457 1015 q 551 985 513 985 "},"Ü":{"ha":896,"x_min":121,"x_max":775,"o":"m 449 -17 q 578 3 518 -17 q 681 70 638 24 q 750 192 725 117 q 775 376 775 267 l 775 911 l 664 911 l 664 374 q 647 236 664 292 q 601 147 631 181 q 533 99 572 114 q 449 85 494 85 q 365 99 404 85 q 298 147 326 114 q 253 236 269 181 q 236 374 236 292 l 236 911 l 121 911 l 121 376 q 146 192 121 267 q 215 70 171 117 q 319 3 258 24 q 449 -17 379 -17 m 304 993 q 353 1013 335 993 q 372 1061 372 1032 q 353 1110 372 1092 q 304 1129 335 1129 q 256 1110 275 1129 q 236 1061 236 1092 q 256 1013 236 1032 q 304 993 275 993 m 590 993 q 639 1013 619 993 q 658 1061 658 1032 q 639 1110 658 1092 q 590 1129 619 1129 q 541 1110 560 1129 q 522 1061 522 1092 q 541 1013 522 1032 q 590 993 560 993 "},"Ū":{"ha":896,"x_min":121,"x_max":775,"o":"m 449 -17 q 578 3 518 -17 q 681 70 638 24 q 750 192 725 117 q 775 376 775 267 l 775 911 l 664 911 l 664 374 q 647 236 664 292 q 601 147 631 181 q 533 99 572 114 q 449 85 494 85 q 365 99 404 85 q 298 147 326 114 q 253 236 269 181 q 236 374 236 292 l 236 911 l 121 911 l 121 376 q 146 192 121 267 q 215 70 171 117 q 319 3 258 24 q 449 -17 379 -17 m 261 1021 l 633 1021 l 633 1100 l 261 1100 l 261 1021 "},"Ŭ":{"ha":896,"x_min":121,"x_max":775,"o":"m 449 -17 q 578 3 518 -17 q 681 70 638 24 q 750 192 725 117 q 775 376 775 267 l 775 911 l 664 911 l 664 374 q 647 236 664 292 q 601 147 631 181 q 533 99 572 114 q 449 85 494 85 q 365 99 404 85 q 298 147 326 114 q 253 236 269 181 q 236 374 236 292 l 236 911 l 121 911 l 121 376 q 146 192 121 267 q 215 70 171 117 q 319 3 258 24 q 449 -17 379 -17 m 447 979 q 532 994 496 979 q 593 1033 568 1008 q 632 1090 618 1057 q 650 1158 646 1122 l 581 1169 q 540 1087 572 1121 q 447 1053 507 1053 q 355 1087 388 1053 q 314 1169 322 1121 l 244 1158 q 263 1090 249 1122 q 301 1033 276 1057 q 363 994 326 1008 q 447 979 399 979 "},"Ů":{"ha":896,"x_min":121,"x_max":775,"o":"m 449 -17 q 578 3 518 -17 q 681 70 638 24 q 750 192 725 117 q 775 376 775 267 l 775 911 l 664 911 l 664 374 q 647 236 664 292 q 601 147 631 181 q 533 99 572 114 q 449 85 494 85 q 365 99 404 85 q 298 147 326 114 q 253 236 269 181 q 236 374 236 292 l 236 911 l 121 911 l 121 376 q 146 192 121 267 q 215 70 171 117 q 319 3 258 24 q 449 -17 379 -17 m 447 971 q 544 1005 506 971 q 582 1096 582 1039 q 544 1188 582 1154 q 447 1222 506 1222 q 351 1188 389 1222 q 313 1096 313 1154 q 351 1005 313 1039 q 447 971 389 971 m 447 1021 q 396 1040 417 1021 q 375 1096 375 1060 q 396 1151 375 1132 q 447 1171 417 1171 q 497 1151 475 1171 q 518 1096 518 1132 q 497 1040 518 1060 q 447 1021 475 1021 "},"Ű":{"ha":896,"x_min":121,"x_max":775,"o":"m 449 -17 q 578 3 518 -17 q 681 70 638 24 q 750 192 725 117 q 775 376 775 267 l 775 911 l 664 911 l 664 374 q 647 236 664 292 q 601 147 631 181 q 533 99 572 114 q 449 85 494 85 q 365 99 404 85 q 298 147 326 114 q 253 236 269 181 q 236 374 236 292 l 236 911 l 121 911 l 121 376 q 146 192 121 267 q 215 70 171 117 q 319 3 258 24 q 449 -17 379 -17 m 306 1006 l 365 976 l 511 1172 l 433 1217 l 306 1006 m 528 1006 l 588 976 l 733 1172 l 656 1217 l 528 1006 "},"Ǔ":{"ha":896,"x_min":121,"x_max":775,"o":"m 449 -17 q 578 3 518 -17 q 681 70 638 24 q 750 192 725 117 q 775 376 775 267 l 775 911 l 664 911 l 664 374 q 647 236 664 292 q 601 147 631 181 q 533 99 572 114 q 449 85 494 85 q 365 99 404 85 q 298 147 326 114 q 253 236 269 181 q 236 374 236 292 l 236 911 l 121 911 l 121 376 q 146 192 121 267 q 215 70 171 117 q 319 3 258 24 q 449 -17 379 -17 m 388 981 l 507 981 l 653 1138 l 603 1174 l 450 1046 l 444 1046 l 292 1174 l 242 1138 l 388 981 "},"Ǖ":{"ha":896,"x_min":121,"x_max":775,"o":"m 449 -17 q 578 3 518 -17 q 681 70 638 24 q 750 192 725 117 q 775 376 775 267 l 775 911 l 664 911 l 664 374 q 647 236 664 292 q 601 147 631 181 q 533 99 572 114 q 449 85 494 85 q 365 99 404 85 q 298 147 326 114 q 253 236 269 181 q 236 374 236 292 l 236 911 l 121 911 l 121 376 q 146 192 121 267 q 215 70 171 117 q 319 3 258 24 q 449 -17 379 -17 m 304 993 q 350 1011 332 993 q 368 1057 368 1029 q 350 1102 368 1085 q 304 1119 332 1119 q 259 1102 276 1119 q 242 1057 242 1085 q 259 1011 242 1029 q 304 993 276 993 m 261 1196 l 633 1196 l 633 1260 l 261 1260 l 261 1196 m 590 993 q 635 1011 618 993 q 653 1057 653 1029 q 635 1102 653 1085 q 590 1119 618 1119 q 544 1102 563 1119 q 526 1057 526 1085 q 544 1011 526 1029 q 590 993 563 993 "},"Ǘ":{"ha":896,"x_min":121,"x_max":775,"o":"m 449 -17 q 578 3 518 -17 q 681 70 638 24 q 750 192 725 117 q 775 376 775 267 l 775 911 l 664 911 l 664 374 q 647 236 664 292 q 601 147 631 181 q 533 99 572 114 q 449 85 494 85 q 365 99 404 85 q 298 147 326 114 q 253 236 269 181 q 236 374 236 292 l 236 911 l 121 911 l 121 376 q 146 192 121 267 q 215 70 171 117 q 319 3 258 24 q 449 -17 379 -17 m 304 993 q 350 1011 332 993 q 368 1057 368 1029 q 350 1102 368 1085 q 304 1119 332 1119 q 259 1102 276 1119 q 242 1057 242 1085 q 259 1011 242 1029 q 304 993 276 993 m 394 1179 l 446 1143 l 600 1294 l 526 1344 l 394 1179 m 590 993 q 635 1011 618 993 q 653 1057 653 1029 q 635 1102 653 1085 q 590 1119 618 1119 q 544 1102 563 1119 q 526 1057 526 1085 q 544 1011 526 1029 q 590 993 563 993 "},"Ǚ":{"ha":896,"x_min":121,"x_max":775,"o":"m 449 -17 q 578 3 518 -17 q 681 70 638 24 q 750 192 725 117 q 775 376 775 267 l 775 911 l 664 911 l 664 374 q 647 236 664 292 q 601 147 631 181 q 533 99 572 114 q 449 85 494 85 q 365 99 404 85 q 298 147 326 114 q 253 236 269 181 q 236 374 236 292 l 236 911 l 121 911 l 121 376 q 146 192 121 267 q 215 70 171 117 q 319 3 258 24 q 449 -17 379 -17 m 397 1165 l 497 1165 l 635 1299 l 589 1336 l 450 1232 l 444 1232 l 306 1336 l 260 1299 l 397 1165 m 304 993 q 350 1011 332 993 q 368 1057 368 1029 q 350 1102 368 1085 q 304 1119 332 1119 q 259 1102 276 1119 q 242 1057 242 1085 q 259 1011 242 1029 q 304 993 276 993 m 590 993 q 635 1011 618 993 q 653 1057 653 1029 q 635 1102 653 1085 q 590 1119 618 1119 q 544 1102 563 1119 q 526 1057 526 1085 q 544 1011 526 1029 q 590 993 563 993 "},"Ǜ":{"ha":896,"x_min":121,"x_max":775,"o":"m 449 -17 q 578 3 518 -17 q 681 70 638 24 q 750 192 725 117 q 775 376 775 267 l 775 911 l 664 911 l 664 374 q 647 236 664 292 q 601 147 631 181 q 533 99 572 114 q 449 85 494 85 q 365 99 404 85 q 298 147 326 114 q 253 236 269 181 q 236 374 236 292 l 236 911 l 121 911 l 121 376 q 146 192 121 267 q 215 70 171 117 q 319 3 258 24 q 449 -17 379 -17 m 500 1179 l 368 1344 l 294 1294 l 449 1143 l 500 1179 m 304 993 q 350 1011 332 993 q 368 1057 368 1029 q 350 1102 368 1085 q 304 1119 332 1119 q 259 1102 276 1119 q 242 1057 242 1085 q 259 1011 242 1029 q 304 993 276 993 m 590 993 q 635 1011 618 993 q 653 1057 653 1029 q 635 1102 653 1085 q 590 1119 618 1119 q 544 1102 563 1119 q 526 1057 526 1085 q 544 1011 526 1029 q 590 993 563 993 "},"Ụ":{"ha":896,"x_min":121,"x_max":775,"o":"m 449 -17 q 578 3 518 -17 q 681 70 638 24 q 750 192 725 117 q 775 376 775 267 l 775 911 l 664 911 l 664 374 q 647 236 664 292 q 601 147 631 181 q 533 99 572 114 q 449 85 494 85 q 365 99 404 85 q 298 147 326 114 q 253 236 269 181 q 236 374 236 292 l 236 911 l 121 911 l 121 376 q 146 192 121 267 q 215 70 171 117 q 319 3 258 24 q 449 -17 379 -17 m 447 -285 q 501 -264 479 -285 q 522 -210 522 -243 q 501 -156 522 -178 q 447 -135 479 -135 q 394 -156 415 -135 q 372 -210 372 -178 q 394 -264 372 -243 q 447 -285 415 -285 "},"Ủ":{"ha":896,"x_min":121,"x_max":775,"o":"m 449 -17 q 578 3 518 -17 q 681 70 638 24 q 750 192 725 117 q 775 376 775 267 l 775 911 l 664 911 l 664 374 q 647 236 664 292 q 601 147 631 181 q 533 99 572 114 q 449 85 494 85 q 365 99 404 85 q 298 147 326 114 q 253 236 269 181 q 236 374 236 292 l 236 911 l 121 911 l 121 376 q 146 192 121 267 q 215 70 171 117 q 319 3 258 24 q 449 -17 379 -17 m 403 969 q 461 984 433 975 q 510 1009 489 993 q 544 1047 532 1025 q 557 1099 557 1068 q 507 1180 557 1151 q 365 1211 457 1208 l 353 1144 q 468 1086 468 1140 q 446 1046 468 1060 q 390 1022 424 1032 l 403 969 "},"Ų":{"ha":896,"x_min":121,"x_max":775,"o":"m 486 -294 q 546 -283 514 -294 q 597 -256 578 -271 l 565 -193 q 510 -212 539 -212 q 464 -197 485 -212 q 443 -149 443 -181 q 471 -75 443 -114 q 553 -10 499 -36 q 644 42 603 14 q 714 115 685 71 q 759 222 743 158 q 775 376 775 285 l 775 911 l 664 911 l 664 374 q 647 236 664 292 q 601 147 631 181 q 533 99 572 114 q 449 85 494 85 q 365 99 404 85 q 298 147 326 114 q 253 236 269 181 q 236 374 236 292 l 236 911 l 121 911 l 121 376 q 144 197 121 271 q 210 77 168 124 q 312 8 253 31 q 442 -15 371 -14 q 413 -44 429 -28 q 384 -79 397 -60 q 362 -122 371 -99 q 353 -174 353 -144 q 392 -264 353 -233 q 486 -294 431 -294 "},"Ư":{"ha":915,"x_min":121,"x_max":936,"o":"m 449 -17 q 578 3 518 -17 q 681 70 638 24 q 750 192 725 117 q 775 376 775 267 l 775 861 q 838 882 808 869 q 890 915 868 894 q 924 965 911 936 q 936 1035 936 994 q 928 1094 936 1067 q 904 1146 919 1122 l 814 1107 q 829 1069 824 1090 q 835 1026 835 1047 q 801 943 835 968 q 710 911 768 918 l 664 911 l 664 374 q 647 236 664 292 q 601 147 631 181 q 533 99 572 114 q 449 85 494 85 q 365 99 404 85 q 298 147 326 114 q 253 236 269 181 q 236 374 236 292 l 236 911 l 121 911 l 121 376 q 146 192 121 267 q 215 70 171 117 q 319 3 258 24 q 449 -17 379 -17 "},"Ứ":{"ha":915,"x_min":121,"x_max":936,"o":"m 449 -17 q 578 3 518 -17 q 681 70 638 24 q 750 192 725 117 q 775 376 775 267 l 775 861 q 838 882 808 869 q 890 915 868 894 q 924 965 911 936 q 936 1035 936 994 q 928 1094 936 1067 q 904 1146 919 1122 l 814 1107 q 829 1069 824 1090 q 835 1026 835 1047 q 801 943 835 968 q 710 911 768 918 l 664 911 l 664 374 q 647 236 664 292 q 601 147 631 181 q 533 99 572 114 q 449 85 494 85 q 365 99 404 85 q 298 147 326 114 q 253 236 269 181 q 236 374 236 292 l 236 911 l 121 911 l 121 376 q 146 192 121 267 q 215 70 171 117 q 319 3 258 24 q 449 -17 379 -17 m 424 968 l 635 1128 l 569 1204 l 372 1026 l 424 968 "},"Ừ":{"ha":915,"x_min":121,"x_max":936,"o":"m 449 -17 q 578 3 518 -17 q 681 70 638 24 q 750 192 725 117 q 775 376 775 267 l 775 861 q 838 882 808 869 q 890 915 868 894 q 924 965 911 936 q 936 1035 936 994 q 928 1094 936 1067 q 904 1146 919 1122 l 814 1107 q 829 1069 824 1090 q 835 1026 835 1047 q 801 943 835 968 q 710 911 768 918 l 664 911 l 664 374 q 647 236 664 292 q 601 147 631 181 q 533 99 572 114 q 449 85 494 85 q 365 99 404 85 q 298 147 326 114 q 253 236 269 181 q 236 374 236 292 l 236 911 l 121 911 l 121 376 q 146 192 121 267 q 215 70 171 117 q 319 3 258 24 q 449 -17 379 -17 m 471 968 l 522 1026 l 325 1204 l 260 1128 l 471 968 "},"Ử":{"ha":915,"x_min":121,"x_max":936,"o":"m 449 -17 q 578 3 518 -17 q 681 70 638 24 q 750 192 725 117 q 775 376 775 267 l 775 861 q 838 882 808 869 q 890 915 868 894 q 924 965 911 936 q 936 1035 936 994 q 928 1094 936 1067 q 904 1146 919 1122 l 814 1107 q 829 1069 824 1090 q 835 1026 835 1047 q 801 943 835 968 q 710 911 768 918 l 664 911 l 664 374 q 647 236 664 292 q 601 147 631 181 q 533 99 572 114 q 449 85 494 85 q 365 99 404 85 q 298 147 326 114 q 253 236 269 181 q 236 374 236 292 l 236 911 l 121 911 l 121 376 q 146 192 121 267 q 215 70 171 117 q 319 3 258 24 q 449 -17 379 -17 m 403 969 q 461 984 433 975 q 510 1009 489 993 q 544 1047 532 1025 q 557 1099 557 1068 q 507 1180 557 1151 q 365 1211 457 1208 l 353 1144 q 468 1086 468 1140 q 446 1046 468 1060 q 390 1022 424 1032 l 403 969 "},"Ữ":{"ha":915,"x_min":121,"x_max":936,"o":"m 449 -17 q 578 3 518 -17 q 681 70 638 24 q 750 192 725 117 q 775 376 775 267 l 775 861 q 838 882 808 869 q 890 915 868 894 q 924 965 911 936 q 936 1035 936 994 q 928 1094 936 1067 q 904 1146 919 1122 l 814 1107 q 829 1069 824 1090 q 835 1026 835 1047 q 801 943 835 968 q 710 911 768 918 l 664 911 l 664 374 q 647 236 664 292 q 601 147 631 181 q 533 99 572 114 q 449 85 494 85 q 365 99 404 85 q 298 147 326 114 q 253 236 269 181 q 236 374 236 292 l 236 911 l 121 911 l 121 376 q 146 192 121 267 q 215 70 171 117 q 319 3 258 24 q 449 -17 379 -17 m 551 985 q 651 1030 614 985 q 693 1156 689 1075 l 615 1161 q 549 1069 604 1069 q 503 1085 524 1069 q 460 1119 483 1100 q 410 1153 438 1138 q 343 1168 382 1168 q 243 1122 281 1168 q 201 997 206 1076 l 279 992 q 301 1060 283 1036 q 346 1083 319 1083 q 391 1068 371 1083 q 434 1034 411 1053 q 485 1000 457 1015 q 551 985 513 985 "},"Ự":{"ha":915,"x_min":121,"x_max":936,"o":"m 449 -17 q 578 3 518 -17 q 681 70 638 24 q 750 192 725 117 q 775 376 775 267 l 775 861 q 838 882 808 869 q 890 915 868 894 q 924 965 911 936 q 936 1035 936 994 q 928 1094 936 1067 q 904 1146 919 1122 l 814 1107 q 829 1069 824 1090 q 835 1026 835 1047 q 801 943 835 968 q 710 911 768 918 l 664 911 l 664 374 q 647 236 664 292 q 601 147 631 181 q 533 99 572 114 q 449 85 494 85 q 365 99 404 85 q 298 147 326 114 q 253 236 269 181 q 236 374 236 292 l 236 911 l 121 911 l 121 376 q 146 192 121 267 q 215 70 171 117 q 319 3 258 24 q 449 -17 379 -17 m 447 -285 q 501 -264 479 -285 q 522 -210 522 -243 q 501 -156 522 -178 q 447 -135 479 -135 q 394 -156 415 -135 q 372 -210 372 -178 q 394 -264 372 -243 q 447 -285 415 -285 "},"Ẁ":{"ha":1092,"x_min":32,"x_max":1058,"o":"m 225 0 l 363 0 l 497 549 q 520 652 508 601 q 543 756 532 703 l 549 756 q 570 652 560 703 q 593 549 581 601 l 731 0 l 869 0 l 1058 911 l 947 911 l 851 415 q 825 269 838 342 q 800 121 813 196 l 794 121 q 761 269 778 196 q 728 415 744 343 l 601 911 l 496 911 l 369 415 q 338 269 354 342 q 306 121 321 196 l 300 121 q 274 268 288 196 q 247 415 260 340 l 151 911 l 32 911 l 225 0 m 569 968 l 621 1026 l 424 1204 l 358 1128 l 569 968 "},"Ẃ":{"ha":1092,"x_min":32,"x_max":1058,"o":"m 225 0 l 363 0 l 497 549 q 520 652 508 601 q 543 756 532 703 l 549 756 q 570 652 560 703 q 593 549 581 601 l 731 0 l 869 0 l 1058 911 l 947 911 l 851 415 q 825 269 838 342 q 800 121 813 196 l 794 121 q 761 269 778 196 q 728 415 744 343 l 601 911 l 496 911 l 369 415 q 338 269 354 342 q 306 121 321 196 l 300 121 q 274 268 288 196 q 247 415 260 340 l 151 911 l 32 911 l 225 0 m 522 968 l 733 1128 l 668 1204 l 471 1026 l 522 968 "},"Ŵ":{"ha":1092,"x_min":32,"x_max":1058,"o":"m 225 0 l 363 0 l 497 549 q 520 652 508 601 q 543 756 532 703 l 549 756 q 570 652 560 703 q 593 549 581 601 l 731 0 l 869 0 l 1058 911 l 947 911 l 851 415 q 825 269 838 342 q 800 121 813 196 l 794 121 q 761 269 778 196 q 728 415 744 343 l 601 911 l 496 911 l 369 415 q 338 269 354 342 q 306 121 321 196 l 300 121 q 274 268 288 196 q 247 415 260 340 l 151 911 l 32 911 l 225 0 m 340 1007 l 390 971 l 543 1100 l 549 1100 l 701 971 l 751 1007 l 606 1164 l 486 1164 l 340 1007 "},"Ẅ":{"ha":1092,"x_min":32,"x_max":1058,"o":"m 225 0 l 363 0 l 497 549 q 520 652 508 601 q 543 756 532 703 l 549 756 q 570 652 560 703 q 593 549 581 601 l 731 0 l 869 0 l 1058 911 l 947 911 l 851 415 q 825 269 838 342 q 800 121 813 196 l 794 121 q 761 269 778 196 q 728 415 744 343 l 601 911 l 496 911 l 369 415 q 338 269 354 342 q 306 121 321 196 l 300 121 q 274 268 288 196 q 247 415 260 340 l 151 911 l 32 911 l 225 0 m 403 993 q 452 1013 433 993 q 471 1061 471 1032 q 452 1110 471 1092 q 403 1129 433 1129 q 354 1110 374 1129 q 335 1061 335 1092 q 354 1013 335 1032 q 403 993 374 993 m 689 993 q 738 1013 718 993 q 757 1061 757 1032 q 738 1110 757 1092 q 689 1129 718 1129 q 640 1110 658 1129 q 621 1061 621 1092 q 640 1013 621 1032 q 689 993 658 993 "},"Ỳ":{"ha":661,"x_min":-1,"x_max":663,"o":"m 272 0 l 389 0 l 389 353 l 663 911 l 542 911 l 425 654 q 381 556 404 604 q 333 456 357 507 l 328 456 q 283 556 304 507 q 240 654 263 604 l 122 911 l -1 911 l 272 353 l 272 0 m 354 968 l 406 1026 l 208 1204 l 143 1128 l 354 968 "},"Ý":{"ha":661,"x_min":-1,"x_max":663,"o":"m 272 0 l 389 0 l 389 353 l 663 911 l 542 911 l 425 654 q 381 556 404 604 q 333 456 357 507 l 328 456 q 283 556 304 507 q 240 654 263 604 l 122 911 l -1 911 l 272 353 l 272 0 m 307 968 l 518 1128 l 453 1204 l 256 1026 l 307 968 "},"Ŷ":{"ha":661,"x_min":-1,"x_max":663,"o":"m 272 0 l 389 0 l 389 353 l 663 911 l 542 911 l 425 654 q 381 556 404 604 q 333 456 357 507 l 328 456 q 283 556 304 507 q 240 654 263 604 l 122 911 l -1 911 l 272 353 l 272 0 m 125 1007 l 175 971 l 328 1100 l 333 1100 l 486 971 l 536 1007 l 390 1164 l 271 1164 l 125 1007 "},"Ÿ":{"ha":661,"x_min":-1,"x_max":663,"o":"m 272 0 l 389 0 l 389 353 l 663 911 l 542 911 l 425 654 q 381 556 404 604 q 333 456 357 507 l 328 456 q 283 556 304 507 q 240 654 263 604 l 122 911 l -1 911 l 272 353 l 272 0 m 188 993 q 237 1013 218 993 q 256 1061 256 1032 q 237 1110 256 1092 q 188 1129 218 1129 q 139 1110 158 1129 q 119 1061 119 1092 q 139 1013 119 1032 q 188 993 158 993 m 474 993 q 522 1013 503 993 q 542 1061 542 1032 q 522 1110 542 1092 q 474 1129 503 1129 q 424 1110 443 1129 q 406 1061 406 1092 q 424 1013 406 1032 q 474 993 443 993 "},"Ẏ":{"ha":661,"x_min":-1,"x_max":663,"o":"m 272 0 l 389 0 l 389 353 l 663 911 l 542 911 l 425 654 q 381 556 404 604 q 333 456 357 507 l 328 456 q 283 556 304 507 q 240 654 263 604 l 122 911 l -1 911 l 272 353 l 272 0 m 331 992 q 387 1013 364 992 q 410 1067 410 1033 q 387 1119 410 1099 q 331 1140 364 1140 q 274 1119 297 1140 q 251 1067 251 1099 q 274 1013 251 1033 q 331 992 297 992 "},"Ỵ":{"ha":661,"x_min":-1,"x_max":663,"o":"m 272 0 l 389 0 l 389 353 l 663 911 l 542 911 l 425 654 q 381 556 404 604 q 333 456 357 507 l 328 456 q 283 556 304 507 q 240 654 263 604 l 122 911 l -1 911 l 272 353 l 272 0 m 333 -285 q 387 -264 365 -285 q 408 -210 408 -243 q 387 -156 408 -178 q 333 -135 365 -135 q 280 -156 301 -135 q 258 -210 258 -178 q 280 -264 258 -243 q 333 -285 301 -285 "},"Ỷ":{"ha":661,"x_min":-1,"x_max":663,"o":"m 272 0 l 389 0 l 389 353 l 663 911 l 542 911 l 425 654 q 381 556 404 604 q 333 456 357 507 l 328 456 q 283 556 304 507 q 240 654 263 604 l 122 911 l -1 911 l 272 353 l 272 0 m 286 969 q 344 984 317 975 q 394 1009 372 993 q 428 1047 415 1025 q 440 1099 440 1068 q 390 1180 440 1151 q 249 1211 340 1208 l 236 1144 q 351 1086 351 1140 q 329 1046 351 1060 q 274 1022 307 1032 l 286 969 "},"Ỹ":{"ha":661,"x_min":-1,"x_max":663,"o":"m 272 0 l 389 0 l 389 353 l 663 911 l 542 911 l 425 654 q 381 556 404 604 q 333 456 357 507 l 328 456 q 283 556 304 507 q 240 654 263 604 l 122 911 l -1 911 l 272 353 l 272 0 m 435 985 q 535 1030 497 985 q 576 1156 572 1075 l 499 1161 q 432 1069 488 1069 q 387 1085 407 1069 q 344 1119 367 1100 q 293 1153 321 1138 q 226 1168 265 1168 q 126 1122 164 1168 q 85 997 89 1076 l 163 992 q 185 1060 167 1036 q 229 1083 203 1083 q 274 1068 254 1083 q 317 1034 294 1053 q 368 1000 340 1015 q 435 985 396 985 "},"Ź":{"ha":749,"x_min":63,"x_max":690,"o":"m 63 0 l 690 0 l 690 99 l 206 99 l 686 843 l 686 911 l 106 911 l 106 814 l 542 814 l 63 69 l 63 0 m 365 968 l 576 1128 l 511 1204 l 314 1026 l 365 968 "},"Ž":{"ha":749,"x_min":63,"x_max":690,"o":"m 63 0 l 690 0 l 690 99 l 206 99 l 686 843 l 686 911 l 106 911 l 106 814 l 542 814 l 63 69 l 63 0 m 329 981 l 449 981 l 594 1138 l 544 1174 l 392 1046 l 386 1046 l 233 1174 l 183 1138 l 329 981 "},"Ż":{"ha":749,"x_min":63,"x_max":690,"o":"m 63 0 l 690 0 l 690 99 l 206 99 l 686 843 l 686 911 l 106 911 l 106 814 l 542 814 l 63 69 l 63 0 m 389 992 q 445 1013 422 992 q 468 1067 468 1033 q 445 1119 468 1099 q 389 1140 422 1140 q 333 1119 356 1140 q 310 1067 310 1099 q 333 1013 310 1033 q 389 992 356 992 "},"Ẓ":{"ha":749,"x_min":63,"x_max":690,"o":"m 63 0 l 690 0 l 690 99 l 206 99 l 686 843 l 686 911 l 106 911 l 106 814 l 542 814 l 63 69 l 63 0 m 390 -285 q 444 -264 422 -285 q 465 -210 465 -243 q 444 -156 465 -178 q 390 -135 422 -135 q 337 -156 358 -135 q 315 -210 315 -178 q 337 -264 315 -243 q 390 -285 358 -285 "},"Ẕ":{"ha":749,"x_min":63,"x_max":690,"o":"m 63 0 l 690 0 l 690 99 l 206 99 l 686 843 l 686 911 l 106 911 l 106 814 l 542 814 l 63 69 l 63 0 m 206 -235 l 575 -235 l 575 -156 l 206 -156 l 206 -235 "},"Ð":{"ha":886,"x_min":46,"x_max":814,"o":"m 46 446 l 156 446 l 156 0 l 389 0 q 571 31 492 0 q 704 122 650 63 q 786 266 758 181 q 814 460 814 351 q 704 794 814 678 q 383 911 594 911 l 156 911 l 156 511 l 46 506 l 46 446 m 271 94 l 271 446 l 478 446 l 478 511 l 271 511 l 271 817 l 375 817 q 615 725 535 817 q 694 460 694 633 q 615 190 694 286 q 375 94 535 94 l 271 94 "},"Þ":{"ha":810,"x_min":125,"x_max":740,"o":"m 125 0 l 240 0 l 240 208 l 404 208 q 541 225 479 208 q 647 276 603 242 q 716 365 692 311 q 740 490 740 418 q 716 616 740 565 q 648 699 692 667 q 542 744 604 731 q 404 758 479 758 l 240 758 l 240 911 l 125 911 l 125 0 m 240 303 l 240 664 l 390 664 q 567 626 508 664 q 625 490 625 589 q 567 347 625 392 q 390 303 510 303 l 240 303 "},"Ə":{"ha":914,"x_min":81,"x_max":842,"o":"m 454 -17 q 615 15 543 -17 q 737 108 686 47 q 815 256 788 168 q 842 458 842 344 q 740 808 842 688 q 460 928 639 928 q 294 898 367 928 q 172 821 221 868 l 229 742 q 326 807 269 782 q 451 832 382 832 q 651 743 582 832 q 728 486 721 654 l 83 486 q 81 467 82 476 q 81 451 81 458 q 106 258 81 344 q 180 110 132 171 q 297 16 228 49 q 454 -17 367 -17 m 454 79 q 274 163 343 79 q 199 397 206 246 l 725 397 q 642 160 714 242 q 454 79 571 79 "},"Ŋ":{"ha":882,"x_min":125,"x_max":810,"o":"m 564 -17 q 665 10 619 -17 q 742 93 710 36 q 792 242 775 150 q 810 465 810 333 q 786 681 810 593 q 720 824 763 769 q 620 903 678 879 q 494 928 563 928 q 354 891 422 928 q 238 799 286 854 l 238 911 l 125 911 l 125 0 l 240 0 l 240 690 q 289 744 261 719 q 347 788 317 769 q 407 816 376 806 q 465 826 438 826 q 557 808 515 826 q 628 749 599 790 q 674 638 658 707 q 690 465 690 568 q 679 285 690 357 q 649 171 668 214 q 606 110 631 128 q 553 93 581 93 q 515 97 531 93 q 483 108 499 101 l 456 4 q 506 -12 475 -7 q 564 -17 536 -17 "},"Ĳ":{"ha":731,"x_min":125,"x_max":606,"o":"m 125 0 l 240 0 l 240 911 l 125 911 l 125 0 m 419 -229 q 563 -169 519 -229 q 606 -4 606 -108 l 606 911 l 490 911 l 490 0 q 474 -98 490 -62 q 406 -133 457 -133 q 372 -129 388 -133 q 342 -121 356 -125 l 319 -212 q 363 -224 338 -219 q 419 -229 388 -229 "},"à":{"ha":700,"x_min":72,"x_max":601,"o":"m 269 -17 q 389 12 333 -17 q 493 81 444 40 l 497 81 l 507 0 l 601 0 l 601 414 q 546 616 601 540 q 367 692 490 692 q 217 663 285 692 q 101 604 149 635 l 146 525 q 238 575 186 553 q 347 597 289 597 q 416 583 389 597 q 458 544 443 568 q 480 490 474 521 q 486 428 486 460 q 171 345 269 404 q 72 175 72 286 q 128 33 72 83 q 269 -17 185 -17 m 303 75 q 218 100 253 75 q 183 183 183 125 q 199 242 183 215 q 251 290 215 269 q 344 326 286 311 q 486 353 401 342 l 486 165 q 394 98 438 121 q 303 75 351 75 m 383 796 l 442 853 l 246 1085 l 165 1008 l 383 796 "},"á":{"ha":700,"x_min":72,"x_max":601,"o":"m 269 -17 q 389 12 333 -17 q 493 81 444 40 l 497 81 l 507 0 l 601 0 l 601 414 q 546 616 601 540 q 367 692 490 692 q 217 663 285 692 q 101 604 149 635 l 146 525 q 238 575 186 553 q 347 597 289 597 q 416 583 389 597 q 458 544 443 568 q 480 490 474 521 q 486 428 486 460 q 171 345 269 404 q 72 175 72 286 q 128 33 72 83 q 269 -17 185 -17 m 303 75 q 218 100 253 75 q 183 183 183 125 q 199 242 183 215 q 251 290 215 269 q 344 326 286 311 q 486 353 401 342 l 486 165 q 394 98 438 121 q 303 75 351 75 m 344 796 l 563 1008 l 482 1085 l 286 853 l 344 796 "},"â":{"ha":700,"x_min":72,"x_max":601,"o":"m 269 -17 q 389 12 333 -17 q 493 81 444 40 l 497 81 l 507 0 l 601 0 l 601 414 q 546 616 601 540 q 367 692 490 692 q 217 663 285 692 q 101 604 149 635 l 146 525 q 238 575 186 553 q 347 597 289 597 q 416 583 389 597 q 458 544 443 568 q 480 490 474 521 q 486 428 486 460 q 171 345 269 404 q 72 175 72 286 q 128 33 72 83 q 269 -17 185 -17 m 303 75 q 218 100 253 75 q 183 183 183 125 q 199 242 183 215 q 251 290 215 269 q 344 326 286 311 q 486 353 401 342 l 486 165 q 394 98 438 121 q 303 75 351 75 m 149 833 l 197 789 l 361 946 l 367 946 l 531 789 l 579 833 l 421 1028 l 307 1028 l 149 833 "},"ã":{"ha":700,"x_min":72,"x_max":604,"o":"m 269 -17 q 389 12 333 -17 q 493 81 444 40 l 497 81 l 507 0 l 601 0 l 601 414 q 546 616 601 540 q 367 692 490 692 q 217 663 285 692 q 101 604 149 635 l 146 525 q 238 575 186 553 q 347 597 289 597 q 416 583 389 597 q 458 544 443 568 q 480 490 474 521 q 486 428 486 460 q 171 345 269 404 q 72 175 72 286 q 128 33 72 83 q 269 -17 185 -17 m 303 75 q 218 100 253 75 q 183 183 183 125 q 199 242 183 215 q 251 290 215 269 q 344 326 286 311 q 486 353 401 342 l 486 165 q 394 98 438 121 q 303 75 351 75 m 464 801 q 526 816 500 801 q 568 856 551 831 q 594 915 585 881 q 604 989 603 949 l 528 994 q 510 915 525 946 q 464 885 494 885 q 419 903 439 885 q 376 943 399 921 q 328 983 354 965 q 264 1001 301 1001 q 202 987 228 1001 q 160 947 176 972 q 134 888 143 922 q 124 813 125 853 l 200 808 q 218 888 203 857 q 265 918 233 918 q 309 900 289 918 q 351 860 329 882 q 400 819 374 838 q 464 801 426 801 "},"ä":{"ha":700,"x_min":72,"x_max":601,"o":"m 269 -17 q 389 12 333 -17 q 493 81 444 40 l 497 81 l 507 0 l 601 0 l 601 414 q 546 616 601 540 q 367 692 490 692 q 217 663 285 692 q 101 604 149 635 l 146 525 q 238 575 186 553 q 347 597 289 597 q 416 583 389 597 q 458 544 443 568 q 480 490 474 521 q 486 428 486 460 q 171 345 269 404 q 72 175 72 286 q 128 33 72 83 q 269 -17 185 -17 m 303 75 q 218 100 253 75 q 183 183 183 125 q 199 242 183 215 q 251 290 215 269 q 344 326 286 311 q 486 353 401 342 l 486 165 q 394 98 438 121 q 303 75 351 75 m 231 815 q 279 835 260 815 q 299 885 299 856 q 279 934 299 914 q 231 954 260 954 q 181 934 200 954 q 161 885 161 914 q 181 835 161 856 q 231 815 200 815 m 497 815 q 547 835 528 815 q 567 885 567 856 q 547 934 567 914 q 497 954 528 954 q 449 934 468 954 q 429 885 429 914 q 449 835 429 856 q 497 815 468 815 "},"ā":{"ha":700,"x_min":72,"x_max":601,"o":"m 269 -17 q 389 12 333 -17 q 493 81 444 40 l 497 81 l 507 0 l 601 0 l 601 414 q 546 616 601 540 q 367 692 490 692 q 217 663 285 692 q 101 604 149 635 l 146 525 q 238 575 186 553 q 347 597 289 597 q 416 583 389 597 q 458 544 443 568 q 480 490 474 521 q 486 428 486 460 q 171 345 269 404 q 72 175 72 286 q 128 33 72 83 q 269 -17 185 -17 m 303 75 q 218 100 253 75 q 183 183 183 125 q 199 242 183 215 q 251 290 215 269 q 344 326 286 311 q 486 353 401 342 l 486 165 q 394 98 438 121 q 303 75 351 75 m 179 835 l 549 835 l 549 914 l 179 914 l 179 835 "},"ă":{"ha":700,"x_min":72,"x_max":601,"o":"m 269 -17 q 389 12 333 -17 q 493 81 444 40 l 497 81 l 507 0 l 601 0 l 601 414 q 546 616 601 540 q 367 692 490 692 q 217 663 285 692 q 101 604 149 635 l 146 525 q 238 575 186 553 q 347 597 289 597 q 416 583 389 597 q 458 544 443 568 q 480 490 474 521 q 486 428 486 460 q 171 345 269 404 q 72 175 72 286 q 128 33 72 83 q 269 -17 185 -17 m 303 75 q 218 100 253 75 q 183 183 183 125 q 199 242 183 215 q 251 290 215 269 q 344 326 286 311 q 486 353 401 342 l 486 165 q 394 98 438 121 q 303 75 351 75 m 364 793 q 459 811 419 793 q 525 859 499 829 q 565 926 551 889 q 581 1003 578 964 l 510 1014 q 495 962 506 988 q 467 915 485 936 q 423 882 449 894 q 364 869 397 869 q 305 882 331 869 q 261 915 279 894 q 233 962 243 936 q 218 1014 222 988 l 147 1003 q 163 926 150 964 q 202 859 176 889 q 268 811 228 829 q 364 793 308 793 "},"å":{"ha":700,"x_min":72,"x_max":601,"o":"m 269 -17 q 389 12 333 -17 q 493 81 444 40 l 497 81 l 507 0 l 601 0 l 601 414 q 546 616 601 540 q 367 692 490 692 q 217 663 285 692 q 101 604 149 635 l 146 525 q 238 575 186 553 q 347 597 289 597 q 416 583 389 597 q 458 544 443 568 q 480 490 474 521 q 486 428 486 460 q 171 345 269 404 q 72 175 72 286 q 128 33 72 83 q 269 -17 185 -17 m 303 75 q 218 100 253 75 q 183 183 183 125 q 199 242 183 215 q 251 290 215 269 q 344 326 286 311 q 486 353 401 342 l 486 165 q 394 98 438 121 q 303 75 351 75 m 364 769 q 476 808 435 769 q 517 907 517 847 q 476 1004 517 965 q 364 1043 435 1043 q 252 1004 293 1043 q 211 907 211 965 q 252 808 211 847 q 364 769 293 769 m 364 821 q 308 844 331 821 q 285 907 285 867 q 308 969 285 946 q 364 992 331 992 q 420 969 397 992 q 443 907 443 946 q 420 844 443 867 q 364 821 397 821 "},"ǎ":{"ha":700,"x_min":72,"x_max":601,"o":"m 269 -17 q 389 12 333 -17 q 493 81 444 40 l 497 81 l 507 0 l 601 0 l 601 414 q 546 616 601 540 q 367 692 490 692 q 217 663 285 692 q 101 604 149 635 l 146 525 q 238 575 186 553 q 347 597 289 597 q 416 583 389 597 q 458 544 443 568 q 480 490 474 521 q 486 428 486 460 q 171 345 269 404 q 72 175 72 286 q 128 33 72 83 q 269 -17 185 -17 m 303 75 q 218 100 253 75 q 183 183 183 125 q 199 242 183 215 q 251 290 215 269 q 344 326 286 311 q 486 353 401 342 l 486 165 q 394 98 438 121 q 303 75 351 75 m 307 797 l 421 797 l 579 992 l 531 1036 l 367 879 l 361 879 l 197 1036 l 149 992 l 307 797 "},"ạ":{"ha":700,"x_min":72,"x_max":601,"o":"m 269 -17 q 389 12 333 -17 q 493 81 444 40 l 497 81 l 507 0 l 601 0 l 601 414 q 546 616 601 540 q 367 692 490 692 q 217 663 285 692 q 101 604 149 635 l 146 525 q 238 575 186 553 q 347 597 289 597 q 416 583 389 597 q 458 544 443 568 q 480 490 474 521 q 486 428 486 460 q 171 345 269 404 q 72 175 72 286 q 128 33 72 83 q 269 -17 185 -17 m 303 75 q 218 100 253 75 q 183 183 183 125 q 199 242 183 215 q 251 290 215 269 q 344 326 286 311 q 486 353 401 342 l 486 165 q 394 98 438 121 q 303 75 351 75 m 342 -285 q 395 -264 374 -285 q 417 -210 417 -243 q 395 -156 417 -178 q 342 -135 374 -135 q 288 -156 310 -135 q 267 -210 267 -178 q 288 -264 267 -243 q 342 -285 310 -285 "},"ả":{"ha":700,"x_min":72,"x_max":601,"o":"m 269 -17 q 389 12 333 -17 q 493 81 444 40 l 497 81 l 507 0 l 601 0 l 601 414 q 546 616 601 540 q 367 692 490 692 q 217 663 285 692 q 101 604 149 635 l 146 525 q 238 575 186 553 q 347 597 289 597 q 416 583 389 597 q 458 544 443 568 q 480 490 474 521 q 486 428 486 460 q 171 345 269 404 q 72 175 72 286 q 128 33 72 83 q 269 -17 185 -17 m 303 75 q 218 100 253 75 q 183 183 183 125 q 199 242 183 215 q 251 290 215 269 q 344 326 286 311 q 486 353 401 342 l 486 165 q 394 98 438 121 q 303 75 351 75 m 319 794 q 378 810 350 800 q 427 835 406 819 q 462 873 449 851 q 475 925 475 894 q 424 1020 475 988 q 276 1056 372 1053 l 269 981 q 385 915 385 975 q 363 873 385 888 q 307 850 340 858 l 319 794 "},"ấ":{"ha":700,"x_min":72,"x_max":690,"o":"m 269 -17 q 389 12 333 -17 q 493 81 444 40 l 497 81 l 507 0 l 601 0 l 601 414 q 546 616 601 540 q 367 692 490 692 q 217 663 285 692 q 101 604 149 635 l 146 525 q 238 575 186 553 q 347 597 289 597 q 416 583 389 597 q 458 544 443 568 q 480 490 474 521 q 486 428 486 460 q 171 345 269 404 q 72 175 72 286 q 128 33 72 83 q 269 -17 185 -17 m 303 75 q 218 100 253 75 q 183 183 183 125 q 199 242 183 215 q 251 290 215 269 q 344 326 286 311 q 486 353 401 342 l 486 165 q 394 98 438 121 q 303 75 351 75 m 218 792 l 361 892 l 367 892 l 510 792 l 550 839 l 411 967 l 317 967 l 178 839 l 218 792 m 501 924 l 550 885 l 690 1043 l 622 1090 l 501 924 "},"ầ":{"ha":700,"x_min":21,"x_max":601,"o":"m 269 -17 q 389 12 333 -17 q 493 81 444 40 l 497 81 l 507 0 l 601 0 l 601 414 q 546 616 601 540 q 367 692 490 692 q 217 663 285 692 q 101 604 149 635 l 146 525 q 238 575 186 553 q 347 597 289 597 q 416 583 389 597 q 458 544 443 568 q 480 490 474 521 q 486 428 486 460 q 171 345 269 404 q 72 175 72 286 q 128 33 72 83 q 269 -17 185 -17 m 303 75 q 218 100 253 75 q 183 183 183 125 q 199 242 183 215 q 251 290 215 269 q 344 326 286 311 q 486 353 401 342 l 486 165 q 394 98 438 121 q 303 75 351 75 m 218 792 l 361 892 l 367 892 l 510 792 l 550 839 l 411 967 l 317 967 l 178 839 l 218 792 m 226 928 l 88 1090 l 21 1040 l 178 885 l 226 928 "},"ẩ":{"ha":700,"x_min":72,"x_max":654,"o":"m 269 -17 q 389 12 333 -17 q 493 81 444 40 l 497 81 l 507 0 l 601 0 l 601 414 q 546 616 601 540 q 367 692 490 692 q 217 663 285 692 q 101 604 149 635 l 146 525 q 238 575 186 553 q 347 597 289 597 q 416 583 389 597 q 458 544 443 568 q 480 490 474 521 q 486 428 486 460 q 171 345 269 404 q 72 175 72 286 q 128 33 72 83 q 269 -17 185 -17 m 303 75 q 218 100 253 75 q 183 183 183 125 q 199 242 183 215 q 251 290 215 269 q 344 326 286 311 q 486 353 401 342 l 486 165 q 394 98 438 121 q 303 75 351 75 m 218 792 l 361 892 l 367 892 l 510 792 l 550 839 l 411 967 l 317 967 l 178 839 l 218 792 m 525 882 q 573 896 550 888 q 614 917 596 904 q 643 950 632 931 q 654 997 654 969 q 610 1071 654 1046 q 485 1099 567 1096 l 475 1042 q 549 1026 526 1039 q 571 985 571 1013 q 555 950 571 963 q 513 931 539 938 l 525 882 "},"ẫ":{"ha":700,"x_min":72,"x_max":601,"o":"m 269 -17 q 389 12 333 -17 q 493 81 444 40 l 497 81 l 507 0 l 601 0 l 601 414 q 546 616 601 540 q 367 692 490 692 q 217 663 285 692 q 101 604 149 635 l 146 525 q 238 575 186 553 q 347 597 289 597 q 416 583 389 597 q 458 544 443 568 q 480 490 474 521 q 486 428 486 460 q 171 345 269 404 q 72 175 72 286 q 128 33 72 83 q 269 -17 185 -17 m 303 75 q 218 100 253 75 q 183 183 183 125 q 199 242 183 215 q 251 290 215 269 q 344 326 286 311 q 486 353 401 342 l 486 165 q 394 98 438 121 q 303 75 351 75 m 218 792 l 361 888 l 367 888 l 510 792 l 550 839 l 411 961 l 317 961 l 178 839 l 218 792 m 174 992 l 233 986 q 249 1031 239 1017 q 279 1044 258 1044 q 317 1035 299 1044 q 356 1015 336 1026 q 400 995 376 1004 q 454 986 424 986 q 526 1022 503 986 q 554 1110 549 1057 l 494 1115 q 479 1071 489 1085 q 449 1057 469 1057 q 410 1066 429 1057 q 372 1086 392 1075 q 328 1106 351 1097 q 274 1115 304 1115 q 202 1081 225 1115 q 174 992 179 1046 "},"ậ":{"ha":700,"x_min":72,"x_max":601,"o":"m 269 -17 q 389 12 333 -17 q 493 81 444 40 l 497 81 l 507 0 l 601 0 l 601 414 q 546 616 601 540 q 367 692 490 692 q 217 663 285 692 q 101 604 149 635 l 146 525 q 238 575 186 553 q 347 597 289 597 q 416 583 389 597 q 458 544 443 568 q 480 490 474 521 q 486 428 486 460 q 171 345 269 404 q 72 175 72 286 q 128 33 72 83 q 269 -17 185 -17 m 303 75 q 218 100 253 75 q 183 183 183 125 q 199 242 183 215 q 251 290 215 269 q 344 326 286 311 q 486 353 401 342 l 486 165 q 394 98 438 121 q 303 75 351 75 m 149 833 l 197 789 l 361 946 l 367 946 l 531 789 l 579 833 l 421 1028 l 307 1028 l 149 833 m 342 -285 q 395 -264 374 -285 q 417 -210 417 -243 q 395 -156 417 -178 q 342 -135 374 -135 q 288 -156 310 -135 q 267 -210 267 -178 q 288 -264 267 -243 q 342 -285 310 -285 "},"ắ":{"ha":700,"x_min":72,"x_max":601,"o":"m 269 -17 q 389 12 333 -17 q 493 81 444 40 l 497 81 l 507 0 l 601 0 l 601 414 q 546 616 601 540 q 367 692 490 692 q 217 663 285 692 q 101 604 149 635 l 146 525 q 238 575 186 553 q 347 597 289 597 q 416 583 389 597 q 458 544 443 568 q 480 490 474 521 q 486 428 486 460 q 171 345 269 404 q 72 175 72 286 q 128 33 72 83 q 269 -17 185 -17 m 303 75 q 218 100 253 75 q 183 183 183 125 q 199 242 183 215 q 251 290 215 269 q 344 326 286 311 q 486 353 401 342 l 486 165 q 394 98 438 121 q 303 75 351 75 m 357 943 l 497 1100 l 425 1156 l 303 983 l 357 943 m 364 793 q 459 811 419 793 q 525 859 499 829 q 565 926 551 889 q 581 1003 578 964 l 514 1014 q 499 959 510 986 q 470 911 489 932 q 425 877 451 890 q 364 864 399 864 q 303 877 329 864 q 258 911 276 890 q 228 959 239 932 q 214 1014 218 986 l 147 1003 q 163 926 150 964 q 202 859 176 889 q 268 811 228 829 q 364 793 308 793 "},"ằ":{"ha":700,"x_min":72,"x_max":601,"o":"m 269 -17 q 389 12 333 -17 q 493 81 444 40 l 497 81 l 507 0 l 601 0 l 601 414 q 546 616 601 540 q 367 692 490 692 q 217 663 285 692 q 101 604 149 635 l 146 525 q 238 575 186 553 q 347 597 289 597 q 416 583 389 597 q 458 544 443 568 q 480 490 474 521 q 486 428 486 460 q 171 345 269 404 q 72 175 72 286 q 128 33 72 83 q 269 -17 185 -17 m 303 75 q 218 100 253 75 q 183 183 183 125 q 199 242 183 215 q 251 290 215 269 q 344 326 286 311 q 486 353 401 342 l 486 165 q 394 98 438 121 q 303 75 351 75 m 371 943 l 425 983 l 303 1156 l 231 1100 l 371 943 m 364 793 q 459 811 419 793 q 525 859 499 829 q 565 926 551 889 q 581 1003 578 964 l 514 1014 q 499 959 510 986 q 470 911 489 932 q 425 877 451 890 q 364 864 399 864 q 303 877 329 864 q 258 911 276 890 q 228 959 239 932 q 214 1014 218 986 l 147 1003 q 163 926 150 964 q 202 859 176 889 q 268 811 228 829 q 364 793 308 793 "},"ẳ":{"ha":700,"x_min":72,"x_max":601,"o":"m 269 -17 q 389 12 333 -17 q 493 81 444 40 l 497 81 l 507 0 l 601 0 l 601 414 q 546 616 601 540 q 367 692 490 692 q 217 663 285 692 q 101 604 149 635 l 146 525 q 238 575 186 553 q 347 597 289 597 q 416 583 389 597 q 458 544 443 568 q 480 490 474 521 q 486 428 486 460 q 171 345 269 404 q 72 175 72 286 q 128 33 72 83 q 269 -17 185 -17 m 303 75 q 218 100 253 75 q 183 183 183 125 q 199 242 183 215 q 251 290 215 269 q 344 326 286 311 q 486 353 401 342 l 486 165 q 394 98 438 121 q 303 75 351 75 m 326 947 q 378 960 353 951 q 422 982 403 968 q 453 1016 442 996 q 465 1064 465 1036 q 418 1147 465 1119 q 286 1178 371 1175 l 276 1108 q 358 1092 333 1106 q 382 1051 382 1079 q 363 1017 382 1029 q 315 997 344 1004 l 326 947 m 364 793 q 459 811 419 793 q 525 859 499 829 q 565 926 551 889 q 581 1003 578 964 l 514 1014 q 499 959 510 986 q 470 911 489 932 q 425 877 451 890 q 364 864 399 864 q 303 877 329 864 q 258 911 276 890 q 228 959 239 932 q 214 1014 218 986 l 147 1003 q 163 926 150 964 q 202 859 176 889 q 268 811 228 829 q 364 793 308 793 "},"ẵ":{"ha":700,"x_min":72,"x_max":601,"o":"m 269 -17 q 389 12 333 -17 q 493 81 444 40 l 497 81 l 507 0 l 601 0 l 601 414 q 546 616 601 540 q 367 692 490 692 q 217 663 285 692 q 101 604 149 635 l 146 525 q 238 575 186 553 q 347 597 289 597 q 416 583 389 597 q 458 544 443 568 q 480 490 474 521 q 486 428 486 460 q 171 345 269 404 q 72 175 72 286 q 128 33 72 83 q 269 -17 185 -17 m 303 75 q 218 100 253 75 q 183 183 183 125 q 199 242 183 215 q 251 290 215 269 q 344 326 286 311 q 486 353 401 342 l 486 165 q 394 98 438 121 q 303 75 351 75 m 364 793 q 451 806 415 793 q 512 841 488 819 q 549 889 536 863 q 564 942 561 915 l 499 953 q 461 888 493 918 q 364 858 429 858 q 267 888 299 858 q 229 953 235 918 l 164 942 q 179 889 167 915 q 216 841 192 863 q 276 806 240 819 q 364 793 313 793 m 168 992 l 233 985 q 249 1030 239 1015 q 279 1044 258 1044 q 317 1035 299 1044 q 356 1015 336 1026 q 400 995 376 1004 q 454 986 424 986 q 530 1021 506 986 q 560 1108 554 1056 l 494 1114 q 479 1070 489 1085 q 449 1056 469 1056 q 410 1065 429 1056 q 372 1085 392 1074 q 328 1105 351 1096 q 274 1114 304 1114 q 198 1079 222 1114 q 168 992 174 1044 "},"ặ":{"ha":700,"x_min":72,"x_max":601,"o":"m 269 -17 q 389 12 333 -17 q 493 81 444 40 l 497 81 l 507 0 l 601 0 l 601 414 q 546 616 601 540 q 367 692 490 692 q 217 663 285 692 q 101 604 149 635 l 146 525 q 238 575 186 553 q 347 597 289 597 q 416 583 389 597 q 458 544 443 568 q 480 490 474 521 q 486 428 486 460 q 171 345 269 404 q 72 175 72 286 q 128 33 72 83 q 269 -17 185 -17 m 303 75 q 218 100 253 75 q 183 183 183 125 q 199 242 183 215 q 251 290 215 269 q 344 326 286 311 q 486 353 401 342 l 486 165 q 394 98 438 121 q 303 75 351 75 m 364 793 q 459 811 419 793 q 525 859 499 829 q 565 926 551 889 q 581 1003 578 964 l 510 1014 q 495 962 506 988 q 467 915 485 936 q 423 882 449 894 q 364 869 397 869 q 305 882 331 869 q 261 915 279 894 q 233 962 243 936 q 218 1014 222 988 l 147 1003 q 163 926 150 964 q 202 859 176 889 q 268 811 228 829 q 364 793 308 793 m 342 -285 q 395 -264 374 -285 q 417 -210 417 -243 q 395 -156 417 -178 q 342 -135 374 -135 q 288 -156 310 -135 q 267 -210 267 -178 q 288 -264 267 -243 q 342 -285 310 -285 "},"ą":{"ha":700,"x_min":72,"x_max":631,"o":"m 522 -286 q 580 -275 549 -286 q 631 -249 611 -264 l 601 -192 q 575 -205 589 -200 q 544 -210 561 -210 q 500 -194 519 -210 q 481 -146 481 -178 q 512 -65 481 -106 q 601 0 543 -24 l 601 414 q 546 616 601 540 q 367 692 490 692 q 217 663 285 692 q 101 604 149 635 l 146 525 q 238 575 186 553 q 347 597 289 597 q 416 583 389 597 q 458 544 443 568 q 480 490 474 521 q 486 428 486 460 q 171 345 269 404 q 72 175 72 286 q 128 33 72 83 q 269 -17 185 -17 q 389 12 333 -17 q 493 81 444 40 l 497 81 l 507 6 q 467 -26 488 -7 q 431 -67 447 -44 q 406 -115 415 -89 q 396 -168 396 -140 q 433 -256 396 -226 q 522 -286 469 -286 m 303 75 q 218 100 253 75 q 183 183 183 125 q 199 242 183 215 q 251 290 215 269 q 344 326 286 311 q 486 353 401 342 l 486 165 q 394 98 438 121 q 303 75 351 75 "},"æ":{"ha":1090,"x_min":81,"x_max":1038,"o":"m 279 -17 q 415 15 344 -17 q 554 110 485 47 q 650 22 593 60 q 792 -17 707 -17 q 914 4 861 -17 q 1011 53 967 25 l 969 132 q 893 92 932 108 q 806 76 854 76 q 725 93 763 76 q 660 140 688 110 q 615 214 632 171 q 596 310 597 257 l 1033 310 q 1038 374 1038 335 q 1021 505 1038 446 q 972 606 1004 564 q 891 669 939 647 q 781 692 843 692 q 655 653 711 692 q 558 549 599 615 q 489 653 538 615 q 365 692 440 692 q 224 663 290 692 q 110 604 157 635 l 156 525 q 246 575 196 553 q 351 597 296 597 q 419 583 393 597 q 462 544 446 568 q 483 490 478 521 q 489 428 489 460 q 179 345 278 404 q 81 175 81 286 q 137 33 81 83 q 279 -17 193 -17 m 311 75 q 227 100 261 75 q 193 183 193 125 q 209 242 193 215 q 260 290 225 269 q 352 326 296 311 q 489 353 408 342 l 489 318 q 497 242 490 279 q 515 179 504 206 q 414 102 469 129 q 311 75 358 75 m 596 386 q 656 544 606 486 q 778 601 707 601 q 897 546 856 601 q 938 386 938 490 l 596 386 "},"ǽ":{"ha":1090,"x_min":81,"x_max":1038,"o":"m 279 -17 q 415 15 344 -17 q 554 110 485 47 q 650 22 593 60 q 792 -17 707 -17 q 914 4 861 -17 q 1011 53 967 25 l 969 132 q 893 92 932 108 q 806 76 854 76 q 725 93 763 76 q 660 140 688 110 q 615 214 632 171 q 596 310 597 257 l 1033 310 q 1038 374 1038 335 q 1021 505 1038 446 q 972 606 1004 564 q 891 669 939 647 q 781 692 843 692 q 655 653 711 692 q 558 549 599 615 q 489 653 538 615 q 365 692 440 692 q 224 663 290 692 q 110 604 157 635 l 156 525 q 246 575 196 553 q 351 597 296 597 q 419 583 393 597 q 462 544 446 568 q 483 490 478 521 q 489 428 489 460 q 179 345 278 404 q 81 175 81 286 q 137 33 81 83 q 279 -17 193 -17 m 311 75 q 227 100 261 75 q 193 183 193 125 q 209 242 193 215 q 260 290 225 269 q 352 326 296 311 q 489 353 408 342 l 489 318 q 497 242 490 279 q 515 179 504 206 q 414 102 469 129 q 311 75 358 75 m 596 386 q 656 544 606 486 q 778 601 707 601 q 897 546 856 601 q 938 386 938 490 l 596 386 m 553 796 l 771 1008 l 690 1085 l 494 853 l 553 796 "},"ǣ":{"ha":1090,"x_min":81,"x_max":1038,"o":"m 279 -17 q 415 15 344 -17 q 554 110 485 47 q 650 22 593 60 q 792 -17 707 -17 q 914 4 861 -17 q 1011 53 967 25 l 969 132 q 893 92 932 108 q 806 76 854 76 q 725 93 763 76 q 660 140 688 110 q 615 214 632 171 q 596 310 597 257 l 1033 310 q 1038 374 1038 335 q 1021 505 1038 446 q 972 606 1004 564 q 891 669 939 647 q 781 692 843 692 q 655 653 711 692 q 558 549 599 615 q 489 653 538 615 q 365 692 440 692 q 224 663 290 692 q 110 604 157 635 l 156 525 q 246 575 196 553 q 351 597 296 597 q 419 583 393 597 q 462 544 446 568 q 483 490 478 521 q 489 428 489 460 q 179 345 278 404 q 81 175 81 286 q 137 33 81 83 q 279 -17 193 -17 m 311 75 q 227 100 261 75 q 193 183 193 125 q 209 242 193 215 q 260 290 225 269 q 352 326 296 311 q 489 353 408 342 l 489 318 q 497 242 490 279 q 515 179 504 206 q 414 102 469 129 q 311 75 358 75 m 596 386 q 656 544 606 486 q 778 601 707 601 q 897 546 856 601 q 938 386 938 490 l 596 386 m 388 835 l 757 835 l 757 914 l 388 914 l 388 835 "},"ƀ":{"ha":756,"x_min":11,"x_max":704,"o":"m 413 -17 q 524 6 471 -17 q 617 73 576 29 q 681 180 657 117 q 704 322 704 243 q 687 451 704 393 q 635 551 669 510 q 551 615 601 592 q 436 638 501 638 q 325 610 379 638 q 225 543 271 583 l 228 664 l 228 793 l 481 793 l 481 860 l 228 860 l 228 989 l 114 989 l 114 860 l 11 853 l 11 793 l 114 793 l 114 0 l 206 0 l 215 69 l 219 69 q 315 6 264 29 q 413 -17 365 -17 m 393 79 q 316 95 360 79 q 228 150 272 111 l 228 449 q 408 542 325 542 q 490 525 456 542 q 545 479 524 508 q 576 409 567 450 q 586 321 586 368 q 572 222 586 267 q 531 145 557 176 q 470 97 506 114 q 393 79 435 79 "},"ḇ":{"ha":768,"x_min":114,"x_max":704,"o":"m 413 -17 q 524 8 471 -17 q 617 79 576 32 q 681 194 657 126 q 704 349 704 263 q 687 490 704 426 q 635 598 669 553 q 551 667 601 643 q 436 692 501 692 q 325 665 379 692 q 225 597 271 638 l 228 719 l 228 989 l 114 989 l 114 0 l 206 0 l 215 69 l 219 69 q 315 6 264 29 q 413 -17 365 -17 m 393 79 q 316 95 360 79 q 228 150 272 111 l 228 504 q 408 596 326 596 q 490 578 456 596 q 545 527 524 560 q 576 449 567 494 q 586 347 586 403 q 572 235 586 285 q 531 151 557 185 q 470 98 506 117 q 393 79 435 79 m 208 -235 l 578 -235 l 578 -156 l 208 -156 l 208 -235 "},"ç":{"ha":633,"x_min":64,"x_max":599,"o":"m 381 -17 q 497 6 442 -17 q 599 69 553 29 l 549 146 q 477 98 517 118 q 390 78 438 78 q 306 97 344 78 q 240 149 267 115 q 197 231 213 183 q 182 336 182 278 q 198 442 182 394 q 242 525 214 490 q 308 578 269 560 q 393 597 347 597 q 466 581 433 597 q 528 538 499 564 l 586 613 q 503 668 550 644 q 389 692 456 692 q 265 668 324 692 q 161 599 206 644 q 90 487 117 553 q 64 336 64 421 q 88 187 64 253 q 155 76 113 121 q 256 7 197 31 q 381 -17 314 -17 m 257 -314 q 427 -278 368 -308 q 486 -187 486 -249 q 460 -122 486 -144 q 385 -89 433 -100 l 425 4 l 351 4 l 290 -122 q 374 -146 350 -131 q 397 -189 397 -161 q 365 -235 397 -219 q 246 -258 333 -251 l 257 -314 "},"ć":{"ha":633,"x_min":64,"x_max":599,"o":"m 381 -17 q 497 6 442 -17 q 599 69 553 29 l 549 146 q 477 98 517 118 q 390 78 438 78 q 306 97 344 78 q 240 149 267 115 q 197 231 213 183 q 182 336 182 278 q 198 442 182 394 q 242 525 214 490 q 308 578 269 560 q 393 597 347 597 q 466 581 433 597 q 528 538 499 564 l 586 613 q 503 668 550 644 q 389 692 456 692 q 265 668 324 692 q 161 599 206 644 q 90 487 117 553 q 64 336 64 421 q 88 187 64 253 q 155 76 113 121 q 256 7 197 31 q 381 -17 314 -17 m 368 796 l 586 1008 l 506 1085 l 310 853 l 368 796 "},"ĉ":{"ha":633,"x_min":64,"x_max":603,"o":"m 381 -17 q 497 6 442 -17 q 599 69 553 29 l 549 146 q 477 98 517 118 q 390 78 438 78 q 306 97 344 78 q 240 149 267 115 q 197 231 213 183 q 182 336 182 278 q 198 442 182 394 q 242 525 214 490 q 308 578 269 560 q 393 597 347 597 q 466 581 433 597 q 528 538 499 564 l 586 613 q 503 668 550 644 q 389 692 456 692 q 265 668 324 692 q 161 599 206 644 q 90 487 117 553 q 64 336 64 421 q 88 187 64 253 q 155 76 113 121 q 256 7 197 31 q 381 -17 314 -17 m 172 833 l 221 789 l 385 946 l 390 946 l 554 789 l 603 833 l 444 1028 l 331 1028 l 172 833 "},"č":{"ha":633,"x_min":64,"x_max":603,"o":"m 381 -17 q 497 6 442 -17 q 599 69 553 29 l 549 146 q 477 98 517 118 q 390 78 438 78 q 306 97 344 78 q 240 149 267 115 q 197 231 213 183 q 182 336 182 278 q 198 442 182 394 q 242 525 214 490 q 308 578 269 560 q 393 597 347 597 q 466 581 433 597 q 528 538 499 564 l 586 613 q 503 668 550 644 q 389 692 456 692 q 265 668 324 692 q 161 599 206 644 q 90 487 117 553 q 64 336 64 421 q 88 187 64 253 q 155 76 113 121 q 256 7 197 31 q 381 -17 314 -17 m 331 797 l 444 797 l 603 992 l 554 1036 l 390 879 l 385 879 l 221 1036 l 172 992 l 331 797 "},"ċ":{"ha":633,"x_min":64,"x_max":599,"o":"m 381 -17 q 497 6 442 -17 q 599 69 553 29 l 549 146 q 477 98 517 118 q 390 78 438 78 q 306 97 344 78 q 240 149 267 115 q 197 231 213 183 q 182 336 182 278 q 198 442 182 394 q 242 525 214 490 q 308 578 269 560 q 393 597 347 597 q 466 581 433 597 q 528 538 499 564 l 586 613 q 503 668 550 644 q 389 692 456 692 q 265 668 324 692 q 161 599 206 644 q 90 487 117 553 q 64 336 64 421 q 88 187 64 253 q 155 76 113 121 q 256 7 197 31 q 381 -17 314 -17 m 388 814 q 441 835 419 814 q 463 889 463 856 q 441 942 463 921 q 388 964 419 964 q 334 942 356 964 q 313 889 313 921 q 334 835 313 856 q 388 814 356 814 "},"ď":{"ha":796,"x_min":65,"x_max":813,"o":"m 344 -17 q 456 12 404 -17 q 549 79 508 40 l 553 79 l 563 0 l 657 0 l 657 989 l 542 989 l 542 729 l 547 614 q 460 671 503 650 q 358 692 417 692 q 247 667 300 692 q 154 596 194 642 q 90 484 114 550 q 65 336 65 418 q 141 75 65 167 q 344 -17 217 -17 m 369 79 q 232 147 281 79 q 183 338 183 215 q 199 443 183 396 q 240 524 214 490 q 302 577 267 558 q 378 596 338 596 q 459 580 419 596 q 542 525 499 564 l 542 172 q 458 102 500 125 q 369 79 417 79 m 736 761 l 792 761 l 811 976 l 813 1056 l 731 1056 l 736 761 "},"ḍ":{"ha":771,"x_min":65,"x_max":657,"o":"m 344 -17 q 456 12 404 -17 q 549 79 508 40 l 553 79 l 563 0 l 657 0 l 657 989 l 542 989 l 542 729 l 547 614 q 460 671 503 650 q 358 692 417 692 q 247 667 300 692 q 154 596 194 642 q 90 484 114 550 q 65 336 65 418 q 141 75 65 167 q 344 -17 217 -17 m 369 79 q 232 147 281 79 q 183 338 183 215 q 199 443 183 396 q 240 524 214 490 q 302 577 267 558 q 378 596 338 596 q 459 580 419 596 q 542 525 499 564 l 542 172 q 458 102 500 125 q 369 79 417 79 m 419 -285 q 473 -264 451 -285 q 494 -210 494 -243 q 473 -156 494 -178 q 419 -135 451 -135 q 366 -156 388 -135 q 344 -210 344 -178 q 366 -264 344 -243 q 419 -285 388 -285 "},"ḏ":{"ha":771,"x_min":65,"x_max":657,"o":"m 344 -17 q 456 12 404 -17 q 549 79 508 40 l 553 79 l 563 0 l 657 0 l 657 989 l 542 989 l 542 729 l 547 614 q 460 671 503 650 q 358 692 417 692 q 247 667 300 692 q 154 596 194 642 q 90 484 114 550 q 65 336 65 418 q 141 75 65 167 q 344 -17 217 -17 m 369 79 q 232 147 281 79 q 183 338 183 215 q 199 443 183 396 q 240 524 214 490 q 302 577 267 558 q 378 596 338 596 q 459 580 419 596 q 542 525 499 564 l 542 172 q 458 102 500 125 q 369 79 417 79 m 233 -235 l 603 -235 l 603 -156 l 233 -156 l 233 -235 "},"đ":{"ha":771,"x_min":65,"x_max":757,"o":"m 344 -17 q 457 10 406 -17 q 547 76 508 38 l 551 76 l 560 0 l 657 0 l 657 793 l 757 800 l 757 860 l 657 860 l 657 989 l 542 989 l 542 860 l 318 860 l 318 793 l 542 793 l 542 675 l 547 558 q 460 616 503 594 q 358 638 417 638 q 247 614 300 638 q 154 548 194 590 q 90 445 114 506 q 65 310 65 385 q 141 69 65 154 q 344 -17 217 -17 m 369 79 q 232 142 281 79 q 183 311 183 204 q 199 403 183 361 q 240 476 214 446 q 302 524 267 507 q 378 542 338 542 q 459 526 419 542 q 542 471 499 510 l 542 172 q 458 102 500 125 q 369 79 417 79 "},"è":{"ha":689,"x_min":64,"x_max":636,"o":"m 388 -17 q 511 4 457 -17 q 610 53 565 25 l 569 128 q 491 90 532 104 q 401 75 450 75 q 244 138 304 75 q 176 310 183 201 l 632 310 q 635 340 635 322 q 636 375 636 357 q 618 506 636 447 q 566 606 600 564 q 481 669 532 647 q 367 692 431 692 q 254 667 308 692 q 158 597 200 643 q 90 485 115 551 q 64 336 64 419 q 89 188 64 253 q 158 77 114 122 q 260 8 201 32 q 388 -17 319 -17 m 175 392 q 198 481 181 442 q 242 547 215 519 q 301 588 268 574 q 369 601 333 601 q 492 548 449 601 q 536 392 536 494 l 175 392 m 388 796 l 446 853 l 250 1085 l 169 1008 l 388 796 "},"é":{"ha":689,"x_min":64,"x_max":636,"o":"m 388 -17 q 511 4 457 -17 q 610 53 565 25 l 569 128 q 491 90 532 104 q 401 75 450 75 q 244 138 304 75 q 176 310 183 201 l 632 310 q 635 340 635 322 q 636 375 636 357 q 618 506 636 447 q 566 606 600 564 q 481 669 532 647 q 367 692 431 692 q 254 667 308 692 q 158 597 200 643 q 90 485 115 551 q 64 336 64 419 q 89 188 64 253 q 158 77 114 122 q 260 8 201 32 q 388 -17 319 -17 m 175 392 q 198 481 181 442 q 242 547 215 519 q 301 588 268 574 q 369 601 333 601 q 492 548 449 601 q 536 392 536 494 l 175 392 m 349 796 l 567 1008 l 486 1085 l 290 853 l 349 796 "},"ê":{"ha":689,"x_min":64,"x_max":636,"o":"m 388 -17 q 511 4 457 -17 q 610 53 565 25 l 569 128 q 491 90 532 104 q 401 75 450 75 q 244 138 304 75 q 176 310 183 201 l 632 310 q 635 340 635 322 q 636 375 636 357 q 618 506 636 447 q 566 606 600 564 q 481 669 532 647 q 367 692 431 692 q 254 667 308 692 q 158 597 200 643 q 90 485 115 551 q 64 336 64 419 q 89 188 64 253 q 158 77 114 122 q 260 8 201 32 q 388 -17 319 -17 m 175 392 q 198 481 181 442 q 242 547 215 519 q 301 588 268 574 q 369 601 333 601 q 492 548 449 601 q 536 392 536 494 l 175 392 m 153 833 l 201 789 l 365 946 l 371 946 l 535 789 l 583 833 l 425 1028 l 311 1028 l 153 833 "},"ě":{"ha":689,"x_min":64,"x_max":636,"o":"m 388 -17 q 511 4 457 -17 q 610 53 565 25 l 569 128 q 491 90 532 104 q 401 75 450 75 q 244 138 304 75 q 176 310 183 201 l 632 310 q 635 340 635 322 q 636 375 636 357 q 618 506 636 447 q 566 606 600 564 q 481 669 532 647 q 367 692 431 692 q 254 667 308 692 q 158 597 200 643 q 90 485 115 551 q 64 336 64 419 q 89 188 64 253 q 158 77 114 122 q 260 8 201 32 q 388 -17 319 -17 m 175 392 q 198 481 181 442 q 242 547 215 519 q 301 588 268 574 q 369 601 333 601 q 492 548 449 601 q 536 392 536 494 l 175 392 m 311 797 l 425 797 l 583 992 l 535 1036 l 371 879 l 365 879 l 201 1036 l 153 992 l 311 797 "},"ë":{"ha":689,"x_min":64,"x_max":636,"o":"m 388 -17 q 511 4 457 -17 q 610 53 565 25 l 569 128 q 491 90 532 104 q 401 75 450 75 q 244 138 304 75 q 176 310 183 201 l 632 310 q 635 340 635 322 q 636 375 636 357 q 618 506 636 447 q 566 606 600 564 q 481 669 532 647 q 367 692 431 692 q 254 667 308 692 q 158 597 200 643 q 90 485 115 551 q 64 336 64 419 q 89 188 64 253 q 158 77 114 122 q 260 8 201 32 q 388 -17 319 -17 m 175 392 q 198 481 181 442 q 242 547 215 519 q 301 588 268 574 q 369 601 333 601 q 492 548 449 601 q 536 392 536 494 l 175 392 m 235 815 q 283 835 264 815 q 303 885 303 856 q 283 934 303 914 q 235 954 264 954 q 185 934 204 954 q 165 885 165 914 q 185 835 165 856 q 235 815 204 815 m 501 815 q 551 835 532 815 q 571 885 571 856 q 551 934 571 914 q 501 954 532 954 q 453 934 472 954 q 433 885 433 914 q 453 835 433 856 q 501 815 472 815 "},"ē":{"ha":689,"x_min":64,"x_max":636,"o":"m 388 -17 q 511 4 457 -17 q 610 53 565 25 l 569 128 q 491 90 532 104 q 401 75 450 75 q 244 138 304 75 q 176 310 183 201 l 632 310 q 635 340 635 322 q 636 375 636 357 q 618 506 636 447 q 566 606 600 564 q 481 669 532 647 q 367 692 431 692 q 254 667 308 692 q 158 597 200 643 q 90 485 115 551 q 64 336 64 419 q 89 188 64 253 q 158 77 114 122 q 260 8 201 32 q 388 -17 319 -17 m 175 392 q 198 481 181 442 q 242 547 215 519 q 301 588 268 574 q 369 601 333 601 q 492 548 449 601 q 536 392 536 494 l 175 392 m 183 835 l 553 835 l 553 914 l 183 914 l 183 835 "},"ĕ":{"ha":689,"x_min":64,"x_max":636,"o":"m 388 -17 q 511 4 457 -17 q 610 53 565 25 l 569 128 q 491 90 532 104 q 401 75 450 75 q 244 138 304 75 q 176 310 183 201 l 632 310 q 635 340 635 322 q 636 375 636 357 q 618 506 636 447 q 566 606 600 564 q 481 669 532 647 q 367 692 431 692 q 254 667 308 692 q 158 597 200 643 q 90 485 115 551 q 64 336 64 419 q 89 188 64 253 q 158 77 114 122 q 260 8 201 32 q 388 -17 319 -17 m 175 392 q 198 481 181 442 q 242 547 215 519 q 301 588 268 574 q 369 601 333 601 q 492 548 449 601 q 536 392 536 494 l 175 392 m 368 793 q 463 811 424 793 q 529 859 503 829 q 569 926 556 889 q 585 1003 582 964 l 514 1014 q 499 962 510 988 q 471 915 489 936 q 427 882 453 894 q 368 869 401 869 q 309 882 335 869 q 265 915 283 894 q 237 962 247 936 q 222 1014 226 988 l 151 1003 q 167 926 154 964 q 206 859 181 889 q 272 811 232 829 q 368 793 313 793 "},"ė":{"ha":689,"x_min":64,"x_max":636,"o":"m 388 -17 q 511 4 457 -17 q 610 53 565 25 l 569 128 q 491 90 532 104 q 401 75 450 75 q 244 138 304 75 q 176 310 183 201 l 632 310 q 635 340 635 322 q 636 375 636 357 q 618 506 636 447 q 566 606 600 564 q 481 669 532 647 q 367 692 431 692 q 254 667 308 692 q 158 597 200 643 q 90 485 115 551 q 64 336 64 419 q 89 188 64 253 q 158 77 114 122 q 260 8 201 32 q 388 -17 319 -17 m 175 392 q 198 481 181 442 q 242 547 215 519 q 301 588 268 574 q 369 601 333 601 q 492 548 449 601 q 536 392 536 494 l 175 392 m 368 814 q 422 835 400 814 q 443 889 443 856 q 422 942 443 921 q 368 964 400 964 q 315 942 336 964 q 293 889 293 921 q 315 835 293 856 q 368 814 336 814 "},"ẹ":{"ha":689,"x_min":64,"x_max":636,"o":"m 388 -17 q 511 4 457 -17 q 610 53 565 25 l 569 128 q 491 90 532 104 q 401 75 450 75 q 244 138 304 75 q 176 310 183 201 l 632 310 q 635 340 635 322 q 636 375 636 357 q 618 506 636 447 q 566 606 600 564 q 481 669 532 647 q 367 692 431 692 q 254 667 308 692 q 158 597 200 643 q 90 485 115 551 q 64 336 64 419 q 89 188 64 253 q 158 77 114 122 q 260 8 201 32 q 388 -17 319 -17 m 175 392 q 198 481 181 442 q 242 547 215 519 q 301 588 268 574 q 369 601 333 601 q 492 548 449 601 q 536 392 536 494 l 175 392 m 365 -285 q 419 -264 397 -285 q 440 -210 440 -243 q 419 -156 440 -178 q 365 -135 397 -135 q 312 -156 333 -135 q 290 -210 290 -178 q 312 -264 290 -243 q 365 -285 333 -285 "},"ẻ":{"ha":689,"x_min":64,"x_max":636,"o":"m 388 -17 q 511 4 457 -17 q 610 53 565 25 l 569 128 q 491 90 532 104 q 401 75 450 75 q 244 138 304 75 q 176 310 183 201 l 632 310 q 635 340 635 322 q 636 375 636 357 q 618 506 636 447 q 566 606 600 564 q 481 669 532 647 q 367 692 431 692 q 254 667 308 692 q 158 597 200 643 q 90 485 115 551 q 64 336 64 419 q 89 188 64 253 q 158 77 114 122 q 260 8 201 32 q 388 -17 319 -17 m 175 392 q 198 481 181 442 q 242 547 215 519 q 301 588 268 574 q 369 601 333 601 q 492 548 449 601 q 536 392 536 494 l 175 392 m 324 794 q 382 810 354 800 q 431 835 410 819 q 466 873 453 851 q 479 925 479 894 q 428 1020 479 988 q 281 1056 376 1053 l 274 981 q 389 915 389 975 q 367 873 389 888 q 311 850 344 858 l 324 794 "},"ẽ":{"ha":689,"x_min":64,"x_max":636,"o":"m 388 -17 q 511 4 457 -17 q 610 53 565 25 l 569 128 q 491 90 532 104 q 401 75 450 75 q 244 138 304 75 q 176 310 183 201 l 632 310 q 635 340 635 322 q 636 375 636 357 q 618 506 636 447 q 566 606 600 564 q 481 669 532 647 q 367 692 431 692 q 254 667 308 692 q 158 597 200 643 q 90 485 115 551 q 64 336 64 419 q 89 188 64 253 q 158 77 114 122 q 260 8 201 32 q 388 -17 319 -17 m 175 392 q 198 481 181 442 q 242 547 215 519 q 301 588 268 574 q 369 601 333 601 q 492 548 449 601 q 536 392 536 494 l 175 392 m 468 801 q 530 816 504 801 q 572 856 556 831 q 598 915 589 881 q 608 989 607 949 l 532 994 q 514 915 529 946 q 468 885 499 885 q 423 903 443 885 q 381 943 403 921 q 332 983 358 965 q 268 1001 306 1001 q 206 987 232 1001 q 164 947 181 972 q 138 888 147 922 q 128 813 129 853 l 204 808 q 222 888 207 857 q 269 918 238 918 q 313 900 293 918 q 356 860 333 882 q 404 819 378 838 q 468 801 431 801 "},"ế":{"ha":689,"x_min":64,"x_max":694,"o":"m 388 -17 q 511 4 457 -17 q 610 53 565 25 l 569 128 q 491 90 532 104 q 401 75 450 75 q 244 138 304 75 q 176 310 183 201 l 632 310 q 635 340 635 322 q 636 375 636 357 q 618 506 636 447 q 566 606 600 564 q 481 669 532 647 q 367 692 431 692 q 254 667 308 692 q 158 597 200 643 q 90 485 115 551 q 64 336 64 419 q 89 188 64 253 q 158 77 114 122 q 260 8 201 32 q 388 -17 319 -17 m 175 392 q 198 481 181 442 q 242 547 215 519 q 301 588 268 574 q 369 601 333 601 q 492 548 449 601 q 536 392 536 494 l 175 392 m 222 792 l 365 892 l 371 892 l 514 792 l 554 839 l 415 967 l 321 967 l 182 839 l 222 792 m 506 924 l 554 885 l 694 1043 l 626 1090 l 506 924 "},"ề":{"ha":689,"x_min":25,"x_max":636,"o":"m 388 -17 q 511 4 457 -17 q 610 53 565 25 l 569 128 q 491 90 532 104 q 401 75 450 75 q 244 138 304 75 q 176 310 183 201 l 632 310 q 635 340 635 322 q 636 375 636 357 q 618 506 636 447 q 566 606 600 564 q 481 669 532 647 q 367 692 431 692 q 254 667 308 692 q 158 597 200 643 q 90 485 115 551 q 64 336 64 419 q 89 188 64 253 q 158 77 114 122 q 260 8 201 32 q 388 -17 319 -17 m 175 392 q 198 481 181 442 q 242 547 215 519 q 301 588 268 574 q 369 601 333 601 q 492 548 449 601 q 536 392 536 494 l 175 392 m 222 792 l 365 892 l 371 892 l 514 792 l 554 839 l 415 967 l 321 967 l 182 839 l 222 792 m 231 928 l 92 1090 l 25 1040 l 182 885 l 231 928 "},"ể":{"ha":689,"x_min":64,"x_max":658,"o":"m 388 -17 q 511 4 457 -17 q 610 53 565 25 l 569 128 q 491 90 532 104 q 401 75 450 75 q 244 138 304 75 q 176 310 183 201 l 632 310 q 635 340 635 322 q 636 375 636 357 q 618 506 636 447 q 566 606 600 564 q 481 669 532 647 q 367 692 431 692 q 254 667 308 692 q 158 597 200 643 q 90 485 115 551 q 64 336 64 419 q 89 188 64 253 q 158 77 114 122 q 260 8 201 32 q 388 -17 319 -17 m 175 392 q 198 481 181 442 q 242 547 215 519 q 301 588 268 574 q 369 601 333 601 q 492 548 449 601 q 536 392 536 494 l 175 392 m 222 792 l 365 892 l 371 892 l 514 792 l 554 839 l 415 967 l 321 967 l 182 839 l 222 792 m 529 882 q 577 896 554 888 q 618 917 600 904 q 647 950 636 931 q 658 997 658 969 q 615 1071 658 1046 q 489 1099 571 1096 l 479 1042 q 553 1026 531 1039 q 575 985 575 1013 q 559 950 575 963 q 517 931 543 938 l 529 882 "},"ễ":{"ha":689,"x_min":64,"x_max":636,"o":"m 388 -17 q 511 4 457 -17 q 610 53 565 25 l 569 128 q 491 90 532 104 q 401 75 450 75 q 244 138 304 75 q 176 310 183 201 l 632 310 q 635 340 635 322 q 636 375 636 357 q 618 506 636 447 q 566 606 600 564 q 481 669 532 647 q 367 692 431 692 q 254 667 308 692 q 158 597 200 643 q 90 485 115 551 q 64 336 64 419 q 89 188 64 253 q 158 77 114 122 q 260 8 201 32 q 388 -17 319 -17 m 175 392 q 198 481 181 442 q 242 547 215 519 q 301 588 268 574 q 369 601 333 601 q 492 548 449 601 q 536 392 536 494 l 175 392 m 222 792 l 365 888 l 371 888 l 514 792 l 554 839 l 415 961 l 321 961 l 182 839 l 222 792 m 178 992 l 238 986 q 253 1031 243 1017 q 283 1044 263 1044 q 322 1035 303 1044 q 360 1015 340 1026 q 404 995 381 1004 q 458 986 428 986 q 530 1022 507 986 q 558 1110 553 1057 l 499 1115 q 483 1071 493 1085 q 453 1057 474 1057 q 415 1066 433 1057 q 376 1086 396 1075 q 332 1106 356 1097 q 278 1115 308 1115 q 206 1081 229 1115 q 178 992 183 1046 "},"ệ":{"ha":689,"x_min":64,"x_max":636,"o":"m 388 -17 q 511 4 457 -17 q 610 53 565 25 l 569 128 q 491 90 532 104 q 401 75 450 75 q 244 138 304 75 q 176 310 183 201 l 632 310 q 635 340 635 322 q 636 375 636 357 q 618 506 636 447 q 566 606 600 564 q 481 669 532 647 q 367 692 431 692 q 254 667 308 692 q 158 597 200 643 q 90 485 115 551 q 64 336 64 419 q 89 188 64 253 q 158 77 114 122 q 260 8 201 32 q 388 -17 319 -17 m 175 392 q 198 481 181 442 q 242 547 215 519 q 301 588 268 574 q 369 601 333 601 q 492 548 449 601 q 536 392 536 494 l 175 392 m 153 833 l 201 789 l 365 946 l 371 946 l 535 789 l 583 833 l 425 1028 l 311 1028 l 153 833 m 364 -285 q 417 -264 396 -285 q 439 -210 439 -243 q 417 -156 439 -178 q 364 -135 396 -135 q 310 -156 332 -135 q 289 -210 289 -178 q 310 -264 289 -243 q 364 -285 332 -285 "},"ę":{"ha":689,"x_min":64,"x_max":636,"o":"m 497 -286 q 555 -275 524 -286 q 606 -249 586 -264 l 576 -192 q 551 -205 564 -200 q 521 -210 538 -210 q 475 -194 494 -210 q 456 -146 456 -178 q 463 -102 456 -124 q 488 -57 469 -81 q 535 -6 506 -33 q 610 53 564 21 l 569 128 q 491 90 532 104 q 401 75 450 75 q 244 138 304 75 q 176 310 183 201 l 632 310 q 635 340 635 322 q 636 375 636 357 q 618 506 636 447 q 566 606 600 564 q 481 669 532 647 q 367 692 431 692 q 254 667 308 692 q 158 597 200 643 q 90 485 115 551 q 64 336 64 419 q 89 188 64 253 q 158 77 114 122 q 260 8 201 32 q 388 -17 319 -17 q 421 -15 404 -17 q 456 -7 438 -14 q 427 -36 442 -19 q 400 -74 413 -53 q 380 -118 388 -94 q 372 -168 372 -142 q 408 -256 372 -226 q 497 -286 444 -286 m 175 392 q 198 481 181 442 q 242 547 215 519 q 301 588 268 574 q 369 601 333 601 q 492 548 449 601 q 536 392 536 494 l 175 392 "},"ḗ":{"ha":689,"x_min":64,"x_max":636,"o":"m 388 -17 q 511 4 457 -17 q 610 53 565 25 l 569 128 q 491 90 532 104 q 401 75 450 75 q 244 138 304 75 q 176 310 183 201 l 632 310 q 635 340 635 322 q 636 375 636 357 q 618 506 636 447 q 566 606 600 564 q 481 669 532 647 q 367 692 431 692 q 254 667 308 692 q 158 597 200 643 q 90 485 115 551 q 64 336 64 419 q 89 188 64 253 q 158 77 114 122 q 260 8 201 32 q 388 -17 319 -17 m 175 392 q 198 481 181 442 q 242 547 215 519 q 301 588 268 574 q 369 601 333 601 q 492 548 449 601 q 536 392 536 494 l 175 392 m 321 979 l 517 1103 l 464 1171 l 276 1033 l 321 979 m 183 835 l 553 835 l 553 914 l 183 914 l 183 835 "},"ǵ":{"ha":700,"x_min":63,"x_max":683,"o":"m 342 -311 q 484 -292 421 -311 q 592 -242 547 -274 q 660 -167 636 -210 q 683 -78 683 -125 q 624 45 683 7 q 447 83 565 83 l 317 83 q 222 104 247 83 q 197 157 197 125 q 210 203 197 185 q 240 238 222 222 q 290 220 264 226 q 342 214 317 214 q 438 231 393 214 q 517 277 483 247 q 569 351 550 307 q 589 449 589 394 q 573 528 589 492 q 533 588 557 564 l 672 588 l 672 675 l 438 675 q 394 687 418 682 q 342 692 369 692 q 244 675 290 692 q 163 627 197 658 q 108 551 128 596 q 88 451 88 507 q 115 344 88 390 q 175 269 142 297 l 175 264 q 125 214 149 246 q 101 139 101 182 q 119 72 101 99 q 161 29 136 44 l 161 24 q 89 -47 115 -8 q 63 -129 63 -86 q 83 -207 63 -174 q 140 -264 103 -240 q 228 -299 176 -287 q 342 -311 279 -311 m 342 290 q 287 301 313 290 q 241 333 261 313 q 210 384 221 354 q 199 451 199 414 q 240 567 199 526 q 342 608 282 608 q 443 567 401 608 q 485 451 485 526 q 474 384 485 414 q 442 333 463 354 q 397 301 422 313 q 342 290 371 290 m 358 -232 q 215 -200 267 -232 q 163 -114 163 -168 q 179 -56 163 -85 q 232 0 196 -26 q 277 -9 254 -7 q 319 -11 300 -11 l 436 -11 q 538 -29 503 -11 q 572 -94 572 -47 q 557 -146 572 -121 q 514 -190 542 -171 q 447 -220 486 -208 q 358 -232 407 -232 m 351 796 l 569 1008 l 489 1085 l 293 853 l 351 796 "},"ĝ":{"ha":700,"x_min":63,"x_max":683,"o":"m 342 -311 q 484 -292 421 -311 q 592 -242 547 -274 q 660 -167 636 -210 q 683 -78 683 -125 q 624 45 683 7 q 447 83 565 83 l 317 83 q 222 104 247 83 q 197 157 197 125 q 210 203 197 185 q 240 238 222 222 q 290 220 264 226 q 342 214 317 214 q 438 231 393 214 q 517 277 483 247 q 569 351 550 307 q 589 449 589 394 q 573 528 589 492 q 533 588 557 564 l 672 588 l 672 675 l 438 675 q 394 687 418 682 q 342 692 369 692 q 244 675 290 692 q 163 627 197 658 q 108 551 128 596 q 88 451 88 507 q 115 344 88 390 q 175 269 142 297 l 175 264 q 125 214 149 246 q 101 139 101 182 q 119 72 101 99 q 161 29 136 44 l 161 24 q 89 -47 115 -8 q 63 -129 63 -86 q 83 -207 63 -174 q 140 -264 103 -240 q 228 -299 176 -287 q 342 -311 279 -311 m 342 290 q 287 301 313 290 q 241 333 261 313 q 210 384 221 354 q 199 451 199 414 q 240 567 199 526 q 342 608 282 608 q 443 567 401 608 q 485 451 485 526 q 474 384 485 414 q 442 333 463 354 q 397 301 422 313 q 342 290 371 290 m 358 -232 q 215 -200 267 -232 q 163 -114 163 -168 q 179 -56 163 -85 q 232 0 196 -26 q 277 -9 254 -7 q 319 -11 300 -11 l 436 -11 q 538 -29 503 -11 q 572 -94 572 -47 q 557 -146 572 -121 q 514 -190 542 -171 q 447 -220 486 -208 q 358 -232 407 -232 m 156 833 l 204 789 l 368 946 l 374 946 l 538 789 l 586 833 l 428 1028 l 314 1028 l 156 833 "},"ğ":{"ha":700,"x_min":63,"x_max":683,"o":"m 342 -311 q 484 -292 421 -311 q 592 -242 547 -274 q 660 -167 636 -210 q 683 -78 683 -125 q 624 45 683 7 q 447 83 565 83 l 317 83 q 222 104 247 83 q 197 157 197 125 q 210 203 197 185 q 240 238 222 222 q 290 220 264 226 q 342 214 317 214 q 438 231 393 214 q 517 277 483 247 q 569 351 550 307 q 589 449 589 394 q 573 528 589 492 q 533 588 557 564 l 672 588 l 672 675 l 438 675 q 394 687 418 682 q 342 692 369 692 q 244 675 290 692 q 163 627 197 658 q 108 551 128 596 q 88 451 88 507 q 115 344 88 390 q 175 269 142 297 l 175 264 q 125 214 149 246 q 101 139 101 182 q 119 72 101 99 q 161 29 136 44 l 161 24 q 89 -47 115 -8 q 63 -129 63 -86 q 83 -207 63 -174 q 140 -264 103 -240 q 228 -299 176 -287 q 342 -311 279 -311 m 342 290 q 287 301 313 290 q 241 333 261 313 q 210 384 221 354 q 199 451 199 414 q 240 567 199 526 q 342 608 282 608 q 443 567 401 608 q 485 451 485 526 q 474 384 485 414 q 442 333 463 354 q 397 301 422 313 q 342 290 371 290 m 358 -232 q 215 -200 267 -232 q 163 -114 163 -168 q 179 -56 163 -85 q 232 0 196 -26 q 277 -9 254 -7 q 319 -11 300 -11 l 436 -11 q 538 -29 503 -11 q 572 -94 572 -47 q 557 -146 572 -121 q 514 -190 542 -171 q 447 -220 486 -208 q 358 -232 407 -232 m 371 793 q 466 811 426 793 q 532 859 506 829 q 572 926 558 889 q 588 1003 585 964 l 517 1014 q 502 962 513 988 q 474 915 492 936 q 430 882 456 894 q 371 869 404 869 q 312 882 338 869 q 268 915 286 894 q 240 962 250 936 q 225 1014 229 988 l 154 1003 q 170 926 157 964 q 209 859 183 889 q 275 811 235 829 q 371 793 315 793 "},"ġ":{"ha":700,"x_min":63,"x_max":683,"o":"m 342 -311 q 484 -292 421 -311 q 592 -242 547 -274 q 660 -167 636 -210 q 683 -78 683 -125 q 624 45 683 7 q 447 83 565 83 l 317 83 q 222 104 247 83 q 197 157 197 125 q 210 203 197 185 q 240 238 222 222 q 290 220 264 226 q 342 214 317 214 q 438 231 393 214 q 517 277 483 247 q 569 351 550 307 q 589 449 589 394 q 573 528 589 492 q 533 588 557 564 l 672 588 l 672 675 l 438 675 q 394 687 418 682 q 342 692 369 692 q 244 675 290 692 q 163 627 197 658 q 108 551 128 596 q 88 451 88 507 q 115 344 88 390 q 175 269 142 297 l 175 264 q 125 214 149 246 q 101 139 101 182 q 119 72 101 99 q 161 29 136 44 l 161 24 q 89 -47 115 -8 q 63 -129 63 -86 q 83 -207 63 -174 q 140 -264 103 -240 q 228 -299 176 -287 q 342 -311 279 -311 m 342 290 q 287 301 313 290 q 241 333 261 313 q 210 384 221 354 q 199 451 199 414 q 240 567 199 526 q 342 608 282 608 q 443 567 401 608 q 485 451 485 526 q 474 384 485 414 q 442 333 463 354 q 397 301 422 313 q 342 290 371 290 m 358 -232 q 215 -200 267 -232 q 163 -114 163 -168 q 179 -56 163 -85 q 232 0 196 -26 q 277 -9 254 -7 q 319 -11 300 -11 l 436 -11 q 538 -29 503 -11 q 572 -94 572 -47 q 557 -146 572 -121 q 514 -190 542 -171 q 447 -220 486 -208 q 358 -232 407 -232 m 371 814 q 424 835 403 814 q 446 889 446 856 q 424 942 446 921 q 371 964 403 964 q 317 942 339 964 q 296 889 296 921 q 317 835 296 856 q 371 814 339 814 "},"ģ":{"ha":700,"x_min":63,"x_max":683,"o":"m 342 -311 q 484 -292 421 -311 q 592 -242 547 -274 q 660 -167 636 -210 q 683 -78 683 -125 q 624 45 683 7 q 447 83 565 83 l 317 83 q 222 104 247 83 q 197 157 197 125 q 210 203 197 185 q 240 238 222 222 q 290 220 264 226 q 342 214 317 214 q 438 231 393 214 q 517 277 483 247 q 569 351 550 307 q 589 449 589 394 q 573 528 589 492 q 533 588 557 564 l 672 588 l 672 675 l 438 675 q 394 687 418 682 q 342 692 369 692 q 244 675 290 692 q 163 627 197 658 q 108 551 128 596 q 88 451 88 507 q 115 344 88 390 q 175 269 142 297 l 175 264 q 125 214 149 246 q 101 139 101 182 q 119 72 101 99 q 161 29 136 44 l 161 24 q 89 -47 115 -8 q 63 -129 63 -86 q 83 -207 63 -174 q 140 -264 103 -240 q 228 -299 176 -287 q 342 -311 279 -311 m 342 290 q 287 301 313 290 q 241 333 261 313 q 210 384 221 354 q 199 451 199 414 q 240 567 199 526 q 342 608 282 608 q 443 567 401 608 q 485 451 485 526 q 474 384 485 414 q 442 333 463 354 q 397 301 422 313 q 342 290 371 290 m 358 -232 q 215 -200 267 -232 q 163 -114 163 -168 q 179 -56 163 -85 q 232 0 196 -26 q 277 -9 254 -7 q 319 -11 300 -11 l 436 -11 q 538 -29 503 -11 q 572 -94 572 -47 q 557 -146 572 -121 q 514 -190 542 -171 q 447 -220 486 -208 q 358 -232 407 -232 m 425 799 l 450 851 q 376 869 401 856 q 351 910 351 882 q 383 955 351 939 q 503 976 415 971 l 492 1033 q 322 997 381 1026 q 263 906 263 967 q 299 833 263 858 q 425 799 335 808 "},"ǧ":{"ha":700,"x_min":63,"x_max":683,"o":"m 342 -311 q 484 -292 421 -311 q 592 -242 547 -274 q 660 -167 636 -210 q 683 -78 683 -125 q 624 45 683 7 q 447 83 565 83 l 317 83 q 222 104 247 83 q 197 157 197 125 q 210 203 197 185 q 240 238 222 222 q 290 220 264 226 q 342 214 317 214 q 438 231 393 214 q 517 277 483 247 q 569 351 550 307 q 589 449 589 394 q 573 528 589 492 q 533 588 557 564 l 672 588 l 672 675 l 438 675 q 394 687 418 682 q 342 692 369 692 q 244 675 290 692 q 163 627 197 658 q 108 551 128 596 q 88 451 88 507 q 115 344 88 390 q 175 269 142 297 l 175 264 q 125 214 149 246 q 101 139 101 182 q 119 72 101 99 q 161 29 136 44 l 161 24 q 89 -47 115 -8 q 63 -129 63 -86 q 83 -207 63 -174 q 140 -264 103 -240 q 228 -299 176 -287 q 342 -311 279 -311 m 342 290 q 287 301 313 290 q 241 333 261 313 q 210 384 221 354 q 199 451 199 414 q 240 567 199 526 q 342 608 282 608 q 443 567 401 608 q 485 451 485 526 q 474 384 485 414 q 442 333 463 354 q 397 301 422 313 q 342 290 371 290 m 358 -232 q 215 -200 267 -232 q 163 -114 163 -168 q 179 -56 163 -85 q 232 0 196 -26 q 277 -9 254 -7 q 319 -11 300 -11 l 436 -11 q 538 -29 503 -11 q 572 -94 572 -47 q 557 -146 572 -121 q 514 -190 542 -171 q 447 -220 486 -208 q 358 -232 407 -232 m 314 797 l 428 797 l 586 992 l 538 1036 l 374 879 l 368 879 l 204 1036 l 156 992 l 314 797 "},"ḡ":{"ha":700,"x_min":63,"x_max":683,"o":"m 342 -311 q 484 -292 421 -311 q 592 -242 547 -274 q 660 -167 636 -210 q 683 -78 683 -125 q 624 45 683 7 q 447 83 565 83 l 317 83 q 222 104 247 83 q 197 157 197 125 q 210 203 197 185 q 240 238 222 222 q 290 220 264 226 q 342 214 317 214 q 438 231 393 214 q 517 277 483 247 q 569 351 550 307 q 589 449 589 394 q 573 528 589 492 q 533 588 557 564 l 672 588 l 672 675 l 438 675 q 394 687 418 682 q 342 692 369 692 q 244 675 290 692 q 163 627 197 658 q 108 551 128 596 q 88 451 88 507 q 115 344 88 390 q 175 269 142 297 l 175 264 q 125 214 149 246 q 101 139 101 182 q 119 72 101 99 q 161 29 136 44 l 161 24 q 89 -47 115 -8 q 63 -129 63 -86 q 83 -207 63 -174 q 140 -264 103 -240 q 228 -299 176 -287 q 342 -311 279 -311 m 342 290 q 287 301 313 290 q 241 333 261 313 q 210 384 221 354 q 199 451 199 414 q 240 567 199 526 q 342 608 282 608 q 443 567 401 608 q 485 451 485 526 q 474 384 485 414 q 442 333 463 354 q 397 301 422 313 q 342 290 371 290 m 358 -232 q 215 -200 267 -232 q 163 -114 163 -168 q 179 -56 163 -85 q 232 0 196 -26 q 277 -9 254 -7 q 319 -11 300 -11 l 436 -11 q 538 -29 503 -11 q 572 -94 572 -47 q 557 -146 572 -121 q 514 -190 542 -171 q 447 -220 486 -208 q 358 -232 407 -232 m 186 835 l 556 835 l 556 914 l 186 914 l 186 835 "},"ĥ":{"ha":756,"x_min":-33,"x_max":654,"o":"m 114 0 l 228 0 l 228 489 q 319 567 279 540 q 413 593 360 593 q 510 551 479 593 q 540 413 540 508 l 540 0 l 654 0 l 654 428 q 605 625 654 558 q 449 692 556 692 q 325 659 378 692 q 224 581 272 626 l 228 719 l 228 989 l 114 989 l 114 0 m -33 1065 l 17 1029 l 169 1158 l 175 1158 l 328 1029 l 378 1065 l 232 1222 l 113 1222 l -33 1065 "},"ḥ":{"ha":756,"x_min":114,"x_max":654,"o":"m 114 0 l 228 0 l 228 489 q 319 567 279 540 q 413 593 360 593 q 510 551 479 593 q 540 413 540 508 l 540 0 l 654 0 l 654 428 q 605 625 654 558 q 449 692 556 692 q 325 659 378 692 q 224 581 272 626 l 228 719 l 228 989 l 114 989 l 114 0 m 397 -285 q 451 -264 429 -285 q 472 -210 472 -243 q 451 -156 472 -178 q 397 -135 429 -135 q 344 -156 365 -135 q 322 -210 322 -178 q 344 -264 322 -243 q 397 -285 365 -285 "},"ẖ":{"ha":756,"x_min":114,"x_max":654,"o":"m 114 0 l 228 0 l 228 489 q 319 567 279 540 q 413 593 360 593 q 510 551 479 593 q 540 413 540 508 l 540 0 l 654 0 l 654 428 q 605 625 654 558 q 449 692 556 692 q 325 659 378 692 q 224 581 272 626 l 228 719 l 228 989 l 114 989 l 114 0 m 213 -235 l 582 -235 l 582 -156 l 213 -156 l 213 -235 "},"ḫ":{"ha":756,"x_min":114,"x_max":654,"o":"m 114 0 l 228 0 l 228 489 q 319 567 279 540 q 413 593 360 593 q 510 551 479 593 q 540 413 540 508 l 540 0 l 654 0 l 654 428 q 605 625 654 558 q 449 692 556 692 q 325 659 378 692 q 224 581 272 626 l 228 719 l 228 989 l 114 989 l 114 0 m 396 -319 q 491 -301 451 -319 q 557 -253 531 -283 q 597 -186 583 -224 q 613 -110 610 -149 l 542 -99 q 527 -151 538 -125 q 499 -197 517 -176 q 455 -231 481 -218 q 396 -243 429 -243 q 337 -231 363 -243 q 293 -197 311 -218 q 265 -151 275 -176 q 250 -99 254 -125 l 179 -110 q 195 -186 182 -149 q 234 -253 208 -224 q 300 -301 260 -283 q 396 -319 340 -319 "},"ħ":{"ha":756,"x_min":11,"x_max":654,"o":"m 114 0 l 228 0 l 228 435 q 319 512 279 486 q 413 538 360 538 q 510 496 479 538 q 540 358 540 454 l 540 0 l 654 0 l 654 374 q 605 571 654 504 q 449 638 556 638 q 325 604 378 638 q 224 525 272 571 l 228 664 l 228 793 l 481 793 l 481 860 l 228 860 l 228 989 l 114 989 l 114 860 l 11 853 l 11 793 l 114 793 l 114 0 "},"ì":{"ha":342,"x_min":-28,"x_max":249,"o":"m 114 0 l 228 0 l 228 675 l 114 675 l 114 0 m 190 796 l 249 853 l 53 1085 l -28 1008 l 190 796 "},"í":{"ha":342,"x_min":93,"x_max":369,"o":"m 114 0 l 228 0 l 228 675 l 114 675 l 114 0 m 151 796 l 369 1008 l 289 1085 l 93 853 l 151 796 "},"î":{"ha":342,"x_min":-44,"x_max":386,"o":"m 114 0 l 228 0 l 228 675 l 114 675 l 114 0 m -44 833 l 4 789 l 168 946 l 174 946 l 338 789 l 386 833 l 228 1028 l 114 1028 l -44 833 "},"ĩ":{"ha":342,"x_min":-69,"x_max":411,"o":"m 114 0 l 228 0 l 228 675 l 114 675 l 114 0 m 271 801 q 333 816 307 801 q 375 856 358 831 q 401 915 392 881 q 411 989 410 949 l 335 994 q 317 915 332 946 q 271 885 301 885 q 226 903 246 885 q 183 943 206 921 q 135 983 161 965 q 71 1001 108 1001 q 9 987 35 1001 q -33 947 -17 972 q -59 888 -50 922 q -69 813 -68 853 l 7 808 q 25 888 10 857 q 72 918 40 918 q 116 900 96 918 q 158 860 136 882 q 207 819 181 838 q 271 801 233 801 "},"ï":{"ha":342,"x_min":-32,"x_max":374,"o":"m 114 0 l 228 0 l 228 675 l 114 675 l 114 0 m 38 815 q 86 835 67 815 q 106 885 106 856 q 86 934 106 914 q 38 954 67 954 q -12 934 7 954 q -32 885 -32 914 q -12 835 -32 856 q 38 815 7 815 m 304 815 q 354 835 335 815 q 374 885 374 856 q 354 934 374 914 q 304 954 335 954 q 256 934 275 954 q 236 885 236 914 q 256 835 236 856 q 304 815 275 815 "},"ī":{"ha":342,"x_min":-14,"x_max":356,"o":"m 114 0 l 228 0 l 228 675 l 114 675 l 114 0 m -14 835 l 356 835 l 356 914 l -14 914 l -14 835 "},"ǐ":{"ha":342,"x_min":-44,"x_max":386,"o":"m 114 0 l 228 0 l 228 675 l 114 675 l 114 0 m 114 797 l 228 797 l 386 992 l 338 1036 l 174 879 l 168 879 l 4 1036 l -44 992 l 114 797 "},"ỉ":{"ha":342,"x_min":76,"x_max":282,"o":"m 114 0 l 228 0 l 228 675 l 114 675 l 114 0 m 126 794 q 185 810 157 800 q 234 835 213 819 q 269 873 256 851 q 282 925 282 894 q 231 1020 282 988 q 83 1056 179 1053 l 76 981 q 192 915 192 975 q 169 873 192 888 q 114 850 147 858 l 126 794 "},"ị":{"ha":342,"x_min":93,"x_max":251,"o":"m 114 0 l 228 0 l 228 675 l 114 675 l 114 0 m 172 814 q 228 835 206 814 q 251 888 251 856 q 228 941 251 921 q 172 961 206 961 q 116 941 139 961 q 93 888 93 921 q 116 835 93 856 q 172 814 139 814 m 172 -285 q 226 -264 204 -285 q 247 -210 247 -243 q 226 -156 247 -178 q 172 -135 204 -135 q 119 -156 140 -135 q 97 -210 97 -178 q 119 -264 97 -243 q 172 -285 140 -285 "},"į":{"ha":342,"x_min":53,"x_max":288,"o":"m 179 -286 q 237 -275 206 -286 q 288 -249 268 -264 l 258 -192 q 231 -205 244 -200 q 203 -210 218 -210 q 157 -194 176 -210 q 138 -146 138 -178 q 162 -68 138 -106 q 228 0 186 -31 l 228 675 l 114 675 l 114 0 l 142 0 q 83 -71 113 -29 q 53 -168 53 -112 q 90 -256 53 -226 q 179 -286 126 -286 m 171 814 q 226 835 203 814 q 249 888 249 856 q 226 941 249 921 q 171 961 203 961 q 115 941 138 961 q 92 888 92 921 q 115 835 92 856 q 171 814 138 814 "},"ĭ":{"ha":342,"x_min":-44,"x_max":389,"o":"m 114 0 l 228 0 l 228 675 l 114 675 l 114 0 m 172 793 q 267 811 228 793 q 333 859 307 829 q 373 926 360 889 q 389 1003 386 964 l 318 1014 q 303 962 314 988 q 275 915 293 936 q 231 882 257 894 q 172 869 206 869 q 113 882 139 869 q 69 915 88 894 q 41 962 51 936 q 26 1014 31 988 l -44 1003 q -28 926 -42 964 q 10 859 -15 889 q 76 811 36 829 q 172 793 117 793 "},"ı":{"ha":342,"x_min":114,"x_max":228,"o":"m 114 0 l 228 0 l 228 675 l 114 675 l 114 0 "},"ĵ":{"ha":343,"x_min":-56,"x_max":386,"o":"m 44 -301 q 188 -240 146 -301 q 229 -76 229 -179 l 229 675 l 115 675 l 115 -76 q 99 -174 115 -139 q 32 -208 82 -208 q -3 -205 14 -208 q -32 -197 -19 -201 l -56 -283 q -12 -296 -37 -290 q 44 -301 13 -301 m -44 833 l 4 789 l 168 946 l 174 946 l 338 789 l 386 833 l 228 1028 l 114 1028 l -44 833 "},"ķ":{"ha":688,"x_min":114,"x_max":675,"o":"m 114 0 l 226 0 l 226 178 l 353 325 l 550 0 l 675 0 l 418 404 l 644 675 l 518 675 l 231 319 l 226 319 l 226 989 l 114 989 l 114 0 m 256 -314 q 426 -278 367 -308 q 485 -187 485 -249 q 449 -116 485 -140 q 322 -81 413 -92 l 297 -133 q 371 -151 346 -137 q 396 -192 396 -164 q 364 -235 396 -219 q 244 -258 332 -251 l 256 -314 "},"ḳ":{"ha":688,"x_min":114,"x_max":675,"o":"m 114 0 l 226 0 l 226 178 l 353 325 l 550 0 l 675 0 l 418 404 l 644 675 l 518 675 l 231 319 l 226 319 l 226 989 l 114 989 l 114 0 m 376 -285 q 430 -264 408 -285 q 451 -210 451 -243 q 430 -156 451 -178 q 376 -135 408 -135 q 323 -156 344 -135 q 301 -210 301 -178 q 323 -264 301 -243 q 376 -285 344 -285 "},"ḵ":{"ha":688,"x_min":114,"x_max":675,"o":"m 114 0 l 226 0 l 226 178 l 353 325 l 550 0 l 675 0 l 418 404 l 644 675 l 518 675 l 231 319 l 226 319 l 226 989 l 114 989 l 114 0 m 192 -235 l 561 -235 l 561 -156 l 192 -156 l 192 -235 "},"ĸ":{"ha":688,"x_min":114,"x_max":675,"o":"m 114 0 l 228 0 l 228 174 l 353 321 l 550 0 l 675 0 l 421 404 l 644 675 l 518 675 l 232 317 l 228 317 l 228 675 l 114 675 l 114 0 "},"ĺ":{"ha":354,"x_min":90,"x_max":353,"o":"m 235 -17 q 274 -14 258 -17 q 300 -6 289 -11 l 285 81 q 270 78 275 78 q 260 78 265 78 q 238 89 247 78 q 228 128 228 100 l 228 989 l 114 989 l 114 136 q 142 22 114 61 q 235 -17 169 -17 m 142 1040 l 353 1200 l 288 1276 l 90 1099 l 142 1040 "},"ľ":{"ha":375,"x_min":114,"x_max":383,"o":"m 235 -17 q 274 -14 258 -17 q 300 -6 289 -11 l 285 81 q 270 78 275 78 q 260 78 265 78 q 238 89 247 78 q 228 128 228 100 l 228 989 l 114 989 l 114 136 q 142 22 114 61 q 235 -17 169 -17 m 307 761 l 363 761 l 382 976 l 383 1056 l 301 1056 l 307 761 "},"ŀ":{"ha":503,"x_min":114,"x_max":504,"o":"m 235 -17 q 274 -14 258 -17 q 300 -6 289 -11 l 285 81 q 270 78 275 78 q 260 78 265 78 q 238 89 247 78 q 228 128 228 100 l 228 989 l 114 989 l 114 136 q 142 22 114 61 q 235 -17 169 -17 m 422 365 q 480 390 456 365 q 504 451 504 414 q 480 516 504 492 q 422 540 456 540 q 363 516 388 540 q 339 451 339 492 q 363 390 339 414 q 422 365 388 365 "},"ļ":{"ha":354,"x_min":86,"x_max":326,"o":"m 235 -17 q 274 -14 258 -17 q 300 -6 289 -11 l 285 81 q 270 78 275 78 q 260 78 265 78 q 238 89 247 78 q 228 128 228 100 l 228 989 l 114 989 l 114 136 q 142 22 114 61 q 235 -17 169 -17 m 97 -314 q 267 -278 208 -308 q 326 -187 326 -249 q 290 -116 326 -140 q 164 -81 254 -92 l 139 -133 q 213 -151 188 -137 q 238 -192 238 -164 q 206 -235 238 -219 q 86 -258 174 -251 l 97 -314 "},"ḷ":{"ha":354,"x_min":114,"x_max":300,"o":"m 235 -17 q 274 -14 258 -17 q 300 -6 289 -11 l 285 81 q 270 78 275 78 q 260 78 265 78 q 238 89 247 78 q 228 128 228 100 l 228 989 l 114 989 l 114 136 q 142 22 114 61 q 235 -17 169 -17 m 218 -285 q 272 -264 250 -285 q 293 -210 293 -243 q 272 -156 293 -178 q 218 -135 250 -135 q 165 -156 186 -135 q 143 -210 143 -178 q 165 -264 143 -243 q 218 -285 186 -285 "},"ḹ":{"ha":354,"x_min":-15,"x_max":354,"o":"m 235 -17 q 274 -14 258 -17 q 300 -6 289 -11 l 285 81 q 270 78 275 78 q 260 78 265 78 q 238 89 247 78 q 228 128 228 100 l 228 989 l 114 989 l 114 136 q 142 22 114 61 q 235 -17 169 -17 m -15 1142 l 354 1142 l 354 1221 l -15 1221 l -15 1142 m 218 -285 q 272 -264 250 -285 q 293 -210 293 -243 q 272 -156 293 -178 q 218 -135 250 -135 q 165 -156 186 -135 q 143 -210 143 -178 q 165 -264 143 -243 q 218 -285 186 -285 "},"ḻ":{"ha":354,"x_min":33,"x_max":403,"o":"m 235 -17 q 274 -14 258 -17 q 300 -6 289 -11 l 285 81 q 270 78 275 78 q 260 78 265 78 q 238 89 247 78 q 228 128 228 100 l 228 989 l 114 989 l 114 136 q 142 22 114 61 q 235 -17 169 -17 m 33 -235 l 403 -235 l 403 -156 l 33 -156 l 33 -235 "},"ł":{"ha":364,"x_min":-1,"x_max":350,"o":"m 240 -17 q 279 -14 264 -17 q 306 -6 294 -11 l 290 81 q 276 78 281 78 q 265 78 271 78 q 243 89 253 78 q 233 128 233 100 l 233 519 l 350 592 l 308 665 l 233 617 l 233 989 l 119 989 l 119 557 l -1 483 l 40 410 l 119 460 l 119 136 q 147 22 119 61 q 240 -17 175 -17 "},"ḿ":{"ha":1151,"x_min":114,"x_max":1046,"o":"m 114 0 l 228 0 l 228 489 q 397 593 321 593 q 493 551 463 593 q 524 413 524 508 l 524 0 l 638 0 l 638 489 q 807 593 731 593 q 901 551 871 593 q 932 413 932 508 l 932 0 l 1046 0 l 1046 428 q 995 625 1046 558 q 840 692 944 692 q 724 656 778 692 q 618 563 671 621 q 553 658 597 624 q 432 692 510 692 q 319 659 371 692 q 222 578 267 626 l 218 578 l 208 675 l 114 675 l 114 0 m 563 796 l 781 1008 l 700 1085 l 504 853 l 563 796 "},"ṁ":{"ha":1151,"x_min":114,"x_max":1046,"o":"m 114 0 l 228 0 l 228 489 q 397 593 321 593 q 493 551 463 593 q 524 413 524 508 l 524 0 l 638 0 l 638 489 q 807 593 731 593 q 901 551 871 593 q 932 413 932 508 l 932 0 l 1046 0 l 1046 428 q 995 625 1046 558 q 840 692 944 692 q 724 656 778 692 q 618 563 671 621 q 553 658 597 624 q 432 692 510 692 q 319 659 371 692 q 222 578 267 626 l 218 578 l 208 675 l 114 675 l 114 0 m 582 814 q 635 835 614 814 q 657 889 657 856 q 635 942 657 921 q 582 964 614 964 q 528 942 550 964 q 507 889 507 921 q 528 835 507 856 q 582 814 550 814 "},"ṃ":{"ha":1151,"x_min":114,"x_max":1046,"o":"m 114 0 l 228 0 l 228 489 q 397 593 321 593 q 493 551 463 593 q 524 413 524 508 l 524 0 l 638 0 l 638 489 q 807 593 731 593 q 901 551 871 593 q 932 413 932 508 l 932 0 l 1046 0 l 1046 428 q 995 625 1046 558 q 840 692 944 692 q 724 656 778 692 q 618 563 671 621 q 553 658 597 624 q 432 692 510 692 q 319 659 371 692 q 222 578 267 626 l 218 578 l 208 675 l 114 675 l 114 0 m 592 -285 q 645 -264 624 -285 q 667 -210 667 -243 q 645 -156 667 -178 q 592 -135 624 -135 q 538 -156 560 -135 q 517 -210 517 -178 q 538 -264 517 -243 q 592 -285 560 -285 "},"ń":{"ha":760,"x_min":114,"x_max":654,"o":"m 114 0 l 228 0 l 228 489 q 319 567 279 540 q 413 593 360 593 q 510 551 479 593 q 540 413 540 508 l 540 0 l 654 0 l 654 428 q 605 625 654 558 q 449 692 556 692 q 324 659 378 692 q 222 578 271 626 l 218 578 l 208 675 l 114 675 l 114 0 m 386 796 l 604 1008 l 524 1085 l 328 853 l 386 796 "},"ǹ":{"ha":760,"x_min":114,"x_max":654,"o":"m 114 0 l 228 0 l 228 489 q 319 567 279 540 q 413 593 360 593 q 510 551 479 593 q 540 413 540 508 l 540 0 l 654 0 l 654 428 q 605 625 654 558 q 449 692 556 692 q 324 659 378 692 q 222 578 271 626 l 218 578 l 208 675 l 114 675 l 114 0 m 424 796 l 482 853 l 286 1085 l 206 1008 l 424 796 "},"ň":{"ha":760,"x_min":114,"x_max":654,"o":"m 114 0 l 228 0 l 228 489 q 319 567 279 540 q 413 593 360 593 q 510 551 479 593 q 540 413 540 508 l 540 0 l 654 0 l 654 428 q 605 625 654 558 q 449 692 556 692 q 324 659 378 692 q 222 578 271 626 l 218 578 l 208 675 l 114 675 l 114 0 m 349 797 l 463 797 l 621 992 l 572 1036 l 408 879 l 403 879 l 239 1036 l 190 992 l 349 797 "},"ñ":{"ha":760,"x_min":114,"x_max":654,"o":"m 114 0 l 228 0 l 228 489 q 319 567 279 540 q 413 593 360 593 q 510 551 479 593 q 540 413 540 508 l 540 0 l 654 0 l 654 428 q 605 625 654 558 q 449 692 556 692 q 324 659 378 692 q 222 578 271 626 l 218 578 l 208 675 l 114 675 l 114 0 m 506 801 q 567 816 542 801 q 610 856 593 831 q 635 915 626 881 q 646 989 644 949 l 569 994 q 551 915 567 946 q 506 885 536 885 q 460 903 481 885 q 418 943 440 921 q 369 983 396 965 q 306 1001 343 1001 q 244 987 269 1001 q 201 947 218 972 q 176 888 185 922 q 165 813 167 853 l 242 808 q 260 888 244 857 q 307 918 275 918 q 351 900 331 918 q 393 860 371 882 q 442 819 415 838 q 506 801 468 801 "},"ņ":{"ha":760,"x_min":114,"x_max":654,"o":"m 114 0 l 228 0 l 228 489 q 319 567 279 540 q 413 593 360 593 q 510 551 479 593 q 540 413 540 508 l 540 0 l 654 0 l 654 428 q 605 625 654 558 q 449 692 556 692 q 324 659 378 692 q 222 578 271 626 l 218 578 l 208 675 l 114 675 l 114 0 m 267 -314 q 437 -278 378 -308 q 496 -187 496 -249 q 460 -116 496 -140 q 333 -81 424 -92 l 308 -133 q 382 -151 357 -137 q 407 -192 407 -164 q 375 -235 407 -219 q 256 -258 343 -251 l 267 -314 "},"ṅ":{"ha":760,"x_min":114,"x_max":654,"o":"m 114 0 l 228 0 l 228 489 q 319 567 279 540 q 413 593 360 593 q 510 551 479 593 q 540 413 540 508 l 540 0 l 654 0 l 654 428 q 605 625 654 558 q 449 692 556 692 q 324 659 378 692 q 222 578 271 626 l 218 578 l 208 675 l 114 675 l 114 0 m 406 814 q 459 835 438 814 q 481 889 481 856 q 459 942 481 921 q 406 964 438 964 q 352 942 374 964 q 331 889 331 921 q 352 835 331 856 q 406 814 374 814 "},"ṇ":{"ha":760,"x_min":114,"x_max":654,"o":"m 114 0 l 228 0 l 228 489 q 319 567 279 540 q 413 593 360 593 q 510 551 479 593 q 540 413 540 508 l 540 0 l 654 0 l 654 428 q 605 625 654 558 q 449 692 556 692 q 324 659 378 692 q 222 578 271 626 l 218 578 l 208 675 l 114 675 l 114 0 m 388 -285 q 441 -264 419 -285 q 463 -210 463 -243 q 441 -156 463 -178 q 388 -135 419 -135 q 334 -156 356 -135 q 313 -210 313 -178 q 334 -264 313 -243 q 388 -285 356 -285 "},"ṉ":{"ha":760,"x_min":114,"x_max":654,"o":"m 114 0 l 228 0 l 228 489 q 319 567 279 540 q 413 593 360 593 q 510 551 479 593 q 540 413 540 508 l 540 0 l 654 0 l 654 428 q 605 625 654 558 q 449 692 556 692 q 324 659 378 692 q 222 578 271 626 l 218 578 l 208 675 l 114 675 l 114 0 m 203 -235 l 572 -235 l 572 -156 l 203 -156 l 203 -235 "},"ŉ":{"ha":1076,"x_min":88,"x_max":963,"o":"m 422 0 l 536 0 l 536 489 q 628 567 588 540 q 721 593 668 593 q 818 551 788 593 q 849 413 849 508 l 849 0 l 963 0 l 963 428 q 913 625 963 558 q 757 692 864 692 q 633 659 686 692 q 531 578 579 626 l 526 578 l 517 675 l 422 675 l 422 0 m 119 599 q 230 701 192 640 q 268 844 268 761 q 244 938 268 906 q 181 971 221 971 q 128 950 149 971 q 107 893 107 929 q 129 842 107 860 q 181 824 151 824 q 192 825 188 824 q 166 726 192 765 q 88 651 140 686 l 119 599 "},"ò":{"ha":753,"x_min":64,"x_max":689,"o":"m 376 -17 q 495 7 439 -17 q 594 76 551 31 q 663 187 638 121 q 689 336 689 253 q 663 487 689 421 q 594 599 638 553 q 495 668 551 644 q 376 692 439 692 q 258 668 314 692 q 158 599 201 644 q 90 487 115 553 q 64 336 64 421 q 90 187 64 253 q 158 76 115 121 q 258 7 201 31 q 376 -17 314 -17 m 376 78 q 297 97 333 78 q 235 149 261 115 q 196 231 210 183 q 182 336 182 278 q 196 442 182 394 q 235 525 210 490 q 297 578 261 560 q 376 597 333 597 q 456 578 419 597 q 517 525 492 560 q 557 442 543 490 q 571 336 571 394 q 557 231 571 278 q 517 149 543 183 q 456 97 492 115 q 376 78 419 78 m 396 796 l 454 853 l 258 1085 l 178 1008 l 396 796 "},"ó":{"ha":753,"x_min":64,"x_max":689,"o":"m 376 -17 q 495 7 439 -17 q 594 76 551 31 q 663 187 638 121 q 689 336 689 253 q 663 487 689 421 q 594 599 638 553 q 495 668 551 644 q 376 692 439 692 q 258 668 314 692 q 158 599 201 644 q 90 487 115 553 q 64 336 64 421 q 90 187 64 253 q 158 76 115 121 q 258 7 201 31 q 376 -17 314 -17 m 376 78 q 297 97 333 78 q 235 149 261 115 q 196 231 210 183 q 182 336 182 278 q 196 442 182 394 q 235 525 210 490 q 297 578 261 560 q 376 597 333 597 q 456 578 419 597 q 517 525 492 560 q 557 442 543 490 q 571 336 571 394 q 557 231 571 278 q 517 149 543 183 q 456 97 492 115 q 376 78 419 78 m 357 796 l 575 1008 l 494 1085 l 299 853 l 357 796 "},"ô":{"ha":753,"x_min":64,"x_max":689,"o":"m 376 -17 q 495 7 439 -17 q 594 76 551 31 q 663 187 638 121 q 689 336 689 253 q 663 487 689 421 q 594 599 638 553 q 495 668 551 644 q 376 692 439 692 q 258 668 314 692 q 158 599 201 644 q 90 487 115 553 q 64 336 64 421 q 90 187 64 253 q 158 76 115 121 q 258 7 201 31 q 376 -17 314 -17 m 376 78 q 297 97 333 78 q 235 149 261 115 q 196 231 210 183 q 182 336 182 278 q 196 442 182 394 q 235 525 210 490 q 297 578 261 560 q 376 597 333 597 q 456 578 419 597 q 517 525 492 560 q 557 442 543 490 q 571 336 571 394 q 557 231 571 278 q 517 149 543 183 q 456 97 492 115 q 376 78 419 78 m 161 833 l 210 789 l 374 946 l 379 946 l 543 789 l 592 833 l 433 1028 l 319 1028 l 161 833 "},"õ":{"ha":753,"x_min":64,"x_max":689,"o":"m 376 -17 q 495 7 439 -17 q 594 76 551 31 q 663 187 638 121 q 689 336 689 253 q 663 487 689 421 q 594 599 638 553 q 495 668 551 644 q 376 692 439 692 q 258 668 314 692 q 158 599 201 644 q 90 487 115 553 q 64 336 64 421 q 90 187 64 253 q 158 76 115 121 q 258 7 201 31 q 376 -17 314 -17 m 376 78 q 297 97 333 78 q 235 149 261 115 q 196 231 210 183 q 182 336 182 278 q 196 442 182 394 q 235 525 210 490 q 297 578 261 560 q 376 597 333 597 q 456 578 419 597 q 517 525 492 560 q 557 442 543 490 q 571 336 571 394 q 557 231 571 278 q 517 149 543 183 q 456 97 492 115 q 376 78 419 78 m 476 801 q 538 816 513 801 q 581 856 564 831 q 606 915 597 881 q 617 989 615 949 l 540 994 q 522 915 538 946 q 476 885 507 885 q 431 903 451 885 q 389 943 411 921 q 340 983 367 965 q 276 1001 314 1001 q 215 987 240 1001 q 172 947 189 972 q 147 888 156 922 q 136 813 138 853 l 213 808 q 231 888 215 857 q 278 918 246 918 q 322 900 301 918 q 364 860 342 882 q 413 819 386 838 q 476 801 439 801 "},"ö":{"ha":753,"x_min":64,"x_max":689,"o":"m 376 -17 q 495 7 439 -17 q 594 76 551 31 q 663 187 638 121 q 689 336 689 253 q 663 487 689 421 q 594 599 638 553 q 495 668 551 644 q 376 692 439 692 q 258 668 314 692 q 158 599 201 644 q 90 487 115 553 q 64 336 64 421 q 90 187 64 253 q 158 76 115 121 q 258 7 201 31 q 376 -17 314 -17 m 376 78 q 297 97 333 78 q 235 149 261 115 q 196 231 210 183 q 182 336 182 278 q 196 442 182 394 q 235 525 210 490 q 297 578 261 560 q 376 597 333 597 q 456 578 419 597 q 517 525 492 560 q 557 442 543 490 q 571 336 571 394 q 557 231 571 278 q 517 149 543 183 q 456 97 492 115 q 376 78 419 78 m 243 815 q 292 835 272 815 q 311 885 311 856 q 292 934 311 914 q 243 954 272 954 q 193 934 213 954 q 174 885 174 914 q 193 835 174 856 q 243 815 213 815 m 510 815 q 560 835 540 815 q 579 885 579 856 q 560 934 579 914 q 510 954 540 954 q 461 934 481 954 q 442 885 442 914 q 461 835 442 856 q 510 815 481 815 "},"ō":{"ha":753,"x_min":64,"x_max":689,"o":"m 376 -17 q 495 7 439 -17 q 594 76 551 31 q 663 187 638 121 q 689 336 689 253 q 663 487 689 421 q 594 599 638 553 q 495 668 551 644 q 376 692 439 692 q 258 668 314 692 q 158 599 201 644 q 90 487 115 553 q 64 336 64 421 q 90 187 64 253 q 158 76 115 121 q 258 7 201 31 q 376 -17 314 -17 m 376 78 q 297 97 333 78 q 235 149 261 115 q 196 231 210 183 q 182 336 182 278 q 196 442 182 394 q 235 525 210 490 q 297 578 261 560 q 376 597 333 597 q 456 578 419 597 q 517 525 492 560 q 557 442 543 490 q 571 336 571 394 q 557 231 571 278 q 517 149 543 183 q 456 97 492 115 q 376 78 419 78 m 192 835 l 561 835 l 561 914 l 192 914 l 192 835 "},"ő":{"ha":753,"x_min":64,"x_max":689,"o":"m 376 -17 q 495 7 439 -17 q 594 76 551 31 q 663 187 638 121 q 689 336 689 253 q 663 487 689 421 q 594 599 638 553 q 495 668 551 644 q 376 692 439 692 q 258 668 314 692 q 158 599 201 644 q 90 487 115 553 q 64 336 64 421 q 90 187 64 253 q 158 76 115 121 q 258 7 201 31 q 376 -17 314 -17 m 376 78 q 297 97 333 78 q 235 149 261 115 q 196 231 210 183 q 182 336 182 278 q 196 442 182 394 q 235 525 210 490 q 297 578 261 560 q 376 597 333 597 q 456 578 419 597 q 517 525 492 560 q 557 442 543 490 q 571 336 571 394 q 557 231 571 278 q 517 149 543 183 q 456 97 492 115 q 376 78 419 78 m 306 789 l 444 1018 l 363 1057 l 243 818 l 306 789 m 515 789 l 653 1018 l 572 1057 l 451 818 l 515 789 "},"ǒ":{"ha":753,"x_min":64,"x_max":689,"o":"m 376 -17 q 495 7 439 -17 q 594 76 551 31 q 663 187 638 121 q 689 336 689 253 q 663 487 689 421 q 594 599 638 553 q 495 668 551 644 q 376 692 439 692 q 258 668 314 692 q 158 599 201 644 q 90 487 115 553 q 64 336 64 421 q 90 187 64 253 q 158 76 115 121 q 258 7 201 31 q 376 -17 314 -17 m 376 78 q 297 97 333 78 q 235 149 261 115 q 196 231 210 183 q 182 336 182 278 q 196 442 182 394 q 235 525 210 490 q 297 578 261 560 q 376 597 333 597 q 456 578 419 597 q 517 525 492 560 q 557 442 543 490 q 571 336 571 394 q 557 231 571 278 q 517 149 543 183 q 456 97 492 115 q 376 78 419 78 m 319 797 l 433 797 l 592 992 l 543 1036 l 379 879 l 374 879 l 210 1036 l 161 992 l 319 797 "},"ọ":{"ha":753,"x_min":64,"x_max":689,"o":"m 376 -17 q 495 7 439 -17 q 594 76 551 31 q 663 187 638 121 q 689 336 689 253 q 663 487 689 421 q 594 599 638 553 q 495 668 551 644 q 376 692 439 692 q 258 668 314 692 q 158 599 201 644 q 90 487 115 553 q 64 336 64 421 q 90 187 64 253 q 158 76 115 121 q 258 7 201 31 q 376 -17 314 -17 m 376 78 q 297 97 333 78 q 235 149 261 115 q 196 231 210 183 q 182 336 182 278 q 196 442 182 394 q 235 525 210 490 q 297 578 261 560 q 376 597 333 597 q 456 578 419 597 q 517 525 492 560 q 557 442 543 490 q 571 336 571 394 q 557 231 571 278 q 517 149 543 183 q 456 97 492 115 q 376 78 419 78 m 378 -285 q 431 -264 410 -285 q 453 -210 453 -243 q 431 -156 453 -178 q 378 -135 410 -135 q 324 -156 346 -135 q 303 -210 303 -178 q 324 -264 303 -243 q 378 -285 346 -285 "},"ỏ":{"ha":753,"x_min":64,"x_max":689,"o":"m 376 -17 q 495 7 439 -17 q 594 76 551 31 q 663 187 638 121 q 689 336 689 253 q 663 487 689 421 q 594 599 638 553 q 495 668 551 644 q 376 692 439 692 q 258 668 314 692 q 158 599 201 644 q 90 487 115 553 q 64 336 64 421 q 90 187 64 253 q 158 76 115 121 q 258 7 201 31 q 376 -17 314 -17 m 376 78 q 297 97 333 78 q 235 149 261 115 q 196 231 210 183 q 182 336 182 278 q 196 442 182 394 q 235 525 210 490 q 297 578 261 560 q 376 597 333 597 q 456 578 419 597 q 517 525 492 560 q 557 442 543 490 q 571 336 571 394 q 557 231 571 278 q 517 149 543 183 q 456 97 492 115 q 376 78 419 78 m 332 794 q 390 810 363 800 q 440 835 418 819 q 474 873 461 851 q 488 925 488 894 q 436 1020 488 988 q 289 1056 385 1053 l 282 981 q 397 915 397 975 q 375 873 397 888 q 319 850 353 858 l 332 794 "},"ố":{"ha":753,"x_min":64,"x_max":703,"o":"m 376 -17 q 495 7 439 -17 q 594 76 551 31 q 663 187 638 121 q 689 336 689 253 q 663 487 689 421 q 594 599 638 553 q 495 668 551 644 q 376 692 439 692 q 258 668 314 692 q 158 599 201 644 q 90 487 115 553 q 64 336 64 421 q 90 187 64 253 q 158 76 115 121 q 258 7 201 31 q 376 -17 314 -17 m 376 78 q 297 97 333 78 q 235 149 261 115 q 196 231 210 183 q 182 336 182 278 q 196 442 182 394 q 235 525 210 490 q 297 578 261 560 q 376 597 333 597 q 456 578 419 597 q 517 525 492 560 q 557 442 543 490 q 571 336 571 394 q 557 231 571 278 q 517 149 543 183 q 456 97 492 115 q 376 78 419 78 m 231 792 l 374 892 l 379 892 l 522 792 l 563 839 l 424 967 l 329 967 l 190 839 l 231 792 m 514 924 l 563 885 l 703 1043 l 635 1090 l 514 924 "},"ồ":{"ha":753,"x_min":33,"x_max":689,"o":"m 376 -17 q 495 7 439 -17 q 594 76 551 31 q 663 187 638 121 q 689 336 689 253 q 663 487 689 421 q 594 599 638 553 q 495 668 551 644 q 376 692 439 692 q 258 668 314 692 q 158 599 201 644 q 90 487 115 553 q 64 336 64 421 q 90 187 64 253 q 158 76 115 121 q 258 7 201 31 q 376 -17 314 -17 m 376 78 q 297 97 333 78 q 235 149 261 115 q 196 231 210 183 q 182 336 182 278 q 196 442 182 394 q 235 525 210 490 q 297 578 261 560 q 376 597 333 597 q 456 578 419 597 q 517 525 492 560 q 557 442 543 490 q 571 336 571 394 q 557 231 571 278 q 517 149 543 183 q 456 97 492 115 q 376 78 419 78 m 231 792 l 374 892 l 379 892 l 522 792 l 563 839 l 424 967 l 329 967 l 190 839 l 231 792 m 239 928 l 100 1090 l 33 1040 l 190 885 l 239 928 "},"ổ":{"ha":753,"x_min":64,"x_max":689,"o":"m 376 -17 q 495 7 439 -17 q 594 76 551 31 q 663 187 638 121 q 689 336 689 253 q 663 487 689 421 q 594 599 638 553 q 495 668 551 644 q 376 692 439 692 q 258 668 314 692 q 158 599 201 644 q 90 487 115 553 q 64 336 64 421 q 90 187 64 253 q 158 76 115 121 q 258 7 201 31 q 376 -17 314 -17 m 376 78 q 297 97 333 78 q 235 149 261 115 q 196 231 210 183 q 182 336 182 278 q 196 442 182 394 q 235 525 210 490 q 297 578 261 560 q 376 597 333 597 q 456 578 419 597 q 517 525 492 560 q 557 442 543 490 q 571 336 571 394 q 557 231 571 278 q 517 149 543 183 q 456 97 492 115 q 376 78 419 78 m 231 792 l 374 892 l 379 892 l 522 792 l 563 839 l 424 967 l 329 967 l 190 839 l 231 792 m 538 882 q 585 896 563 888 q 626 917 608 904 q 656 950 644 931 q 667 997 667 969 q 623 1071 667 1046 q 497 1099 579 1096 l 488 1042 q 561 1026 539 1039 q 583 985 583 1013 q 567 950 583 963 q 525 931 551 938 l 538 882 "}}}
